<svg xmlns="http://www.w3.org/2000/svg" viewBox="0 0 50.35 50.35"><defs><style>.cls-1{fill:#32abe1;}.cls-2{fill:#feffff;}</style></defs><title>Zasób 2</title><g id="Warstwa_2" data-name="Warstwa 2"><g id="Warstwa_1-2" data-name="Warstwa 1"><path class="cls-1" d="M25.19,50.35A25.18,25.18,0,1,1,50.35,25.22,25.14,25.14,0,0,1,25.19,50.35ZM40.1,12.88a3.17,3.17,0,0,0-1.26.48c-1.38.59-2.53.89-4-.24a5.85,5.85,0,0,0-6.92,0,6.2,6.2,0,0,0-3.08,6.14c.1,1.1-.32,1-1,.91A18.87,18.87,0,0,1,11.89,14c-.67-.75-.82-.41-1.05.25a6.61,6.61,0,0,0,1.29,6.86c.24.28.62.45.7.87a2.36,2.36,0,0,1-1.21-.11c-.38-.07-.79-.57-1.12-.15s-.08.8,0,1.2a6.73,6.73,0,0,0,4.78,4.92c-.82.56-1.71.15-2.57.33a6.77,6.77,0,0,0,6,4.46,12.39,12.39,0,0,1-4.43,2.3,14.88,14.88,0,0,1-5.1.47,18.82,18.82,0,0,0,18.39,1c6.81-3.49,10-9.34,10.43-16.84a2,2,0,0,1,.78-1.61A8,8,0,0,0,41,15.42c-1.08.13-2,.7-3.18.64,1-1,2-1.79,2.32-3.11l.09-.15Z"/><path class="cls-2" d="M40.17,13c-.3,1.32-1.29,2.15-2.32,3.11,1.2.06,2.1-.51,3.18-.64a8,8,0,0,1-2.22,2.52A2,2,0,0,0,38,19.55c-.42,7.5-3.62,13.35-10.43,16.84a18.82,18.82,0,0,1-18.39-1,14.88,14.88,0,0,0,5.1-.47,12.39,12.39,0,0,0,4.43-2.3,6.77,6.77,0,0,1-6-4.46c.86-.18,1.75.23,2.57-.33a6.73,6.73,0,0,1-4.78-4.92c-.1-.4-.27-.89,0-1.2s.74.08,1.12.15a2.36,2.36,0,0,0,1.21.11c-.08-.42-.46-.59-.7-.87a6.61,6.61,0,0,1-1.29-6.86c.23-.66.38-1,1.05-.25A18.87,18.87,0,0,0,23.8,20.13c.7.09,1.12.19,1-.91a6.2,6.2,0,0,1,3.08-6.14,5.85,5.85,0,0,1,6.92,0c1.49,1.13,2.64.83,4,.24a3.17,3.17,0,0,1,1.26-.48Z"/><path class="cls-2" d="M40.1,12.88l.16-.08-.09.15Z"/></g></g></svg>