<svg xmlns="http://www.w3.org/2000/svg" viewBox="0 0 620.58 539.54"><defs><style>.cls-1{fill:#b67e2c;}.cls-2,.cls-3{fill:#4c4c4c;}.cls-2{stroke:#4c4c4c;stroke-miterlimit:10;}</style></defs><title>cds2</title><g id="Warstwa_2" data-name="Warstwa 2"><g id="Warstwa_1-2" data-name="Warstwa 1"><path class="cls-1" d="M9.3,380.91c80.36.17,160.27.17,240.41,0"/><path class="cls-1" d="M9.22,380.17v.62a.74.74,0,0,1,0,.21v.65H249.71v-1.48Z"/><path class="cls-1" d="M9.22,379.72v1.06a.89.89,0,0,1,0,.23v1.09H249.71v-2.38Z"/><path class="cls-1" d="M8.48,379v0a2.74,2.74,0,0,1,0,3.75v.06h242V379ZM249,381.36H10v-.9H249Z"/><path class="cls-1" d="M233,380.86c5.55,0,18.18,2.27,22.23,8a1.36,1.36,0,0,0,1.7.32c3.28-1.73,13.67-6.57,30.39-8.22.57-.05.56-.71,0-.75-16.63-1.22-27-6.43-30.33-8.36a1.35,1.35,0,0,0-1.76.31c-3.66,5.68-12.2,8.36-22.22,8.36Z"/><path class="cls-1" d="M608.39,380.11c-80.17-.15-160.08-.15-240.31,0"/><path class="cls-1" d="M608.56,379.38H368.09v1.47H608.54A2.82,2.82,0,0,1,608.56,379.38Z"/><path class="cls-1" d="M608.57,379.34v-.42H368.08v2.38H608.57V381A2.79,2.79,0,0,1,608.57,379.34Z"/><path class="cls-1" d="M609.29,378.19H367.35V382H609.21A2.72,2.72,0,0,1,609.29,378.19Zm-1.46,2.37h-239v-.9h239Z"/><path class="cls-1" d="M384.8,380.16c-5.55,0-18.18-2.27-22.23-8a1.36,1.36,0,0,0-1.7-.32c-3.28,1.73-13.67,6.57-30.39,8.22-.57.05-.56.71,0,.75,16.63,1.22,27,6.43,30.33,8.36a1.36,1.36,0,0,0,1.77-.31c3.65-5.68,12.19-8.36,22.21-8.36Z"/><path class="cls-1" d="M611.77,362.53c-4.73,4.35-8.8,12.21-8.8,12.21s8.17-3.4,12.9-7.75,5.35-6.77,4.22-8S616.49,358.18,611.77,362.53Z"/><path class="cls-1" d="M595.47,363.46c-4.26,3.92-7.92,11-7.92,11s7.36-3.06,11.61-7,4.82-6.09,3.8-7.2S599.72,359.55,595.47,363.46Z"/><path class="cls-1" d="M581.24,365.77c-3.4,3.14-6.33,8.79-6.33,8.79s5.88-2.44,9.29-5.57,3.85-4.88,3-5.77S584.65,362.64,581.24,365.77Z"/><path class="cls-1" d="M567.63,369.85a23,23,0,0,0-3.8,5.27,22.64,22.64,0,0,0,5.57-3.34c2-1.88,2.32-2.93,1.83-3.46S569.67,368,567.63,369.85Z"/><path class="cls-1" d="M8.88,364.48c4.85,4.21,9.14,11.94,9.14,11.94s-8.26-3.15-13.11-7.36-5.56-6.61-4.46-7.88S4,360.27,8.88,364.48Z"/><path class="cls-1" d="M25.19,364.93c4.37,3.79,8.24,10.75,8.24,10.75s-7.44-2.84-11.81-6.63-5-5.94-4-7.08S20.83,361.15,25.19,364.93Z"/><path class="cls-1" d="M39.48,366.82c3.49,3,6.59,8.6,6.59,8.6s-6-2.27-9.45-5.3-4-4.76-3.21-5.67S36,363.79,39.48,366.82Z"/><path class="cls-1" d="M53.21,370.5a23.07,23.07,0,0,1,3.95,5.16,22.8,22.8,0,0,1-5.67-3.18c-2.09-1.82-2.4-2.86-1.92-3.4S51.11,368.68,53.21,370.5Z"/><path class="cls-1" d="M544.94,471.28l-23-.9-23-.68c-7.67-.2-15.34-.78-23-.45a190.14,190.14,0,0,0-23,2v.46a190.14,190.14,0,0,0,23,2c7.67.33,15.34-.25,23-.45l23-.68,23-.9Z"/><path class="cls-1" d="M139.53,469.25c-7.67-.33-15.34.25-23,.45l-23,.68-23,.9v.46l23,.9,23,.68c7.66.2,15.33.78,23,.45a190,190,0,0,0,23-2v-.46A190,190,0,0,0,139.53,469.25Z"/><path class="cls-2" d="M477.3,334.09a67.92,67.92,0,0,0-11.08-15.85,3.73,3.73,0,0,1-.26-.3c-29.53-36.36-42.21-37.26-42.21-37.26s-22.11-1.12-12.46-13.11c12.7-10.72,11.14-20.39,10.08-23.71a4.48,4.48,0,0,1-.09-2.59,39.13,39.13,0,0,0,.63-17.27c-1.75-8.28-.79-23.58-.49-27.62a4.73,4.73,0,0,1,.57-1.87c5.32-9.76,3.65-22.1,3-25.71a4.65,4.65,0,0,1,.13-2.13c3-10.73-2.07-16.1-4.85-22.44A25.3,25.3,0,0,1,418.51,132a4.7,4.7,0,0,0-.36-2.34,35.9,35.9,0,0,0-9.54-13.09C402,111.13,389,107,387.16,106.47l-.46-.17c-34.69-15.49-61.09,2.28-66,6a4.75,4.75,0,0,1-2,.85,20.52,20.52,0,0,0-16.56,15.74,4.87,4.87,0,0,1-1.83,2.74c-11.07,8.24-12.45,17.27-12.4,21.48A4.59,4.59,0,0,1,285.8,157c-25,15.95-24.81,27.2-22.65,32.36a4.72,4.72,0,0,1-1.34,5.58c-9.75,7.63-8.35,15.1-6.1,19.47a4.61,4.61,0,0,1-2.06,6.16c-16.05,8.14-17.86,16.62-17.33,21.3a4.64,4.64,0,0,1-3,4.91c-9.42,3.48-13.43,9.09-15,12.27a4.69,4.69,0,0,1-3.77,2.6c-13.62,1.19-18.08,6.79-19.49,9.7a4.64,4.64,0,0,1-3,2.38,44.25,44.25,0,0,0-30.91,29.81,4.66,4.66,0,0,1-2.2,2.69c-16,9.05-18.8,15.28-18,19.09a4.63,4.63,0,0,0,7,2.72c42.39-26.68,93.28-35.27,93.28-35.27s2.63-.72,8,0h0a.22.22,0,0,1,.22,0s0,0,0,0c.8,0,1.65-.1,2.52-.16,1.72,8.3,7,36.52,48.22,54.26,0,0,56,18.83,80.8-25,0,0,7.84-16,6.83-28.83l.51.14.33.07a242.05,242.05,0,0,1,31.68,8.64c14.57,4.91,35.74,24.13,49.39,37.66C473.68,343.36,479.72,338.85,477.3,334.09ZM402.47,219.51c-1.62,5.52-4.49,8.59-10.43,19s-34,34.57-34,34.57.05.27.08.41c1.45,7,13.55,18.41,19.14,18.41.74,0,1.66.05,2.67.13,1.1,9.46-13.91,29.19-19.31,34.58-5.91,5.94-38,18-65.05,1-22.47-14.13-27.2-32.25-28.16-37.91l.25,0a4.79,4.79,0,0,0,.74-.21c1.82-.67,9.5-3.73,14-9.24,6.43-8.42,12.83-30.78,17.18-48.4,1.84-7.51,3.3-14.17,4.22-18.52a4.74,4.74,0,0,0-3.64-5.53,9.53,9.53,0,0,1-6.95-7.11,4.49,4.49,0,0,1,.47-3.54c5.3-8.56,14.31-11.28,16.73-11.88a4.16,4.16,0,0,0,1.42-.61c1.93-1.27,6.78-5.41,8.39-15.48,1.93-11.85,10.26-20.67,11.35-21.78l.24-.22c1.38-1.21,14.09-12.06,19.1-6.84,5.32,5.52,15.75,6.14,28.84,4.1s15.56-18.21,15.56-18.21,2.45,2.45,2.45,3.68,2,6.13,1.43,14.92,10.43,13.31,14.11,23.32c3,8.24-.15,16.87-1.39,19.71a4.16,4.16,0,0,0-.26,2.1c.59,5.64-4.07,10.32-4.07,10.32C397.37,213.37,404.12,214,402.47,219.51Z"/><path class="cls-1" d="M416,21.56c0-1.2-1.22-2.34-3.29-3.2,1-1.94,1.22-3.59.37-4.48s-2.58-.83-4.69,0c-.71-2.05-1.78-3.37-3-3.42s-2.45,1.16-3.35,3.15c-2-1-3.75-1.17-4.67-.36s-.87,2.48,0,4.5c-2.15.68-3.52,1.7-3.57,2.91s1.21,2.34,3.29,3.2c-1,1.94-1.23,3.59-.38,4.48a2,2,0,0,0,.95.51,16.4,16.4,0,0,1-6.66,8,9.53,9.53,0,0,1-7.15,1.12c-4.81-1.22-6.75-4.75-8.46-8.13-2.74-5.41-3.51-8.36-3.89-12.45-.25-2.73,2.77-5.85,2.7-6.17,0,0-3.32.28-3.64-.13a34.09,34.09,0,0,1-1.39-4.66s-1.46,4.1-1.73,4.38-3.64-.42-3.71-.41,3.76,4.19,2.39,7.66c-1.44,3.67-2.14,5.4-3.88,9a15.59,15.59,0,0,1-10,7.82c-5.29,1-10.61-2.38-13.37-6.8a23.21,23.21,0,0,1-2.61-6.16c2.31.4,4.11.12,4.91-1s.34-3.26-1.26-5.51c2.43-1.41,3.8-3,3.52-4.52s-2.17-2.54-5-3c.68-2.64.46-4.72-.84-5.59s-3.41-.32-5.75,1.21C330.35,1.09,328.65-.24,327.1,0s-2.65,2.08-3.17,4.76c-2.76-.65-4.93-.44-5.83.8s-.34,3.27,1.26,5.52c-2.43,1.41-3.81,3-3.53,4.52s2.17,2.54,5,3c-.67,2.64-.45,4.72.85,5.59s3,.41,5.08-.8c.21-.12.41-.25.62-.39.42,4.14-.69,8.29-2.31,12.67a9.78,9.78,0,0,1-3.38,4.64c-4.65,3.33-8.47.49-12.3-1.38-4.22-2.06-9.85-7-13-10.73-.65-.75,2.37-4.79,2.37-4.79s-4.64,1.79-5.11,1.53-3.28-3.51-3.38-3.46.95,4.37.9,5-4,1.94-4,1.94c.1.2,4.77,1.29,4.88,1.93.4,2.2,1,4.66,1.15,6.24a32.58,32.58,0,0,1-1.71,13.78c-1.54,4.31-5.75,7.92-10.53,7.92-5.69,0-9.84-4.69-12.73-9.61,1.87-.33,3.17-1,3.44-2.06s-.7-2.52-2.56-3.76c1.4-1.71,2-3.29,1.3-4.32s-2.36-1.31-4.59-.93c-.27-2.15-1.05-3.64-2.27-3.93s-2.64.67-3.93,2.45c-1.78-1.34-3.43-1.86-4.51-1.24s-1.36,2.26-1,4.39c-2.24.26-3.8,1-4.1,2.18s.7,2.52,2.56,3.76c-1.4,1.71-2,3.29-1.3,4.32s2.05,1.25,4,1l.62-.09c.27,2.15,1.05,3.64,2.27,3.94s2.61-.67,3.9-2.42c5.23,8.48,17.67,29.22,22.55,50.85a.09.09,0,0,0,.18,0c7.37-16.94,26.54-31.75,51.44-37.51,26.49-6.14,52.07-.33,66.31,13.22a.1.1,0,0,0,.16-.1c-7.57-25.41-3.69-37.76.65-46.29.12-.24.25-.48.38-.72a2.07,2.07,0,0,0,.76.22c1.25.06,2.44-1.16,3.34-3.15l.47.21c1.82.78,3.35.9,4.21.15s.87-2.48,0-4.49C414.61,23.79,416,22.77,416,21.56Z"/><path class="cls-3" d="M38.74,421.35l.42,7.62c-2,3.28-5.75,5.93-12.44,5.93-10.87,0-18-6.06-18-16.16,0-9.91,6.84-16.08,18.09-16.08a24.3,24.3,0,0,1,11,2.4l.08,7.6h-.37c-1.61-5.82-5.41-8.13-10.28-8.13-7,0-11.31,5.4-11.31,14.1s4.15,14.23,10.74,14.4c6.81,0,10.27-3,11.65-11.68Z"/><path class="cls-3" d="M66,434.27H43v-.44h.56a2.85,2.85,0,0,0,2.84-2.78V406.36a2.85,2.85,0,0,0-2.84-2.64H43v-.44H60a19.2,19.2,0,0,0,5.29-.81v7.74h-.45v-.52a4.22,4.22,0,0,0-4.32-4.52H53.08v12.89H59a3.71,3.71,0,0,0,3.75-3.8v-.38h.43V424.1H62.7v-.39a3.69,3.69,0,0,0-3.7-3.79H53.08v12.46h5.81c4.42,0,7.29-2.75,8.66-7.14H68Z"/><path class="cls-3" d="M106,403.28v.44h-.82a2.74,2.74,0,0,0-2.73,2.65v22.88a28.85,28.85,0,0,0,.51,5.64h-.4l-22.37-21.3v17.57a2.73,2.73,0,0,0,2.73,2.67h.82v.44H70.26v-.44h.81a2.73,2.73,0,0,0,2.74-2.68v-23a27,27,0,0,0-.52-5.54h.44l22.34,21.3v-17.5a2.74,2.74,0,0,0-2.73-2.69h-.82v-.44Z"/><path class="cls-3" d="M136.17,410.15h-.45v-.52a4.23,4.23,0,0,0-4.43-4.52h-5.95v26a2.84,2.84,0,0,0,2.84,2.75h.56v.44H115.29v-.44h.57a2.84,2.84,0,0,0,2.83-2.71v-26h-6a4.23,4.23,0,0,0-4.42,4.52v.52h-.45v-7.72a19.24,19.24,0,0,0,5.25.8h17.81a19.31,19.31,0,0,0,5.25-.8Z"/><path class="cls-3" d="M153.91,403.28c5.37,0,10.53,2.18,10.53,8.35,0,3.72-2.22,7.91-7.25,8.41a9.52,9.52,0,0,1,4.52,3.92c.14.22,2.79,4.43,4.46,6.51,1.91,2.43,3.17,3.33,5.48,3.36v.44h-4.31c-4.85,0-8.37-1-10.4-4.59-1.08-1.87-3.07-6.26-3.69-7.58-.86-1.85-1.85-2.79-3-3v-.42h1.35c2.38,0,4.8-1.25,5.59-5.12a8.67,8.67,0,0,0,.17-2.15c-.18-4.23-2.32-6.13-5.22-6.2-1.18-.05-2.81,0-3.36,0v25.83a2.83,2.83,0,0,0,2.84,2.78h.55v.44H138.72v-.44h.57a2.83,2.83,0,0,0,2.83-2.76V406.5a2.84,2.84,0,0,0-2.83-2.78h-.57v-.44Z"/><path class="cls-3" d="M202.92,403.28v.44h-.72a2.26,2.26,0,0,0-2.34,2.09v17.24c0,7.28-4.78,11.84-12.74,11.84-9.48,0-14.43-4.53-14.43-11.76V405.91a2.26,2.26,0,0,0-2.34-2.19h-.72v-.44h12.75v.44h-.72a2.24,2.24,0,0,0-2.33,2.13v16.9c0,6.3,3.29,10.21,8.59,10.21s8.78-3.69,8.79-9.64V405.85a2.24,2.24,0,0,0-2.33-2.13h-.73v-.44Z"/><path class="cls-3" d="M242.27,431.06a3.17,3.17,0,0,0,3.22,2.77h.71v.44H232.9v-.41h.68a1.81,1.81,0,0,0,1.73-1.9l-1.75-16-8.29,14.34a12.71,12.71,0,0,0-1.71,4.9h-.42L211.75,416,210,432a1.81,1.81,0,0,0,1.73,1.9h.69v.41h-9.27v-.44h.7a3.15,3.15,0,0,0,3.24-2.77l3.67-28.4h.41l13.74,22.59,13.17-22.58h.41Z"/><path class="cls-3" d="M285.8,403.28c10.46,0,17,5.94,17,15.51s-6.52,15.49-17,15.49H269.74v-.45h.57a2.84,2.84,0,0,0,2.83-2.78v-24.8a2.73,2.73,0,0,0-2.82-2.53h-.56v-.44Zm-6,29.11h5.47c6.35,0,10.3-5.21,10.3-13.6s-4-13.64-10.29-13.64h-5.48Z"/><path class="cls-3" d="M338.86,403.28v.44h-.73a2.25,2.25,0,0,0-2.33,2.09v17.24c0,7.28-4.78,11.84-12.74,11.84-9.49,0-14.44-4.53-14.44-11.76V405.91a2.25,2.25,0,0,0-2.34-2.19h-.72v-.44h12.76v.44h-.72a2.26,2.26,0,0,0-2.34,2.13v16.9c0,6.3,3.3,10.21,8.6,10.21s8.78-3.69,8.79-9.64V405.85a2.25,2.25,0,0,0-2.34-2.13h-.72v-.44Z"/><path class="cls-3" d="M371.94,421.35l.43,7.62c-2,3.28-5.76,5.93-12.45,5.93-10.87,0-18-6.06-18-16.16,0-9.91,6.84-16.08,18.09-16.08a24.3,24.3,0,0,1,11,2.4l.09,7.6h-.37c-1.62-5.82-5.42-8.13-10.29-8.13-7,0-11.31,5.4-11.31,14.1s4.15,14.23,10.74,14.4c6.82,0,10.27-3,11.65-11.68Z"/><path class="cls-3" d="M397.23,434.27v-.44h.56a2.82,2.82,0,0,0,2.83-2.75v-11.3H386.28v11.27a2.83,2.83,0,0,0,2.84,2.78h.55v.44H376.23v-.44h.56a2.83,2.83,0,0,0,2.83-2.78V406.5a2.84,2.84,0,0,0-2.83-2.78h-.56v-.44h13.45v.44h-.55a2.85,2.85,0,0,0-2.84,2.78v11.41h14.35V406.5a2.88,2.88,0,0,0-2.83-2.78h-.56v-.44h13.45v.44h-.56a2.84,2.84,0,0,0-2.84,2.78v24.55a2.84,2.84,0,0,0,2.84,2.78h.56v.44Z"/><path class="cls-3" d="M448.62,418.78c0,10-6.78,16.11-17.42,16.11s-17.42-6.16-17.42-16.11,6.79-16.12,17.42-16.12S448.62,408.83,448.62,418.78Zm-7.27,0c0-8.8-3.91-14.26-10.15-14.26S421,410,421,418.78,425,433,431.2,433,441.35,427.57,441.35,418.78Z"/><path class="cls-3" d="M493.66,403.28v.44h-.39a4.14,4.14,0,0,0-3.83,2.59L482,430.15a16.38,16.38,0,0,0-.78,4.92h-.42l-9.66-21.38-7,16.46a16.55,16.55,0,0,0-1.09,4.92h-.41l-10.6-28.79a4.23,4.23,0,0,0-3.81-2.56h-.35v-.44h13.5v.44H461a1.91,1.91,0,0,0-1.71,2.77l5.45,15.36,8-19.26h.42L482,422.05l4.41-15.57c.49-1.78-.45-2.76-1.68-2.76h-.39v-.44Z"/><path class="cls-3" d="M528.5,418.78c0,10-6.79,16.11-17.42,16.11s-17.42-6.16-17.42-16.11,6.79-16.12,17.42-16.12S528.5,408.83,528.5,418.78Zm-7.27,0c0-8.8-3.91-14.26-10.15-14.26s-10.16,5.46-10.16,14.26S504.84,433,511.08,433,521.23,427.57,521.23,418.78Z"/><path class="cls-3" d="M549.94,418.38a7.81,7.81,0,0,1,4,7.35c-.28,5.76-4.62,9.16-11.7,9.16-4,0-7.7-1-9.31-2.69-.73-1.85-.11-5.58,1.05-7.51h.39c-.36,4.61,3,8.42,8.35,8.34,3.85-.07,6.12-2.21,6.12-5,0-1.8-1.16-3-3.54-4.58l-7.72-5.11c-3-2-4.56-4.72-4.24-7.95.38-4.58,3.74-7.75,9.32-7.75a59,59,0,0,1,6,.45h2.78l-.58,6.51h-.42c0-3.07-2.5-5.1-6.24-5.1-3.49,0-5.69,1.89-5.8,4.26-.11,1.75,1.23,2.92,3.09,4.12Zm-7.56-18.16a35.09,35.09,0,0,1,6.37-7.27,6,6,0,0,1,3,3.59,33.1,33.1,0,0,1-9.06,4Z"/><path class="cls-3" d="M587.94,421.35l.42,7.62c-2,3.28-5.76,5.93-12.44,5.93-10.87,0-18-6.06-18-16.16,0-9.91,6.84-16.08,18.09-16.08a24.3,24.3,0,0,1,11,2.4l.08,7.6h-.37c-1.61-5.82-5.41-8.13-10.28-8.13-7,0-11.31,5.4-11.31,14.1s4.15,14.23,10.74,14.4c6.81,0,10.27-3,11.65-11.68Z"/><path class="cls-3" d="M605.68,434.27H592.23v-.44h.56a2.84,2.84,0,0,0,2.84-2.78V406.48a2.83,2.83,0,0,0-2.83-2.76h-.57v-.44h13.45v.44h-.56a2.84,2.84,0,0,0-2.84,2.76v24.57a2.84,2.84,0,0,0,2.84,2.78h.56Z"/><path class="cls-3" d="M191.72,471.52c2.63,1.71,4.16,4,4,7.34-.27,5.77-4.61,9.17-11.7,9.17-4,0-7.69-1-9.3-2.69-.74-1.85-.11-5.58,1.05-7.52h.39c-.36,4.62,3,8.43,8.35,8.34,3.85-.07,6.12-2.2,6.11-5,0-1.8-1.16-3-3.54-4.58l-7.71-5.12c-3.05-2-4.56-4.72-4.24-7.94.38-4.59,3.74-7.76,9.32-7.76a56.59,56.59,0,0,1,6,.46h2.78l-.58,6.51h-.42c0-3.08-2.5-5.1-6.24-5.1-3.49,0-5.69,1.88-5.8,4.26-.11,1.74,1.23,2.91,3.08,4.12Zm-7.56-18.17a35.61,35.61,0,0,1,6.37-7.27,6,6,0,0,1,3,3.6,33.06,33.06,0,0,1-9.06,4Z"/><path class="cls-3" d="M242,456.42v.44h-.39a4.13,4.13,0,0,0-3.83,2.58l-7.44,23.85a16.38,16.38,0,0,0-.78,4.92h-.42l-9.66-21.38-7,16.46a16.46,16.46,0,0,0-1.09,4.92H211l-10.59-28.79a4.23,4.23,0,0,0-3.81-2.56h-.35v-.44h13.5v.43h-.39a1.91,1.91,0,0,0-1.71,2.78L213.1,475l8-19.27.41,0,8.81,19.45,4.42-15.58c.49-1.77-.45-2.76-1.68-2.76h-.39v-.44Z"/><path class="cls-3" d="M256.05,487.41H242.59V487h.56a2.84,2.84,0,0,0,2.84-2.79V459.62a2.84,2.84,0,0,0-2.84-2.77h-.56v-.44h13.45v.44h-.56a2.85,2.85,0,0,0-2.84,2.76v24.57a2.84,2.84,0,0,0,2.84,2.79H256Z"/><path class="cls-3" d="M282.62,487.41H259.69V487h.56a2.83,2.83,0,0,0,2.83-2.79V459.5a2.83,2.83,0,0,0-2.83-2.65h-.56v-.44h17a18.88,18.88,0,0,0,5.29-.8v7.74h-.45v-.52a4.22,4.22,0,0,0-4.32-4.51h-7.46v12.88h5.87a3.7,3.7,0,0,0,3.76-3.8V467h.43v10.24h-.43v-.38a3.7,3.7,0,0,0-3.7-3.79h-5.93v12.46h5.82c4.42,0,7.29-2.75,8.66-7.15h.45Z"/><path class="cls-3" d="M317.39,474.49l.43,7.62c-2,3.28-5.76,5.92-12.45,5.92-10.87,0-18-6-18-16.16,0-9.9,6.84-16.07,18.09-16.07a24.17,24.17,0,0,1,11,2.4l.08,7.59h-.36c-1.62-5.81-5.42-8.13-10.29-8.13-7,0-11.31,5.41-11.31,14.11s4.15,14.22,10.74,14.4c6.81,0,10.27-3,11.65-11.68Z"/><path class="cls-3" d="M331.73,484.18a2.83,2.83,0,0,0,2.83,2.79h.56v.44H321.68V487h.56a2.84,2.84,0,0,0,2.83-2.79V459.62a2.83,2.83,0,0,0-2.83-2.77h-.56v-.44h13.45v.44h-.56a2.83,2.83,0,0,0-2.83,2.76Zm18,0c1.35,1.79,2.71,2.7,4.51,2.74v.44h-3.64c-1.26,0-6.62.1-9.52-3.67-.84-1.14-7.92-10.87-7.92-10.93l10.52-13.89a1.26,1.26,0,0,0-1.06-2.11h-.43v-.39h10.16v.4h-.2a6.49,6.49,0,0,0-4.82,2.14l-8.61,10.23Z"/><path class="cls-3" d="M368.65,487.41H355.2V487h.56a2.84,2.84,0,0,0,2.84-2.79V459.62a2.84,2.84,0,0,0-2.84-2.77h-.56v-.44h13.45v.44h-.56a2.85,2.85,0,0,0-2.84,2.76v24.57a2.84,2.84,0,0,0,2.84,2.79h.56Z"/><path class="cls-3" d="M401.52,474.49l.42,7.62c-2,3.28-5.75,5.92-12.44,5.92-10.87,0-18-6-18-16.16,0-9.9,6.84-16.07,18.09-16.07a24.17,24.17,0,0,1,11,2.4l.08,7.59h-.36c-1.62-5.81-5.42-8.13-10.29-8.13-7,0-11.31,5.41-11.31,14.11s4.15,14.22,10.74,14.4c6.81,0,10.27-3,11.65-11.68Z"/><path class="cls-3" d="M426.81,487.41V487h.56a2.84,2.84,0,0,0,2.83-2.75V472.91H415.86v11.27a2.83,2.83,0,0,0,2.83,2.79h.56v.44H405.81V487h.55a2.83,2.83,0,0,0,2.84-2.79V459.64a2.86,2.86,0,0,0-2.83-2.79h-.56v-.44h13.45v.44h-.56a2.86,2.86,0,0,0-2.83,2.79v11.41h14.35V459.64a2.89,2.89,0,0,0-2.83-2.79h-.56v-.44h13.45v.44h-.56a2.83,2.83,0,0,0-2.83,2.79v24.54a2.83,2.83,0,0,0,2.83,2.79h.56v.44Z"/><path class="cls-1" d="M259.36,532.49a10.64,10.64,0,0,1-4.54.91c-4.77,0-7.87-3.23-7.87-8.06s3.33-8.39,8.49-8.39a9.58,9.58,0,0,1,4,.82l-.65,2.22a6.69,6.69,0,0,0-3.33-.75c-3.62,0-5.58,2.67-5.58,6,0,3.66,2.35,5.91,5.48,5.91a8.18,8.18,0,0,0,3.53-.79Z"/><path class="cls-1" d="M276.17,509.9V529c0,1.4,0,3,.13,4.08h-2.58l-.13-2.75h-.07a5.83,5.83,0,0,1-5.38,3.11c-3.82,0-6.76-3.24-6.76-8,0-5.26,3.23-8.49,7.08-8.49a5.29,5.29,0,0,1,4.77,2.41h.06V509.9Zm-2.88,13.81a5,5,0,0,0-.13-1.21,4.22,4.22,0,0,0-4.14-3.33c-3,0-4.73,2.61-4.73,6.11,0,3.19,1.56,5.84,4.66,5.84a4.31,4.31,0,0,0,4.21-3.43,4.87,4.87,0,0,0,.13-1.24Z"/><path class="cls-1" d="M280.54,530.14a7.58,7.58,0,0,0,3.79,1.14c2.08,0,3.06-1,3.06-2.35s-.81-2.12-2.93-2.9c-2.84-1-4.18-2.58-4.18-4.48,0-2.54,2.05-4.63,5.45-4.63a7.89,7.89,0,0,1,3.88,1L288.9,520a6.19,6.19,0,0,0-3.24-.92c-1.69,0-2.64,1-2.64,2.16s1,1.89,3,2.67c2.74,1.05,4.15,2.42,4.15,4.77,0,2.77-2.16,4.73-5.91,4.73a9,9,0,0,1-4.44-1.07Z"/><path class="cls-1" d="M292.81,531.38a1.93,1.93,0,0,1,2-2.06,2.06,2.06,0,1,1-2,2.06Z"/><path class="cls-1" d="M300.25,521.55c0-1.63,0-3-.13-4.27h2.55l.16,2.61h.07a5.81,5.81,0,0,1,5.22-3c2.19,0,5.58,1.3,5.58,6.72v9.44h-2.87V524c0-2.55-.95-4.67-3.66-4.67a4.08,4.08,0,0,0-3.85,2.94,4.17,4.17,0,0,0-.19,1.34v9.5h-2.88Z"/><path class="cls-1" d="M320,525.7c.06,3.88,2.54,5.48,5.42,5.48a10.52,10.52,0,0,0,4.37-.81l.49,2a12.74,12.74,0,0,1-5.26,1c-4.86,0-7.77-3.2-7.77-8s2.81-8.52,7.41-8.52c5.16,0,6.53,4.54,6.53,7.44a9.42,9.42,0,0,1-.1,1.34Zm8.42-2.06c0-1.82-.75-4.66-4-4.66-2.91,0-4.18,2.67-4.41,4.66Z"/><path class="cls-1" d="M338.18,512.74v4.54h4.11v2.19h-4.11V528c0,2,.55,3.07,2.15,3.07a6.88,6.88,0,0,0,1.67-.19l.13,2.15a7,7,0,0,1-2.55.39,4,4,0,0,1-3.1-1.2c-.81-.85-1.11-2.26-1.11-4.12v-8.61h-2.45v-2.19h2.45v-3.79Z"/><path class="cls-1" d="M344.74,531.38a1.93,1.93,0,0,1,2-2.06,2.06,2.06,0,0,1,0,4.12A1.93,1.93,0,0,1,344.74,531.38Z"/><path class="cls-1" d="M352.18,522.44c0-2-.06-3.66-.13-5.16h2.58l.13,2.71h.07a6.19,6.19,0,0,1,5.61-3.07c3.82,0,6.69,3.23,6.69,8,0,5.68-3.46,8.49-7.18,8.49a5.52,5.52,0,0,1-4.86-2.49H355v8.59h-2.84Zm2.84,4.21a7,7,0,0,0,.13,1.17,4.43,4.43,0,0,0,4.31,3.36c3,0,4.8-2.48,4.8-6.1,0-3.17-1.67-5.88-4.7-5.88a5,5,0,0,0-4.54,4.74Z"/><path class="cls-1" d="M370.75,509.9h2.87v23.18h-2.87Z"/></g></g></svg>