<svg xmlns="http://www.w3.org/2000/svg" xmlns:xlink="http://www.w3.org/1999/xlink" viewBox="0 0 339.38 404.69"><defs><style>.cls-1{fill:url(#Gradient_bez_nazwy_24);}.cls-2{fill:#82368c;}.cls-3{fill:#e16a9b;}</style><linearGradient id="Gradient_bez_nazwy_24" x1="181.7" y1="290.11" x2="181.7" gradientUnits="userSpaceOnUse"><stop offset="0.04" stop-color="#fff"/><stop offset="0.1" stop-color="#f7d9e6"/><stop offset="0.18" stop-color="#efb2cb"/><stop offset="0.25" stop-color="#e992b6"/><stop offset="0.32" stop-color="#e57ca7"/><stop offset="0.39" stop-color="#e26f9e"/><stop offset="0.45" stop-color="#e16a9b"/><stop offset="0.54" stop-color="#e16e9e"/><stop offset="0.64" stop-color="#e17ba5"/><stop offset="0.75" stop-color="#e191b2"/><stop offset="0.85" stop-color="#e2afc4"/><stop offset="0.96" stop-color="#e2d6db"/><stop offset="0.99" stop-color="#e2e2e2"/></linearGradient></defs><title>geniusz</title><g id="Warstwa_2" data-name="Warstwa 2"><g id="Warstwa_1-2" data-name="Warstwa 1"><path class="cls-1" d="M268.08,186.92c2.64-3.84,2.75-7.23.46-11-10.2-17-20-34.23-30.71-50.94A21.63,21.63,0,0,1,234.54,108c.36-1.85,1.2-3.63,1.27-5.51s-3.9-9-5.19-11.94c-.36-.8-.86.94.28,1.94-.34-2.56-.76-5.08-1.29-7.53A95.81,95.81,0,0,0,216.9,54.25c-5.59-9-13.94-15.56-22.92-17.93a83.42,83.42,0,0,0-9.23-1.75c-6.12-.93-15.95.24-21.35-3.29-.33-.26-.69-.61-1.06-1s-.82-.77-1.08-1c-6.49-6.74-1.24-18.53.38-27.13L162.06,0l-2,1c-11,5.7-21.6,11.24-32.5,16.94S106.18,29.13,95.23,34.89l-2,1.06,2.07.93c8,3.58,22,4.27,23.82,13.3,0,.47.11,1,.19,1.58s.15,1,.18,1.31c-.18,6.55-8.12,15.7-10.85,21.24a87.12,87.12,0,0,0-3.84,8.57c-3.18,8.72-2.58,19.32,1.63,29.06a96,96,0,0,0,17.94,28,102.66,102.66,0,0,0,10.44,9.68c8.53,6.88,17.19,10.67,25.74,11.28,1.21.09,2.42.13,3.62.13,1.37,0,2.72-.07,4.07-.17-8.12,5.75-9.59,9.53-11.68,14.21-1.24,2.78-4.44,20.24-5.5,36.47a194.94,194.94,0,0,1-4.88,30.76s22.62.93,29.1-14.78c.55-1.33,8.95-19.49,10.23-18.7.69.43,7.79,3.47,6,8.78-.64,1.88-2.44,3.37-3.78,5-1.12,1.34-2.49,2.49-3.47,3.92-2.29,3.34-4.6,6.68-6.54,10.22a97.52,97.52,0,0,0-4.94,10.8c-1.55,3.9-2.49,8-4.21,11.86-3.5,7.77-7.65,15.26-10.95,23.11-1.07,2.56-2.34,5.07-3.51,7.62h15.12c3.11-5.41,6.21-10.92,9.33-16.28a17,17,0,0,1,2.16-2.7,1.42,1.42,0,0,1,2.32.31,63.72,63.72,0,0,1,5.77,18.36,1.51,1.51,0,0,1,0,.31H234c1-8.38,2-16.67,9-23.3l.13-.2c2.72-6.18,1.83-13.72-1-17.22l-.06-.07c-7.12-6.7-8.55-21.22-1.29-28.54C251,210.43,259.84,198.92,268.08,186.92Zm-37.2,20.32c-3.78,2.56-7.63,5-11.48,7.47a26,26,0,0,1-5,2.56c-2.38.86-4.3.24-4.4-2.68a81.72,81.72,0,0,1,.18-8.57c.28-3.76,2.36-5.17,5.94-7.36,2.45-1.5,4.33-3,4.86-5s-1.62-3.52-.78-5a4.43,4.43,0,0,0,.65-2.4c0-.62-.5-.78-.54-1.07s.51-1.34.49-1.56c-.09-1.07-1-1.26-1.21-1.73a2.64,2.64,0,0,1,0-2.61c.17-.42,1.62-3.57,1.62-3.57a1.38,1.38,0,0,0-1.34-1.87,30.38,30.38,0,0,1-5-.4c-1.63-.24-3.44-.88-4.26-2-2-2.82-3.47-5.43-5.54-8.67-.73-1.14-4.78-4.63-11.21-7.18a51.11,51.11,0,0,0,15.39-7.5c6.7-4.86,12.51-14,16.93-21.43.38-.65.72-1.32,1.06-2a54.71,54.71,0,0,0,3.43,7c8.2,15.21,15.88,30.7,23.81,46.06,1.32,2.56,1.83,4.83-.53,7.22-4.52,4.6-8.83,9.4-13.3,14.06A60.54,60.54,0,0,1,230.88,207.24Z"/><path class="cls-2" d="M35.29,299.19H28.1a1.44,1.44,0,0,1-1.63-1.63v-4.09a1.44,1.44,0,0,1,1.63-1.63H44a1.44,1.44,0,0,1,1.63,1.63v27.61a1.21,1.21,0,0,1-.41,1.15,10.9,10.9,0,0,1-2.41,1.26,32.42,32.42,0,0,1-3.88,1.31,42.38,42.38,0,0,1-4.77,1,34,34,0,0,1-5.27.41,33.74,33.74,0,0,1-11.4-1.88,24.75,24.75,0,0,1-9.15-5.68,26.29,26.29,0,0,1-6.08-9.47,41.46,41.46,0,0,1,0-26.71A26.33,26.33,0,0,1,8.29,273a25,25,0,0,1,9.15-5.68,33.74,33.74,0,0,1,11.4-1.87,34,34,0,0,1,5.27.4,44.65,44.65,0,0,1,4.77,1,32.51,32.51,0,0,1,3.88,1.3,11.28,11.28,0,0,1,2.41,1.27,1.39,1.39,0,0,1,.45.82,2.83,2.83,0,0,1-.37,1.3l-1.3,3a1,1,0,0,1-.9.37,6.54,6.54,0,0,1-1.23-.2q-1.87-.5-5.39-1.23a37,37,0,0,0-7.59-.73,20.15,20.15,0,0,0-7,1.22,14.41,14.41,0,0,0-5.76,4,19.64,19.64,0,0,0-3.88,7.1,41.08,41.08,0,0,0,0,21.49,19.25,19.25,0,0,0,3.92,7.1,14.56,14.56,0,0,0,5.76,4,19.59,19.59,0,0,0,7,1.23,40.94,40.94,0,0,0,6.45-.49Z"/><path class="cls-2" d="M55.46,325.25a1.44,1.44,0,0,1-1.63-1.63V268.07a1.44,1.44,0,0,1,1.63-1.63H84.3a1.44,1.44,0,0,1,1.63,1.63v4.08a1.45,1.45,0,0,1-1.63,1.64H64.12v18h16.1a1.45,1.45,0,0,1,1.63,1.63v4.09a1.44,1.44,0,0,1-1.63,1.63H64.12V317.9H84.3a1.44,1.44,0,0,1,1.63,1.63v4.09a1.44,1.44,0,0,1-1.63,1.63Z"/><path class="cls-2" d="M129.72,325.25a3,3,0,0,1-2.7-1.31l-24.91-39.86h-.17l.82,16.66v22.88a1.44,1.44,0,0,1-1.63,1.63H94.92a1.44,1.44,0,0,1-1.63-1.63V268.07a1.44,1.44,0,0,1,1.63-1.63h5.72a3.05,3.05,0,0,1,2.69,1.3l24.92,39.87h.16l-.82-16.67V268.07a1.45,1.45,0,0,1,1.64-1.63h6.21a1.44,1.44,0,0,1,1.63,1.63v55.55a1.44,1.44,0,0,1-1.63,1.63Z"/><path class="cls-2" d="M146.87,325.25a1.44,1.44,0,0,1-1.63-1.63V268.07a1.44,1.44,0,0,1,1.63-1.63h7a1.44,1.44,0,0,1,1.63,1.63v55.55a1.44,1.44,0,0,1-1.63,1.63Z"/><path class="cls-2" d="M199.64,268.07a1.44,1.44,0,0,1,1.63-1.63h4.58a1.44,1.44,0,0,1,1.63,1.63v36.27a22.89,22.89,0,0,1-1.63,8.74,20.62,20.62,0,0,1-11.56,11.52,23.44,23.44,0,0,1-8.86,1.63,22.31,22.31,0,0,1-8.66-1.67A20.81,20.81,0,0,1,165.33,313a22.7,22.7,0,0,1-1.63-8.66V268.07a1.44,1.44,0,0,1,1.63-1.63h7a1.44,1.44,0,0,1,1.63,1.63v34a27.84,27.84,0,0,0,.74,6.5,17.33,17.33,0,0,0,2.2,5.35,11.57,11.57,0,0,0,3.64,3.63,9.26,9.26,0,0,0,5,1.35,13.4,13.4,0,0,0,6-1.31A12.59,12.59,0,0,0,196,314a16.92,16.92,0,0,0,2.69-5.35,22.22,22.22,0,0,0,.94-6.58Z"/><path class="cls-2" d="M228.64,299.19A25.23,25.23,0,0,1,219,292.9a14.52,14.52,0,0,1-3.72-10.29,15.77,15.77,0,0,1,1.6-7.19,16.36,16.36,0,0,1,4.28-5.39,19.53,19.53,0,0,1,6.29-3.39,24.41,24.41,0,0,1,7.68-1.18,33.55,33.55,0,0,1,5.44.45,43.82,43.82,0,0,1,5.06,1.1c1.55.43,2.9.87,4,1.3a8.49,8.49,0,0,1,2.29,1.15,1.1,1.1,0,0,1,.45.73,3.4,3.4,0,0,1-.37,1.39L250.7,275c-.11.33-.39.47-.82.41a10,10,0,0,1-1.31-.24c-.54-.17-1.31-.36-2.29-.58s-2.07-.42-3.26-.61-2.45-.37-3.76-.53a30.37,30.37,0,0,0-3.68-.24,15.3,15.3,0,0,0-5.39.81,9.15,9.15,0,0,0-3.35,2.09,6.7,6.7,0,0,0-1.67,2.73,9.53,9.53,0,0,0-.45,2.78,6.7,6.7,0,0,0,1.43,4.12c.95,1.29,2.82,2.47,5.59,3.56l7.85,2.94a25.77,25.77,0,0,1,6.16,3.23,20.53,20.53,0,0,1,4.41,4.24A16.9,16.9,0,0,1,253.64,310a14.27,14.27,0,0,1-1.56,6.73,15.11,15.11,0,0,1-4.33,5.11,20.09,20.09,0,0,1-6.69,3.27,30.7,30.7,0,0,1-8.58,1.14,35.68,35.68,0,0,1-5.31-.41,51.88,51.88,0,0,1-5.11-1,35.86,35.86,0,0,1-4.2-1.31,10.69,10.69,0,0,1-2.54-1.26,1.41,1.41,0,0,1-.45-.82,3.14,3.14,0,0,1,.37-1.31l1.31-3.43c.11-.32.38-.46.82-.4a9.88,9.88,0,0,1,1.3.24q.83.24,2.37.57c1,.22,2.21.42,3.51.62s2.65.36,4,.53a33,33,0,0,0,3.84.24q5.39,0,8.57-2.08a6.33,6.33,0,0,0,3.19-5.52,7,7,0,0,0-2.25-5.14,15.66,15.66,0,0,0-5.35-3.43Z"/><path class="cls-2" d="M259.35,325.25a1.44,1.44,0,0,1-1.63-1.63v-2.94a6.58,6.58,0,0,1,.82-3.11l24.75-43.78H259.84a1.45,1.45,0,0,1-1.63-1.64v-4.08a1.44,1.44,0,0,1,1.63-1.63H293.5a1.44,1.44,0,0,1,1.63,1.63V271a6.51,6.51,0,0,1-.82,3.1L269.65,317.9h24.5a1.45,1.45,0,0,1,1.64,1.63v4.09a1.45,1.45,0,0,1-1.64,1.63Z"/><path class="cls-3" d="M166.68,351.84a17.92,17.92,0,0,1,1.51-2c.73-.87,1.62-1.83,2.65-2.86s2.15-2.08,3.35-3.15,2.37-2,3.51-2.86a32.13,32.13,0,0,1,3.19-2.08,4.41,4.41,0,0,1,2.37-.73,2.17,2.17,0,0,1,1.26.36,2.9,2.9,0,0,1,.82.82,1.06,1.06,0,0,1,.2.82c0,.24-.27.39-.65.45a7.86,7.86,0,0,0-2.69,1.47,42.67,42.67,0,0,0-3.68,3c-1.25,1.14-2.4,2.26-3.43,3.35a12.38,12.38,0,0,0-1.88,2.29,3.47,3.47,0,0,1,1.84,2.41,19.11,19.11,0,0,1,.65,4.32q.12,2.5,0,5.19c-.08,1.8-.09,3.46,0,5a14.73,14.73,0,0,0,.53,3.76c.3,1,.83,1.44,1.6,1.39.32,0,.82-.34,1.51-1a30.72,30.72,0,0,0,2.28-2.61c.85-1.07,1.73-2.25,2.66-3.56s1.81-2.6,2.65-3.88,1.6-2.46,2.25-3.55,1.17-2,1.55-2.62.71-1,1-.89.35.41.25.89a17.16,17.16,0,0,1-.9,3,19.88,19.88,0,0,1-1.31,2.61q-.57,1.07-1.59,2.82t-2.37,3.67q-1.35,1.92-2.86,3.8a19.63,19.63,0,0,1-3.19,3.19,9.89,9.89,0,0,1-3.35,1.79,3.94,3.94,0,0,1-3.22-.4,3.59,3.59,0,0,1-2.33-1.92,11.12,11.12,0,0,1-1.06-3.6,28.77,28.77,0,0,1-.25-4.45q0-2.37.21-4.65c.11-1.53.2-2.95.28-4.25a14.44,14.44,0,0,0,0-3,7.94,7.94,0,0,0-2.9,3.11,32.7,32.7,0,0,0-2.37,4.94,50.67,50.67,0,0,0-1.67,5.07c-.44,1.6-.71,2.73-.82,3.38a4.26,4.26,0,0,0-.08.74,1.93,1.93,0,0,1-.16.73c-.17.6-.38,1-.66,1.11a.89.89,0,0,1-.81,0,1.93,1.93,0,0,1-.74-.74,10.68,10.68,0,0,1-.57-1,13.17,13.17,0,0,1-.7-3.14,35.37,35.37,0,0,1-.2-3.72c0-1.25,0-2.44.08-3.55a21.94,21.94,0,0,1,.25-2.58c.27-2.06.73-4.57,1.39-7.51s1.48-6.07,2.49-9.39,2.14-6.73,3.39-10.22,2.63-6.84,4.12-10.08,3.07-6.25,4.7-9a38.6,38.6,0,0,1,5.06-6.94,2.06,2.06,0,0,1,1.92-.62,4.3,4.3,0,0,1,2,1,4.94,4.94,0,0,1,1.34,1.92,2.51,2.51,0,0,1,0,2.13,40.27,40.27,0,0,0-1.83,5c-.69,2.21-1.63,4.86-2.82,8s-2.74,6.6-4.62,10.49a110.41,110.41,0,0,1-7.15,12.46,18.17,18.17,0,0,0-1.22,3.06A23.59,23.59,0,0,0,166.68,351.84Zm2.53-9.23a50.15,50.15,0,0,0,2.61-4.66q1.4-2.77,2.86-5.92t2.86-6.37c.93-2.15,1.77-4.2,2.53-6.13s1.4-3.66,1.92-5.19.89-2.69,1.1-3.51q-1.64,2.94-3.43,6.58c-1.19,2.42-2.41,5-3.63,7.67s-2.43,5.53-3.6,8.5S170.19,339.56,169.21,342.61Z"/><path class="cls-3" d="M206.7,343a8.78,8.78,0,0,0,2.12-.49c.77-.27,1.47-.49,2.13-.65s1.56-.48,2.41-.78a19.93,19.93,0,0,1,2.41-.7c.54,0,.76.16.65.45a3.25,3.25,0,0,1-.78,1.07,12.68,12.68,0,0,1-1.38,1.18c-.52.38-.92.65-1.19.82a22.92,22.92,0,0,1-3.88,1.39,16.69,16.69,0,0,0-3.63,1.38c-.49.88-1.17,2-2,3.48a44.89,44.89,0,0,1-2.9,4.2,22.56,22.56,0,0,1-3.35,3.51,5.36,5.36,0,0,1-3.39,1.47A6.1,6.1,0,0,1,190,358a4.92,4.92,0,0,1-1.83-2.53,13.35,13.35,0,0,1-.74-3.72,21.28,21.28,0,0,1,.12-3.92,25.56,25.56,0,0,1,.58-3.15,1.6,1.6,0,0,1,.24-.77,1.07,1.07,0,0,1,.33-.29l.36-.16a.76.76,0,0,0,.37-.33c.17-.6.33-1.22.49-1.88a6.62,6.62,0,0,1,.74-1.79,19.74,19.74,0,0,1,3.55-4.54,8.48,8.48,0,0,1,5-2.41,6.72,6.72,0,0,1,3.3.17,5.67,5.67,0,0,1,2.66,1.87,6.45,6.45,0,0,1,1.39,2.33,10.74,10.74,0,0,1,.49,2.45,10.14,10.14,0,0,1-.08,2.17C206.84,342.14,206.75,342.63,206.7,343Zm-11.93,13.39a3.81,3.81,0,0,0,1.84-1.18,17.71,17.71,0,0,0,2-2.33,21.35,21.35,0,0,0,1.64-2.65,12.89,12.89,0,0,0,.94-2.25,35.19,35.19,0,0,1-3.52.17,17.73,17.73,0,0,1-3.51-.33,8.4,8.4,0,0,0-.33,1.92,20,20,0,0,0,0,2.45,18,18,0,0,0,.33,2.41A5.57,5.57,0,0,0,194.77,356.35ZM202,343.78a.48.48,0,0,0,.33-.17.45.45,0,0,0,.16-.32,8.35,8.35,0,0,0,.62-3.43,4.27,4.27,0,0,0-1.19-3,2.13,2.13,0,0,0-1.47-.73,3.07,3.07,0,0,0-1.71.32,9.22,9.22,0,0,0-2.62,2.29c-.65.87-1.28,1.77-1.88,2.7a.79.79,0,0,0,.17.57,1.9,1.9,0,0,1,.73,1.63c0,.28.32.44.94.49a16.24,16.24,0,0,0,2.13,0,18.59,18.59,0,0,0,2.28-.2A12.13,12.13,0,0,1,202,343.78Z"/><path class="cls-3" d="M219.85,342.39a26.13,26.13,0,0,1,3.07-2c1-.55,2-1.09,3-1.64a15.32,15.32,0,0,1,3-1.26,11.75,11.75,0,0,1,3.31-.57,6,6,0,0,1,2.9.61,4.12,4.12,0,0,1,2,2.37c0,.32,0,.51.16.57a1.21,1.21,0,0,0,.49.08,35.52,35.52,0,0,1,5.6.45,10.65,10.65,0,0,1,4.53,1.67c.38.28.55.47.49.58s-.2.19-.45.24a3.65,3.65,0,0,1-.86.08h-.57c-1.25-.11-2.43-.26-3.55-.45a20.23,20.23,0,0,0-3.39-.28h-1.8a26.57,26.57,0,0,1-1.47,5.31,21.32,21.32,0,0,1-2.78,5.1,14.59,14.59,0,0,1-4.08,3.8,8.89,8.89,0,0,1-5.31,1.31,6.43,6.43,0,0,1-3.23-.58,5.92,5.92,0,0,1-2-1.67,8.44,8.44,0,0,1-1.22-2.25,20,20,0,0,1-.7-2.28.33.33,0,0,1-.16.28.36.36,0,0,0-.17.29l-1.14,3.27c-.38,1.09-.8,2.24-1.26,3.47s-1,2.53-1.56,3.92-1.21,2.93-1.92,4.61a.9.9,0,0,1-.32.5,2.8,2.8,0,0,0-.41.24,1,1,0,0,1-.86.25.77.77,0,0,1-.61-.49,37,37,0,0,1,.37-8,80.25,80.25,0,0,1,1.63-8.05c.68-2.66,1.44-5.28,2.29-7.84s1.62-5,2.32-7.43q2.87-8.25,6-15.32t6.78-14q1.47-2.68,2.9-5.31a25.62,25.62,0,0,1,3.31-4.73,3.28,3.28,0,0,1,1.43-1.07,2.19,2.19,0,0,1,1.75.09,2.66,2.66,0,0,1,1.56,3c-.28,2.07-.64,4.15-1.11,6.25a37.83,37.83,0,0,1-1.92,6.16A104.42,104.42,0,0,1,230.39,323a73.65,73.65,0,0,1-6.94,10.17,5.05,5.05,0,0,0-1,1.71c-.33.82-.64,1.69-.94,2.62s-.59,1.83-.86,2.73A13.36,13.36,0,0,1,219.85,342.39Zm-2.12,6.37a2.12,2.12,0,0,0,1.47-.45,11.34,11.34,0,0,1,1.06-.86,23.57,23.57,0,0,1,4.21-3.47,44.33,44.33,0,0,1,4.86-2.74,9.65,9.65,0,0,0,2-1.06h-.65a1.37,1.37,0,0,1-.49.21,2.87,2.87,0,0,0-.66.2,30.1,30.1,0,0,0-11.11,7,.8.8,0,0,0-.32.5A1.53,1.53,0,0,1,217.73,348.76Zm3.92.65a5,5,0,0,0,3.43,1,7.48,7.48,0,0,0,3.35-1.14,8.48,8.48,0,0,0,2.61-2.62,7.42,7.42,0,0,0,1.23-3.43,48.76,48.76,0,0,0-5.52,2.9Q224,347.78,221.65,349.41Zm15.52-46.23a115.56,115.56,0,0,0-6.29,12.09l-5.55,12.41a14.82,14.82,0,0,0,1.83-2.49c.74-1.17,1.51-2.5,2.33-4s1.64-3.12,2.45-4.86,1.58-3.43,2.29-5.07,1.32-3.17,1.84-4.61S237,304.05,237.17,303.18Z"/><path class="cls-3" d="M263.39,341.82l1-1h.08V341a5.38,5.38,0,0,1-.32,2.82,6.35,6.35,0,0,0-.49,1c-.55.81-1.28,1.86-2.21,3.14s-1.89,2.59-2.9,3.92-2,2.56-2.9,3.68a25.26,25.26,0,0,1-2.2,2.41,20.3,20.3,0,0,1-2.13,2.12,3.88,3.88,0,0,1-1.1.58,8.55,8.55,0,0,1-1.43.36,4.93,4.93,0,0,1-1.43,0,2.15,2.15,0,0,1-1.1-.4,7,7,0,0,1-2.17-2.17,5.2,5.2,0,0,1-.77-2.74,34.12,34.12,0,0,1,.77-9.19,67.82,67.82,0,0,1,2.41-8.53,13.48,13.48,0,0,1,1.15-2.37,1.55,1.55,0,0,1,1.71-.41,3.76,3.76,0,0,1,1.76,1.35,6.81,6.81,0,0,1,1.14,2.49,5.17,5.17,0,0,1-.12,2.94c-.27.93-.52,1.81-.74,2.65s-.46,1.74-.73,2.66c-.11.44-.29,1.06-.53,1.88s-.51,1.67-.78,2.57-.52,1.76-.73,2.57a14.49,14.49,0,0,0-.41,1.88c-.11.82.11,1,.65.66a18.67,18.67,0,0,0,2.21-2q3.34-3.44,6.37-6.66T263.39,341.82ZM252,332c-.39.38-.66.38-.82,0a9.31,9.31,0,0,1-1.39-3.43,6.71,6.71,0,0,1,.33-3.59,3.11,3.11,0,0,1,1.43-1.76,2.52,2.52,0,0,1,2-.45,5.22,5.22,0,0,1,1.06.53,1.69,1.69,0,0,1,.73.86,5.45,5.45,0,0,1-.61,4.25A17.42,17.42,0,0,1,252,332Z"/><path class="cls-3" d="M260.29,351.78a22.31,22.31,0,0,1,.65-6.45,23.39,23.39,0,0,1,2.45-6.17,14.74,14.74,0,0,1,4.13-4.62,10.16,10.16,0,0,1,5.84-1.87,4.36,4.36,0,0,1,2.65,1.71,3.8,3.8,0,0,1,.53,3.19,11.51,11.51,0,0,1-.94,3.06,9.32,9.32,0,0,1-2.08,2.66q-.74.65-2,1.71c-.87.71-1.72,1.45-2.53,2.21a18.84,18.84,0,0,0-2.13,2.32,3.6,3.6,0,0,0-.9,2q-.24,2.11.66,2.73a3.5,3.5,0,0,0,2.33.49,9.13,9.13,0,0,0,2.9-.77c1-.44,1.76-.82,2.36-1.15q1.06-.73,2.37-1.83c.87-.74,1.75-1.52,2.62-2.33l2.53-2.37,2-1.88c.44-.44.83-.84,1.19-1.23a5.18,5.18,0,0,1,1.26-1,2.57,2.57,0,0,1,1-.08q.38.09-.12,1.23a15.17,15.17,0,0,1-1.59,2.61c-.63.82-1.3,1.63-2,2.45-1,1.09-2,2.24-3.15,3.43a37.55,37.55,0,0,1-3.51,3.31,25,25,0,0,1-3.84,2.61,12.37,12.37,0,0,1-4.12,1.44,9,9,0,0,1-6.17-1.56Q260.28,355.86,260.29,351.78Zm13.07-15.36a9.25,9.25,0,0,0-3.47,2.13,7.85,7.85,0,0,0-1.84,3.84,33,33,0,0,0,3.22-2.66A7.88,7.88,0,0,0,273.36,336.42Z"/><path class="cls-3" d="M285.1,369.15a1.34,1.34,0,0,0,2,1,11.42,11.42,0,0,0,3.51-2.45,46.34,46.34,0,0,0,4.21-4.57q2.21-2.7,4.21-5.31t3.47-4.74c1-1.41,1.63-2.34,2-2.78a7.78,7.78,0,0,1,.94-1.22,12.25,12.25,0,0,1,1.35-1.23c.21-.16.47-.34.77-.53a1.2,1.2,0,0,1,.78-.24c.21,0,.31.2.28.53a5.26,5.26,0,0,1-.61,1.63c-.33.66-.84,1.65-1.55,3s-1.58,2.84-2.62,4.5-2.17,3.37-3.43,5.14a44.51,44.51,0,0,1-4,4.94,36.87,36.87,0,0,1-4.41,4,11.58,11.58,0,0,1-4.53,2.2,18.14,18.14,0,0,1-3.76.53,4,4,0,0,1-3-1.26,5.36,5.36,0,0,1-1.38-3.51,23.2,23.2,0,0,1,.2-4.87,43.89,43.89,0,0,1,1-5c.44-1.6.79-2.84,1.06-3.72.88-2.83,1.7-5.62,2.5-8.37s1.56-5.51,2.32-8.29q1.23-3.67,2.25-7.55t2.08-7c-1.09-.05-2.2-.09-3.35-.12l-3.43-.08q-1.71,0-3.39-.21a18.82,18.82,0,0,1-3.14-.57,3.55,3.55,0,0,1-1.92-1.06,2.09,2.09,0,0,1-.57-1.47,1.65,1.65,0,0,1,.81-1.27,4,4,0,0,1,2.25-.53c.6,0,1.58.06,2.94.16s2.79.2,4.29.25,2.88.07,4.17,0a8.12,8.12,0,0,0,2.49-.29q.24-.07.24-.24c.33-1,.68-2,1.06-3.11s.77-2.15,1.15-3.18.75-2,1.1-2.94.67-1.72.94-2.37a1.15,1.15,0,0,1,1.35-.61,6.18,6.18,0,0,1,2.12.69,7.08,7.08,0,0,1,1.92,1.43,2.1,2.1,0,0,1,.74,1.59,14.57,14.57,0,0,1-1.15,4.17,29.23,29.23,0,0,0-1.55,4.66l8.86-.13c2.48,0,4.89,0,7.23,0,.76,0,1.53,0,2.29,0a8.51,8.51,0,0,1,1.76.21c.4.11.5.26.28.45a7.34,7.34,0,0,1-2.12.77,78.05,78.05,0,0,1-10,2.49q-4.82.87-9.47,1.27c-.28.06-.4.11-.37.16s0,.22-.2.49a.24.24,0,0,1-.09.17.24.24,0,0,0-.08.16c-.87,2.4-1.82,5.09-2.86,8.09s-2.07,6.07-3.1,9.23-2,6.26-2.94,9.31-1.72,5.81-2.37,8.29-1.13,4.55-1.43,6.21S284.83,368.77,285.1,369.15Z"/><path class="cls-3" d="M310.83,360.74a5.61,5.61,0,0,1-4-.65,4.48,4.48,0,0,1-2.25-3.19,22.77,22.77,0,0,1-.33-4.08,42.34,42.34,0,0,1,.25-4.62q.24-2.32.69-4.53c.3-1.47.62-2.78.94-3.92a1.36,1.36,0,0,1,1.27-.74,4.87,4.87,0,0,1,1.8.37,5.9,5.9,0,0,1,1.63.94,2.46,2.46,0,0,1,.86,1.14,7.52,7.52,0,0,1-.45,3.39c-.46,1.55-1,3.17-1.51,4.86s-1,3.26-1.31,4.7-.27,2.36.16,2.74.89.28,1.51-.29a12.64,12.64,0,0,0,2-2.53c.7-1.12,1.44-2.43,2.2-3.92s1.51-3,2.25-4.46,1.4-2.83,2-4.08,1.09-2.21,1.47-2.86c.11-.22.37-.31.78-.29a3.52,3.52,0,0,1,1.26.37,5.58,5.58,0,0,1,1.23.86,2.44,2.44,0,0,1,.73,1.19,19.06,19.06,0,0,1,.49,6.16,42.53,42.53,0,0,1-.9,6.25c2-1.58,4-3,5.93-4.25a44.09,44.09,0,0,1,6.24-3.35,3,3,0,0,1,1.27-.36,6.22,6.22,0,0,1,1.59,0c.44.05.67.23.7.53s-.48.77-1.51,1.43a87.71,87.71,0,0,0-7.6,5.39q-3.84,3-7.19,5.72a1.93,1.93,0,0,0-.73,1.3,73.14,73.14,0,0,1-2.29,10.13,112.7,112.7,0,0,1-4,11.19A98.14,98.14,0,0,1,310.87,392a53.94,53.94,0,0,1-6.09,8.78,11.77,11.77,0,0,1-4.33,3.31,6.61,6.61,0,0,1-4.2.44,5.38,5.38,0,0,1-3.19-2.41,10,10,0,0,1-1.35-5.26,41.21,41.21,0,0,1,3.44-9.85,67.37,67.37,0,0,1,5.67-9.39q3.31-4.62,7.31-9.23t8.42-9.36a3.89,3.89,0,0,0,1.06-1.92,26.08,26.08,0,0,0,.82-3.22,32.21,32.21,0,0,0,.44-3.23,4.72,4.72,0,0,0,0-1.84c-.54,1-1.14,2.14-1.79,3.48s-1.34,2.61-2.05,3.83a25.57,25.57,0,0,1-2.12,3.19A3.18,3.18,0,0,1,310.83,360.74ZM295.55,400.2c.6.21,1.47-.37,2.62-1.76a50.57,50.57,0,0,0,3.84-5.56q2.12-3.47,4.33-7.76t4-8.33c1.22-2.7,2.25-5.13,3.06-7.31a19,19,0,0,0,1.31-4.66q-2.13,2.3-4.66,5.52t-5,6.78q-2.44,3.56-4.61,7.23a69,69,0,0,0-3.6,6.86,25.52,25.52,0,0,0-1.88,5.6C294.72,398.41,294.9,399.54,295.55,400.2Z"/></g></g></svg>