<svg xmlns="http://www.w3.org/2000/svg" viewBox="0 0 338.61 171.7"><defs><style>.cls-1{fill:#ff6161;}.cls-2{fill:#444;stroke:#444;stroke-miterlimit:10;}</style></defs><title>Zasób 3</title><g id="Warstwa_2" data-name="Warstwa 2"><g id="Warstwa_2-2" data-name="Warstwa 2"><g id="Warstwa_1-2" data-name="Warstwa 1"><path class="cls-1" d="M33.64,1.18H47.08V92q0,18.38-22.8,18.38T1.49,92V1.18H14.91V92q0,8.53,9.37,8.54T33.64,92Z"/><path class="cls-1" d="M59.63,109.22V1.18H73.07v98.2h26v9.84Z"/><path class="cls-1" d="M107.7,109.22V1.18h13.43v108Z"/><path class="cls-1" d="M164.62,77.19a34.56,34.56,0,0,0-.19-4.07,9.08,9.08,0,0,0-.69-2.75,8.87,8.87,0,0,0-1.43-2.17c-.59-.66-1.28-1.38-2.12-2.17-1.75-1.58-3.53-3-5.3-4.4s-3.59-2.71-5.48-4.06-3.79-2.8-5.74-4.33-4-3.26-6.09-5.2c-2.37-2-3.75-4.08-4.17-6.23a42.2,42.2,0,0,1-.62-7.81V17.86Q132.79,0,155.43,0q12.19,0,17.14,4.4t5,13.46V37.55H165V19.17a10.61,10.61,0,0,0-1.86-6.56c-1.23-1.67-3.68-2.5-7.33-2.5q-9.36,0-9.37,7.75v16a15.06,15.06,0,0,0,.61,5,10.22,10.22,0,0,0,2.57,3.42,91.41,91.41,0,0,0,10.87,8.79,114.42,114.42,0,0,1,11.22,8.8,19.79,19.79,0,0,1,3.18,3.4A14.3,14.3,0,0,1,176.81,67a20,20,0,0,1,1,4.46,53.49,53.49,0,0,1,.25,5.65V92.54c0,5.78-1.72,10.21-5.2,13.26s-9.28,4.6-17.41,4.6q-11.85,0-17.23-4.6t-5.41-13.26v-23H145.7V91.11a10.79,10.79,0,0,0,2,6.82c1.35,1.75,3.8,2.63,7.33,2.63s5.86-.68,7.34-2a7.73,7.73,0,0,0,2.21-6Z"/><path class="cls-1" d="M219.41,77.19a34.56,34.56,0,0,0-.19-4.07,9.08,9.08,0,0,0-.69-2.75,8.59,8.59,0,0,0-1.43-2.17c-.59-.66-1.28-1.38-2.12-2.17-1.75-1.58-3.52-3-5.3-4.4s-3.59-2.71-5.47-4.06-3.8-2.8-5.75-4.33-4-3.26-6.09-5.2c-2.37-2-3.75-4.08-4.17-6.23a43.18,43.18,0,0,1-.61-7.81V17.86Q187.59,0,210.22,0q12.19,0,17.14,4.4t5,13.46V37.55H219.77V19.17a10.68,10.68,0,0,0-1.86-6.56q-1.86-2.5-7.34-2.5-9.36,0-9.37,7.75v16a14.74,14.74,0,0,0,.62,5,10.17,10.17,0,0,0,2.56,3.42,91.41,91.41,0,0,0,10.87,8.79,113.24,113.24,0,0,1,11.22,8.8,20.28,20.28,0,0,1,3.19,3.4A14.26,14.26,0,0,1,231.6,67a20,20,0,0,1,1,4.46,53.3,53.3,0,0,1,.26,5.65V92.54q0,8.67-5.21,13.26t-17.41,4.6q-11.85,0-17.23-4.6t-5.4-13.26v-23H200.5V91.11a10.79,10.79,0,0,0,2,6.82c1.36,1.75,3.8,2.63,7.34,2.63s5.85-.68,7.33-2a7.73,7.73,0,0,0,2.21-6Z"/><path class="cls-1" d="M244.16,109.22V1.18h38.53V11.29h-25.1V49.23h17.67v10H257.59V99.38h26v9.84Z"/><path class="cls-1" d="M323.69,77.19a37.24,37.24,0,0,0-.18-4.07,9.39,9.39,0,0,0-.69-2.75,8.87,8.87,0,0,0-1.43-2.17c-.59-.66-1.28-1.38-2.12-2.17-1.75-1.58-3.53-3-5.3-4.4s-3.59-2.71-5.48-4.06-3.8-2.8-5.74-4.33-4-3.26-6.1-5.2c-2.36-2-3.74-4.08-4.16-6.23a42.2,42.2,0,0,1-.62-7.81V17.86Q291.87,0,314.51,0q12.18,0,17.14,4.4t5,13.46V37.55H324.05V19.17a10.68,10.68,0,0,0-1.86-6.56c-1.23-1.67-3.69-2.5-7.34-2.5q-9.36,0-9.37,7.75v16a14.74,14.74,0,0,0,.62,5,10.31,10.31,0,0,0,2.56,3.42,91.49,91.49,0,0,0,10.88,8.79,114.42,114.42,0,0,1,11.22,8.8,20.2,20.2,0,0,1,3.18,3.4A14.3,14.3,0,0,1,335.89,67a19.44,19.44,0,0,1,1,4.46,50.76,50.76,0,0,1,.26,5.65V92.54q0,8.67-5.2,13.26t-17.41,4.6q-11.86,0-17.24-4.6t-5.4-13.26v-23h12.91V91.11a10.85,10.85,0,0,0,2,6.82c1.36,1.75,3.8,2.63,7.34,2.63s5.86-.68,7.34-2a7.76,7.76,0,0,0,2.2-6Z"/><path class="cls-2" d="M26.43,163.76l1.36,1.33a15.08,15.08,0,0,1-11,4.64,15.07,15.07,0,0,1-11.54-5.22,19,19,0,0,1,0-25.21,15.07,15.07,0,0,1,11.54-5.22,15.07,15.07,0,0,1,11,4.63l-1.36,1.35a13.37,13.37,0,0,0-9.62-4,13.36,13.36,0,0,0-10.24,4.64,16.9,16.9,0,0,0,0,22.39,13.38,13.38,0,0,0,10.24,4.63A13.33,13.33,0,0,0,26.43,163.76Z"/><path class="cls-2" d="M40.52,157.21a4.87,4.87,0,0,1-.54,0H34.56v12.08H32.77V134.49h8.36a10.24,10.24,0,0,1,6.19,3.33,12.12,12.12,0,0,1,0,16.08,9.9,9.9,0,0,1-4.84,3l7.36,12.38H47.62Zm-6-20.74v18.78H40A7.94,7.94,0,0,0,46,152.5a10,10,0,0,0,0-13.29A7.93,7.93,0,0,0,40,136.47Z"/><path class="cls-2" d="M70.39,134.49v2H56.25v14.47H70.39v2H56.25v14.47H70.39v2H54.45V134.49Z"/><path class="cls-2" d="M91.26,156h-11l-4.44,13.34H73.87l11.88-35.62,11.84,35.62H95.7Zm-.65-2-4.86-14.6L80.89,154Z"/><path class="cls-2" d="M108,136.45v32.86h-1.79V136.45H98.14v-2h17.92v2Z"/><path class="cls-2" d="M122.24,134.49v34.82h-1.79V134.49Z"/><path class="cls-2" d="M128.51,134.49l10,29.9,10-29.9h1.91l-11.87,35.62-11.84-35.62Z"/><path class="cls-2" d="M170.26,134.49v2H156.11v14.47h14.15v2H156.11v14.47h14.15v2H154.32V134.49Z"/><path class="cls-2" d="M202.41,149.67a14.91,14.91,0,0,1-5.88-3.39A7.38,7.38,0,0,1,207,135.87a6.13,6.13,0,0,1,1.65,2.6l-1.76.69a5.49,5.49,0,0,0-1.28-2,5.42,5.42,0,0,0-7.66,7.68,14.27,14.27,0,0,0,4.09,2.68,17.37,17.37,0,0,1,7,4.2,10.3,10.3,0,1,1-17.48,8.94l1.85-.67a8.44,8.44,0,0,0,8.34,7.4,8.39,8.39,0,0,0,5.94-14.32A15.94,15.94,0,0,0,202.41,149.67Z"/><path class="cls-2" d="M225,136.09V169h-2V136.09h-8.82v-2h19.59v2Z"/><path class="cls-2" d="M259,134.13h2v25a11.49,11.49,0,0,1-3.33,6.77,11.37,11.37,0,0,1-19.41-8V134.13h2V157.9a9.39,9.39,0,0,0,18.78,0Z"/><path class="cls-2" d="M269.42,134.18h.15q8.6,0,13.32,4.74a17.88,17.88,0,0,1,0,25.25q-4.72,4.74-13.32,4.74h-.15v0h-2V134.13h2Zm0,2v30.75h.15q7.74,0,11.9-4.18a15.86,15.86,0,0,0,0-22.42q-4.16-4.14-11.9-4.15Z"/><path class="cls-2" d="M296,134.13V169h-2V134.13Z"/><path class="cls-2" d="M332.87,138.87a17.85,17.85,0,1,1-12.63-5.24A17.2,17.2,0,0,1,332.87,138.87Zm-12.63-3.24a15.86,15.86,0,1,0,11.22,4.65A15.27,15.27,0,0,0,320.24,135.63Z"/></g></g></g></svg>