<svg xmlns="http://www.w3.org/2000/svg" viewBox="0 0 691.97 527.62"><defs><style>.cls-1{fill:#06445d;}.cls-2{fill:#0092d9;}.cls-3{fill:#00b570;}.cls-4{fill:#1d4e65;}.cls-5{fill:#154b63;}.cls-6{fill:#1b4f66;}.cls-7{fill:#184d64;}.cls-8{fill:#154961;}.cls-9{fill:#9aadb7;}</style></defs><title>vet</title><g id="Warstwa_2" data-name="Warstwa 2"><g id="Warstwa_1-2" data-name="Warstwa 1"><path class="cls-1" d="M450.5,140.49c2.29.51,4.57,1,6.86,1.53a52.45,52.45,0,0,1,9.07,2.85,20.18,20.18,0,0,0,16.48-.16,46.34,46.34,0,0,0,19.15-15.38,25.21,25.21,0,0,0,4.47-9.7,11.23,11.23,0,0,0-4.27-11.77A17.12,17.12,0,0,0,496.8,105c-1.05-.35-2.12-.61-3.17-.95a3.35,3.35,0,0,1-1.06-.59.9.9,0,0,1-.36-.69,1.6,1.6,0,0,1,.56-1,8,8,0,0,1,3.6-.85c2.34-.06,4.7-.16,7,0a17,17,0,0,1,7.86,2.37,12.79,12.79,0,0,1,6.5,10,23,23,0,0,1-1.3,10.59,39.68,39.68,0,0,1-5,9.48A59,59,0,0,1,499,146a79.66,79.66,0,0,1-13.77,8.39c-.87.42-1.75.81-2.61,1.25a1.39,1.39,0,0,0-.47,2.1c.15.24.3.46.46.69a44.09,44.09,0,0,1,6.11,14c1.11,4.27,2.19,8.55,3.18,12.85a59.87,59.87,0,0,0,7,17.18c1.83,3.09,3.73,6.14,5.58,9.21a75.54,75.54,0,0,1,5.59,11.07,35.42,35.42,0,0,1,2.7,17c-.15,1.5-.48,3-.72,4.48a1,1,0,0,0,.84,1.19c.41,0,.82.1,1.23.11,6.35.09,12.7.21,19,.27,13.4.11,26.79.14,40.19.3q28.36.34,56.74.83c8,.13,16,.36,24,.56a10,10,0,0,1,1.22.18L657,249c-2.07.08-4.13.19-6.2.23-9.38.2-18.77.41-28.15.56-9.94.15-19.88.23-29.82.37-7.87.11-15.73.29-23.6.4-7.18.1-14.36.15-21.54.21-10.21.08-20.43.05-30.65.24q-25.26.47-50.52.52c-10.49,0-21,.11-31.48.13q-28.78.06-57.58.08-26.09,0-52.19.07-23.4,0-46.81-.08-18.23,0-36.45-.13c-13.11,0-26.23-.07-39.34-.18-11.32-.1-22.64-.34-34-.48-6.91-.09-13.81-.11-20.71-.17-10.5-.09-21-.17-31.48-.3q-22.16-.27-44.31-.61c-8.42-.14-16.83-.38-25.25-.56-3-.07-6.07-.07-9.11-.13-.82,0-1.65-.11-2.47-.17a7.13,7.13,0,0,1,1.25-.66,2,2,0,0,0,1.17-.77,3.87,3.87,0,0,1,.81-.16q18.43-.37,36.87-.72c7.45-.13,14.91-.08,22.37-.26,18.09-.45,36.18-.51,54.27-.65,9.25-.07,18.5-.24,27.75-.33l36.46-.36c.69,0,1.38,0,2.07,0,1.24,0,1.67-.47,1.76-1.77q.39-5.79.74-11.57a22.06,22.06,0,0,0-.72-6.57,71.69,71.69,0,0,0-4.33-12.93,36.71,36.71,0,0,0-9.13-12.68c-2-1.73-4-3.44-5.88-5.24-2.31-2.17-4.64-4.34-6.8-6.66a35.31,35.31,0,0,1-8.79-17.53,61.54,61.54,0,0,1-.87-13.61A75.51,75.51,0,0,1,186.61,141c1.28-5.51,2.64-11,4-16.49a111.28,111.28,0,0,0,2.67-13.39c1-7.73,1-15.43-1.35-23a44.27,44.27,0,0,0-2.74-6.92,2,2,0,0,0-2.4-1.15,17.81,17.81,0,0,0-2.39.61c-2.23.75-4.44,1.52-6.65,2.31a95.2,95.2,0,0,1-13.88,4.07,39.7,39.7,0,0,1-12.77.51A21.35,21.35,0,0,1,143,84.74c-2.62-1.54-5.2-3.14-7.78-4.74a24,24,0,0,1-4.55-3.57,9,9,0,0,1-2.52-8,8.77,8.77,0,0,1,1.19-3.07,14.54,14.54,0,0,1,3.49-4.07,49.4,49.4,0,0,1,5-3.69c2.7-1.66,5.48-3.21,8.28-4.69,3.3-1.74,6.66-3.35,10-5,6.22-3.13,8.1-4.47,12.36-11.71,1.26-2.15,2.4-4.36,3.69-6.48.93-1.53,2-3,3-4.42a9,9,0,0,1,4.34-3.08,81.59,81.59,0,0,1,13.6-3.52A62.39,62.39,0,0,1,205.9,18a50.35,50.35,0,0,1,15.34,3.11,43.73,43.73,0,0,1,27,31.76,78.23,78.23,0,0,1,1.64,14c.14,5.12.45,10.21.86,15.31a61.3,61.3,0,0,0,2.14,11.79A44.4,44.4,0,0,0,262,110.48a53.87,53.87,0,0,0,16.15,12.77,13.74,13.74,0,0,0,1.93.67,3.53,3.53,0,0,0,.64.53,62.8,62.8,0,0,0,16.67,5.88,10.72,10.72,0,0,0,2.65,1.12c5.77,1.35,11.58,2.52,17.45,3.4,4.77.71,9.54,1.51,14.32,2.13a44.44,44.44,0,0,0,7.81.66,8.52,8.52,0,0,0,3.2.5,24.52,24.52,0,0,1,3.65.33,23.57,23.57,0,0,0,6.49.4,16.83,16.83,0,0,0,4.87.75c7.56.31,15.1,1,22.68,1.07,8.53.08,17.06.28,25.59.07a23.91,23.91,0,0,0,5.34-.35,39.28,39.28,0,0,0,8.67-.12c1.49,0,3,0,4.48,0q5.7-.18,11.41-.41c.94,0,1.89-.14,2.83-.22a85.07,85.07,0,0,1,8.86.83A14.74,14.74,0,0,0,450.5,140.49Zm-87.71,104.4v0c11.73,0,23.47,0,35.2,0s23.47.06,35.21.09h1.66l46,.2c3.71,0,3.44.09,2.57-3.39A45.45,45.45,0,0,0,476.28,226a28.17,28.17,0,0,0-9.48-8.48,62.22,62.22,0,0,0-18.26-6.44,101.81,101.81,0,0,0-18.12-1.59c-6.21,0-12.41.29-18.62.59-7.87.37-15.68,1.28-23.51,2-2.47.23-4.93.59-7.39.94q-7.17,1-14.33,2.14-6.74,1-13.48,2.17-8.56,1.43-17.13,2.89c-5.72,1-11.42,2-17.14,2.9q-6.74,1.1-13.5,2c-4.92.69-9.85,1.32-14.77,1.93-3.7.46-7.4.87-11.11,1.26-1.78.18-3.58.28-5.37.35a39.68,39.68,0,0,1-9.47-.75,77.5,77.5,0,0,1-18.73-6.4,18.58,18.58,0,0,0-1.91-.77c-.56-.19-1.39.65-1.26,1.26.08.4.21.8.3,1.2a28.12,28.12,0,0,1,.93,7.79,33.36,33.36,0,0,1-2.42,11.69,6.92,6.92,0,0,0-.46,1.55.7.7,0,0,0,.4.56,20.47,20.47,0,0,0,2.47.15c5.52,0,11-.05,16.57-.06l57.57-.1c7.18,0,14.36,0,21.54,0,2.48,0,5-.12,7.45-.11C352.3,244.75,357.54,244.83,362.79,244.89Z"/><path class="cls-2" d="M420.1,140.29a39.28,39.28,0,0,1-8.67.12,25.17,25.17,0,0,0,3.27-6.17,25.51,25.51,0,0,0,.94-10.63,16,16,0,0,0-5.35-10.42,23.71,23.71,0,0,0-6.65-4.09,33.31,33.31,0,0,0-10-2.32,52.65,52.65,0,0,0-18,1.61,34.15,34.15,0,0,0-6.55,2.5,21.64,21.64,0,0,0-11.2,12.66c-.68,1.94-1.24,3.93-1.8,5.92a63.45,63.45,0,0,1-3.1,9.4,23.57,23.57,0,0,1-6.49-.4,24.52,24.52,0,0,0-3.65-.33,8.71,8.71,0,0,1-3.2-.49,22,22,0,0,0,5.32-11.91,16,16,0,0,0-2.05-10.36,1.44,1.44,0,0,0-1.42-.62,11.88,11.88,0,0,0-1.21.3c-2.6.92-5.19,1.86-7.79,2.79l-35.08,12.48a62.8,62.8,0,0,1-16.67-5.88,3.53,3.53,0,0,1-.64-.53c.82-.82,2-.94,3-1.41,3.24-1.53,6.58-2.89,9.77-4.5a49,49,0,0,0,13.36-9.69,29.63,29.63,0,0,0,7.24-12.39,24.36,24.36,0,0,0,.49-13.49c-1.43-5.2-4.29-9.22-9.28-11.53-1.87-.87-3.8-1.65-5.72-2.4-2.32-.89-4.69-1.66-7-2.59a45.88,45.88,0,0,1-4.86-2.3,17,17,0,0,1-3-2.18A8.27,8.27,0,0,1,282,52a15.83,15.83,0,0,1,2.59-4.22,35.16,35.16,0,0,1,5.66-5.45q3.62-2.77,7.36-5.38,3.56-2.49,7.25-4.8c1.49-.93,2.71-2.32,4.54-2.68,1.4.95,2.19,2.46,3.28,3.68a61.58,61.58,0,0,0,15.06,12.22,80.61,80.61,0,0,0,23.92,9,118.81,118.81,0,0,0,25.93,2.42c7.05-.06,14.07-.55,21.09-1.28,4-.42,8-.71,12-1.15,6.86-.77,13.74-1.43,20.43-3.23a48.82,48.82,0,0,0,12.26-4.93,32.36,32.36,0,0,0,9.73-8.87,25.79,25.79,0,0,0,4.53-10.13,16.93,16.93,0,0,0-8-18.48,16.56,16.56,0,0,0-11.09-2.48c-1.69.2-3.1,1.08-4.67,1.57-.09,0-.27-.09-.35-.18a.45.45,0,0,1-.07-.34,3.09,3.09,0,0,1,.3-.75,12.61,12.61,0,0,1,5.2-4.62,18.33,18.33,0,0,1,20.45,2.79,22.33,22.33,0,0,1,4.12,5.17,30.64,30.64,0,0,1,3.73,11.76,47.69,47.69,0,0,1-2.13,19.21q-1.85,6.15-4,12.18a158.91,158.91,0,0,0-6.76,24.3c-.9,4.75-1.61,9.53-2.17,14.33a280,280,0,0,0-1.66,34.74c0,4.7,0,9.4,0,14.09a14.74,14.74,0,0,1-2.82,0,85.07,85.07,0,0,0-8.86-.83c.09-.82.13-1.65.26-2.47a27.49,27.49,0,0,0,0-8.25,28.89,28.89,0,0,0-10.33-18.75,1.49,1.49,0,0,0-.72-.38c-.2,0-.62.23-.61.35,0,1.78.08,3.57.22,5.35a54.8,54.8,0,0,1,0,9.5,23.38,23.38,0,0,1-5.31,12.8C421.56,138.64,420.82,139.46,420.1,140.29Z"/><path class="cls-3" d="M143.49,349.82q0-23.2,0-46.41a34.08,34.08,0,0,1,.28-5,10.08,10.08,0,0,1,8.87-8.57,28,28,0,0,1,3.31-.13h59.25a27.1,27.1,0,0,1,3.72.16c4.11.61,7.28,2.64,8.85,6.59,2.22,5.56.38,12.84-6.58,15.24a11.33,11.33,0,0,1-2.83.54c-1.24.1-2.48.07-3.73.07H170.72c-4,0-3.93-.06-3.92,3.81,0,6.36,0,12.71,0,19.06a14.45,14.45,0,0,0,.26,2.45c0,.21.32.43.54.56a1.75,1.75,0,0,0,.78.21c1.24,0,2.48,0,3.73,0h35.21c1.66,0,3.32,0,5,.15A10.7,10.7,0,0,1,222,347.9a12.7,12.7,0,0,1-1.18,7.64,10.28,10.28,0,0,1-8.6,5.65c-1.24.11-2.49.07-3.73.07H170.77c-4,0-4-.08-4,3.77q0,9.32,0,18.65c0,.82,0,1.65.07,2.48a1.57,1.57,0,0,0,1.06,1.14c1.24,0,2.48.1,3.72.1H216.4a46,46,0,0,1,5.38.17c4.47.53,7.82,2.83,9.43,7.07,2.93,7.74-1.65,14.69-9.3,15.44-1.1.1-2.21.08-3.31.08h-65a10.24,10.24,0,0,1-9.83-9c-.15-1.65-.22-3.31-.22-5Q143.47,373,143.49,349.82Z"/><path class="cls-3" d="M477,349.77V302.53c0-1,0-1.93,0-2.9a10.26,10.26,0,0,1,9.08-9.74,24.3,24.3,0,0,1,3.31-.14q29.61,0,59.24,0a17.46,17.46,0,0,1,5.74.62,10.58,10.58,0,0,1,7.49,8.56,11.22,11.22,0,0,1-7.34,12.82,12.3,12.3,0,0,1-2.83.53c-1.24.1-2.49.06-3.73.06H504.05c-4,0-3.93-.12-3.92,3.78,0,6.5,0,13,0,19.48,0,.55,0,1.1.07,1.65a1.45,1.45,0,0,0,1,1.13c1.24,0,2.48.09,3.72.09H540.6c1.66,0,3.32,0,5,.14a10.59,10.59,0,0,1,9.62,8.34,11.69,11.69,0,0,1-1.14,8.81,10.07,10.07,0,0,1-8.31,5.39,35.72,35.72,0,0,1-3.73.08H505.14c-1.25,0-2.49,0-3.73.07a1.27,1.27,0,0,0-1.15,1c0,.41-.12.82-.12,1.22q0,10.79,0,21.55a10.24,10.24,0,0,0,.12,1.23,1.29,1.29,0,0,0,1.15,1c.82,0,1.65.07,2.48.07h46c1.65,0,3.32,0,5,.14a11.37,11.37,0,0,1,10.68,11.2c.1,6.24-3.82,10.34-9.46,11.25a21.47,21.47,0,0,1-3.31.17H488.53c-.82,0-1.66,0-2.48-.08a10.28,10.28,0,0,1-9-9.35c-.05-1.24,0-2.49,0-3.73V349.77Z"/><path class="cls-3" d="M397.4,288.2c6.62,0,13.25-.07,19.88,0a43.72,43.72,0,0,1,16.89,3.67,38.25,38.25,0,0,1,21.25,22.05,50.07,50.07,0,0,1,2.9,24.82,44.36,44.36,0,0,1-3.12,12c-4.63,10.76-12.64,17.93-23.55,21.91a42.88,42.88,0,0,1-15,2.63c-8.28,0-16.57,0-24.86,0q-1.86,0-3.72.06a1.3,1.3,0,0,0-1.28,1.33c0,1.1,0,2.2,0,3.31q0,8.7,0,17.4a18.44,18.44,0,0,1-.7,5.32,10.34,10.34,0,0,1-9.84,7.47,12.39,12.39,0,0,1-6-1.14,11.61,11.61,0,0,1-6.55-9.88c-.07-1,0-1.93,0-2.9q0-47,0-94.05a15.9,15.9,0,0,1,.8-6.12c1.95-4.8,5.44-7.51,10.65-7.89,1.1-.08,2.21,0,3.32,0H397.4Zm-10.68,43.48q0,9.3,0,18.62a15.62,15.62,0,0,0,.22,2.46.92.92,0,0,0,.56.55,3.83,3.83,0,0,0,1.22.17l27.31,0a18.71,18.71,0,0,0,7.23-1.57,21.44,21.44,0,0,0,12-27.09c-3.09-8.89-11.16-14.73-20-14.56-8.55.17-17.11,0-25.66,0-.55,0-1.1,0-1.65.08a1.2,1.2,0,0,0-1.12,1c-.05.69-.09,1.38-.09,2.07Q386.72,322.58,386.72,331.68Z"/><path class="cls-3" d="M24.1,288.83a10.62,10.62,0,0,1,9.17,4.75,22.66,22.66,0,0,1,2.14,4q6.24,14,12.42,28Q58,348.74,68.05,371.9c.44,1,1,2,1.44,3,.05.1.23.24.28.21.25-.1.58-.2.68-.4.56-1.1,1.1-2.22,1.59-3.35,5.71-13.32,11.37-26.67,17.14-40,4.95-11.4,10-22.74,15-34.1A21.09,21.09,0,0,1,106,294c4.68-6.93,14.33-6.42,19-.87,2.62,3.13,3,6.73,2,10.54a23.31,23.31,0,0,1-1.38,3.46q-6.67,14.7-13.39,29.39-15,33-30.1,65.93c-.4.88-.76,1.78-1.23,2.63a13.93,13.93,0,0,1-3.74,4.38,10,10,0,0,1-12,.46,15.43,15.43,0,0,1-5-5.43c-.88-1.56-1.67-3.18-2.44-4.8q-12-25-23.93-50.07l-20-41.87a20.62,20.62,0,0,1-1.87-5,10.45,10.45,0,0,1,1.51-7.93A12.3,12.3,0,0,1,24.1,288.83Z"/><path class="cls-3" d="M639.77,357.17V397c0,1.24,0,2.49,0,3.73a10.57,10.57,0,0,1-8.92,10,12.23,12.23,0,0,1-8.08-1,10,10,0,0,1-5.51-6.87,25.73,25.73,0,0,1-.55-4.1c-.08-1.1,0-2.21,0-3.31q0-39.37,0-78.73c0-5.76.47-5.19-5-5.2-7.88,0-15.75,0-23.62,0-1.11,0-2.22,0-3.31-.06a9.91,9.91,0,0,1-8.32-5.38,11.35,11.35,0,0,1-.77-9.6,10.05,10.05,0,0,1,7.65-6.85,20.13,20.13,0,0,1,3.27-.47c1.24-.08,2.49,0,3.73,0h74.58c1.25,0,2.49-.06,3.73,0a27,27,0,0,1,3.68.55,10.56,10.56,0,0,1,8,9.87,12,12,0,0,1-1.12,6,10.38,10.38,0,0,1-8.51,5.8,35.6,35.6,0,0,1-3.73.09H643.31a13.5,13.5,0,0,0-2.47.17,1.24,1.24,0,0,0-.85.75,11.91,11.91,0,0,0-.21,2.46q0,8.29,0,16.58Z"/><path class="cls-3" d="M306.46,357V396.4c0,1.51,0,3-.11,4.55a10.82,10.82,0,0,1-10,9.91,12.61,12.61,0,0,1-6.87-1.06,10,10,0,0,1-5.6-6.79,23.88,23.88,0,0,1-.54-3.67c-.08-1.1,0-2.21,0-3.31V316.88c0-1.38,0-2.76-.08-4.14a1.32,1.32,0,0,0-1-1.12c-1.1,0-2.21-.09-3.31-.09h-24c-1.11,0-2.22,0-3.32,0a10.32,10.32,0,0,1-9.56-7.85,11.82,11.82,0,0,1,1.2-9.21,9.69,9.69,0,0,1,6.09-4.64,25.44,25.44,0,0,1,4.08-.62c1.1-.1,2.21,0,3.31,0h75c1.24,0,2.48,0,3.72,0a13.85,13.85,0,0,1,4.85,1,10.38,10.38,0,0,1,6.56,8.41,11,11,0,0,1-.62,6.11,10.37,10.37,0,0,1-8.71,6.73,29,29,0,0,1-3.73.11H310.14a25.36,25.36,0,0,0-2.89.21c-.21,0-.44.34-.57.57a2,2,0,0,0-.18.8c0,1.24,0,2.48,0,3.73Z"/><path class="cls-4" d="M15.39,523.72c1.24-.1,2.47-.26,3.71-.3,15.32-.52,30.64-.65,46-.87,5.79-.08,11.59-.3,17.39-.39,7.18-.12,14.36-.19,21.54-.26,10.22-.1,20.44-.09,30.65-.3,18.36-.38,36.73-.48,55.09-.6q13.88-.07,27.76-.21c12.43-.09,24.85-.24,37.28-.28q43.92-.15,87.84-.2,29.2,0,58.42,0,15.33,0,30.66.08,11.6,0,23.2.11c10.22.08,20.43.21,30.65.29,17,.15,34,.26,51,.44,10.21.11,20.43.35,30.64.49,6.63.1,13.26.13,19.89.18,11.32.07,22.64.19,34,.51,10.21.29,20.43.29,30.65.47,7.73.14,15.46.37,23.19.58,1,0,1.91.19,2.87.29v.44c-1.79.1-3.58.25-5.37.29q-15.72.36-31.47.66c-6.76.13-13.53.19-20.29.31-4.28.08-8.56.24-12.84.31-7.87.12-15.74.2-23.61.28-10.08.09-20.16.06-30.24.26-19.33.4-38.66.56-58,.64q-13.87.06-27.75.17l-19.89.15c-7.87,0-15.74.13-23.61.16q-22.57.08-45.16.12-29.62,0-59.25.08c-13.95,0-27.9,0-41.84-.08q-13.89,0-27.76-.12-24.45-.18-48.88-.4c-13.12-.1-26.24-.18-39.36-.32-7.31-.08-14.63-.28-21.94-.4-3.73-.06-7.46-.08-11.18-.11-13.54-.1-27.07-.17-40.6-.33-7.87-.09-15.74-.35-23.6-.5-7.18-.13-14.36-.17-21.54-.32-9.11-.18-18.22-.43-27.33-.65a5.8,5.8,0,0,1-.81-.16C15.4,524.06,15.4,523.89,15.39,523.72Z"/><path class="cls-5" d="M280.13,455.21c-.16.57-.36,1.51-.68,2.41-1.65,4.53-3.34,9.05-5,13.57-1.24,3.36-2.47,6.72-3.72,10.08a11.76,11.76,0,0,1-.87,1.87,2.67,2.67,0,0,1-4.25.35,14.91,14.91,0,0,1-1.65-2.84c-1.93-4.27-3.8-8.57-5.7-12.85-.39-.88-.81-1.75-1.26-2.59a.94.94,0,0,0-.66-.43c-.16,0-.44.25-.52.45-1.39,3.16-2.75,6.32-4.11,9.48-1,2.28-1.92,4.58-2.94,6.84a8.66,8.66,0,0,1-1.32,2.07,2.71,2.71,0,0,1-4-.09,7.64,7.64,0,0,1-1.33-2.54c-1.08-3-2.12-6-3.18-9-1.66-4.67-3.34-9.34-5-14a18,18,0,0,1-.8-2.78,2.8,2.8,0,0,1,2.53-3.19,3,3,0,0,1,3.35,1.83c.66,1.66,1.24,3.36,1.85,5,1.46,4,2.91,8,4.39,12,.07.21.36.36.58.48s.5.05.65-.28c.39-.88.82-1.74,1.2-2.62q2.79-6.45,5.58-12.91a13.73,13.73,0,0,1,1.29-2.57,2.48,2.48,0,0,1,4.2-.06,12.62,12.62,0,0,1,1.29,2.57c2,4.56,3.89,9.13,5.85,13.68a19.7,19.7,0,0,0,1.17,2.17c0,.06.25,0,.38,0s.34,0,.37-.07c.39-.89.79-1.77,1.12-2.67,1.45-4,2.88-8,4.34-12.06a31,31,0,0,1,1.23-3.06,3,3,0,0,1,5.64,1.62Z"/><path class="cls-6" d="M459.54,468v10.33c0,.83,0,1.66,0,2.48a3.07,3.07,0,0,1-1.8,3,3.65,3.65,0,0,1-3.87-.65,8,8,0,0,1-1.16-1.17c-.63-.73-1.22-1.5-1.82-2.25q-5.65-7.12-11.33-14.23a2.92,2.92,0,0,0-1-.59c-.09,0-.35.08-.36.15a8.79,8.79,0,0,0-.22,1.6c0,4.28,0,8.55,0,12.82a15.58,15.58,0,0,1-.18,2.46,2.76,2.76,0,0,1-2.69,2.15,2.94,2.94,0,0,1-3-1.77,6.4,6.4,0,0,1-.36-1.18,7.31,7.31,0,0,1-.07-1.24c0-8,0-16,0-24a8.39,8.39,0,0,1,.48-2.4,1.87,1.87,0,0,1,1.5-1.27,3.72,3.72,0,0,1,3.79,1c.83.92,1.63,1.87,2.41,2.83q5.44,6.75,10.89,13.52a16.42,16.42,0,0,0,1.43,1.46c.06.07.24,0,.35,0s.35-.11.36-.19a14.55,14.55,0,0,0,.15-1.62c0-4.13,0-8.27,0-12.4a13.5,13.5,0,0,1,.14-2.47,3.19,3.19,0,0,1,1.63-2.28,2.52,2.52,0,0,1,2.37-.14,3.58,3.58,0,0,1,2.28,3.17c.07.82,0,1.65,0,2.48Z"/><path class="cls-6" d="M499.76,468V457.24c0-.83,0-1.66.08-2.48a2.71,2.71,0,0,1,2.69-2.62c4.42,0,8.84-.06,13.25,0a10,10,0,0,1,9.56,9.15c.31,3.86-.79,7.09-4,9.45l-1,.74a.9.9,0,0,0-.17,1.08c.93,1.2,1.87,2.39,2.81,3.59s1.75,2.13,2.54,3.26a3.14,3.14,0,0,1-.57,4.12,3.35,3.35,0,0,1-4.19-.15,14.5,14.5,0,0,1-1.57-1.91c-1.76-2.48-3.49-5-5.22-7.46a2.36,2.36,0,0,0-2.06-1.15c-1.52,0-3,0-4.56,0a1.21,1.21,0,0,0-1.22,1.34c0,1.8,0,3.59-.05,5.38a17.83,17.83,0,0,1-.11,2.07,3.21,3.21,0,0,1-3.29,2.56,3.09,3.09,0,0,1-2.85-2.56c-.09-.82-.09-1.65-.1-2.48C499.75,475.46,499.76,471.74,499.76,468Zm11.4-.73c1.37,0,2.74.06,4.1,0a4.33,4.33,0,0,0,1.92-.6,4.82,4.82,0,0,0,2.12-5.35,4.14,4.14,0,0,0-4.06-3.42c-2.46-.09-4.92-.08-7.38-.07-1.26,0-1.71.47-1.74,1.71,0,1,0,1.91,0,2.87C506.17,468.07,505.39,467.27,511.16,467.28Z"/><path class="cls-7" d="M193.91,465.52c1.66,0,3.31,0,5,0a3,3,0,0,1,2.91,2.93c.05,3.18,0,6.35,0,9.52a3.6,3.6,0,0,1-1.2,2.55,12.23,12.23,0,0,1-4.19,2.61,19.62,19.62,0,0,1-14.53.1c-4.94-1.86-7.77-5.57-8.88-10.61a20.71,20.71,0,0,1-.25-7.41,16.17,16.17,0,0,1,14.79-13.87,17.71,17.71,0,0,1,8.13,1,13.69,13.69,0,0,1,4.48,2.91,3,3,0,0,1-.68,4.91,2.52,2.52,0,0,1-2.75.06c-.82-.49-1.54-1.16-2.35-1.68a9.19,9.19,0,0,0-9.07-.62c-6.41,2.76-8.36,10.24-5,16a9.71,9.71,0,0,0,7.79,4.79,11.24,11.24,0,0,0,5.29-.68c2.71-1,2.69-1.38,2.69-3.92,0-.41,0-.82,0-1.24,0-1.31-.39-1.69-1.73-1.71s-2.76,0-4.14,0a12.79,12.79,0,0,1-1.64-.12,2.76,2.76,0,0,1-1.11-5,3,3,0,0,1,1.54-.49c1.65-.06,3.31,0,5,0Z"/><path class="cls-6" d="M371,468c0-4,0-8,0-12a7.69,7.69,0,0,1,.21-2,2.27,2.27,0,0,1,1.69-1.66,7,7,0,0,1,1.64-.16q5.81,0,11.6,0a11.25,11.25,0,0,1,4.06.64c6.83,2.65,8.67,12.23,3.28,17.18-.61.56-1.3,1-1.95,1.54a.84.84,0,0,0-.19,1.06c1,1.3,2,2.6,3.06,3.9.77,1,1.6,1.91,2.3,2.93a3,3,0,0,1-.51,4.1,3.32,3.32,0,0,1-4.49-.32,22.18,22.18,0,0,1-1.51-2q-2.52-3.56-5-7.13a2.33,2.33,0,0,0-2-1.19c-1.52,0-3,0-4.55,0a1.22,1.22,0,0,0-1.23,1.34c0,1.8,0,3.59-.06,5.39a11.73,11.73,0,0,1-.31,2.44,2.74,2.74,0,0,1-2.34,2.07,2.87,2.87,0,0,1-3-1,3.16,3.16,0,0,1-.65-1.47,17,17,0,0,1-.08-2.48V468Zm11.48-.73c1.38,0,2.76.05,4.13,0a4,4,0,0,0,3.47-2.53,6,6,0,0,0,.4-1.17,4.41,4.41,0,0,0-3.93-5.61c-2.46-.17-4.94-.11-7.42-.12-1.29,0-1.72.45-1.75,1.7,0,1,0,1.93,0,2.89C377.43,468,376.65,467.27,382.49,467.26Z"/><path class="cls-8" d="M615.66,468.32v9.93c0,1,0,1.93,0,2.9,0,2.4-2.32,3.69-4.82,2.45a8.33,8.33,0,0,1-2.64-2.58l-11.31-14.26a23.92,23.92,0,0,0-1.64-1.84c-.12-.12-.48,0-.72,0a.44.44,0,0,0-.3.24,3.81,3.81,0,0,0-.09.82c0,1.1,0,2.21,0,3.31q0,5,0,9.93c0,.83,0,1.65-.06,2.48a2.59,2.59,0,0,1-2.45,2.35,5.07,5.07,0,0,1-1.23-.09,2.77,2.77,0,0,1-2.16-2.21,17.8,17.8,0,0,1-.13-2.06q0-11.6,0-23.17a20.36,20.36,0,0,1,.17-2.47,2.39,2.39,0,0,1,2-1.83,4,4,0,0,1,3.72,1.31c.72.85,1.43,1.69,2.12,2.55,3.46,4.29,6.91,8.6,10.38,12.89.6.74,1.26,1.45,1.91,2.16.07.07.25,0,.37.05.36.06.55-.08.58-.44.06-.82.17-1.63.17-2.45,0-3.86,0-7.73,0-11.59a20.44,20.44,0,0,1,.13-2.47,2.87,2.87,0,0,1,4.11-2.08,3,3,0,0,1,1.85,2.53c.07,1,.07,1.93.07,2.9Z"/><path class="cls-4" d="M284.13,468V457.26c0-.83,0-1.66.07-2.48a2.85,2.85,0,0,1,2.7-2.64c.69,0,1.38,0,2.07,0h13.24c.68,0,1.38,0,2.06,0a2.91,2.91,0,0,1,2.58,2.33,3.09,3.09,0,0,1-1.39,3.19,3.22,3.22,0,0,1-1.15.4,20.36,20.36,0,0,1-2.07.06c-2.34,0-4.68,0-7,0-5.39,0-4.63-.57-4.67,5a1.8,1.8,0,0,0,.09.81c.18.33.43.77.73.85a8.78,8.78,0,0,0,2.05.16c2.49,0,5,0,7.45,0a12.79,12.79,0,0,1,2.05.17A3,3,0,0,1,303,471a10.79,10.79,0,0,1-2.05.2c-2.48,0-5,0-7.44,0a10,10,0,0,0-2,.13,1.42,1.42,0,0,0-.81.77,3,3,0,0,0-.12,1.23c0,5.14-.71,4.63,4.58,4.66,3.17,0,6.34,0,9.51,0a3.29,3.29,0,0,1,3.08,2.35,2.88,2.88,0,0,1-2,3.55,10.79,10.79,0,0,1-2,.22c-5.24,0-10.48,0-15.72,0-2.78,0-3.78-1-3.8-3.71,0-4.14,0-8.27,0-12.41Z"/><path class="cls-8" d="M342.59,467.81c0-4,0-8,0-12,0-3.08,1.39-3.69,3.78-3.68,5,0,9.94,0,14.91,0,.41,0,.83,0,1.24.05a3,3,0,0,1,.19,5.88c-1.24.07-2.49.06-3.73.07l-9.1.08a1,1,0,0,0-.95.68,16.16,16.16,0,0,0,0,5.33.88.88,0,0,0,.57.54,6.87,6.87,0,0,0,1.63.21c2.48,0,5,0,7.45,0a22.76,22.76,0,0,1,2.48.13,2.87,2.87,0,0,1,2.44,2.9,2.9,2.9,0,0,1-2.34,3,15.73,15.73,0,0,1-2.06.15h-7.87a5.24,5.24,0,0,0-1.63.19,1.28,1.28,0,0,0-.74.84c-.08,1.51-.06,3-.05,4.55a1.3,1.3,0,0,0,1.38,1.21c1.1,0,2.21,0,3.31,0,2.76,0,5.52,0,8.28,0a10.89,10.89,0,0,1,2.06.19,3.11,3.11,0,0,1,1.82,4.63,2.53,2.53,0,0,1-1.68,1.12,12.81,12.81,0,0,1-2.05.19H346.6l-.83,0c-2.08-.12-3.06-1-3.15-3.05-.05-1,0-1.93,0-2.9q0-5.18,0-10.35Z"/><path class="cls-8" d="M633.66,484.13H627c-.83,0-1.66,0-2.48-.1a2.59,2.59,0,0,1-2.44-2.37c0-.41-.05-.83-.06-1.24q0-12.23,0-24.43a13.94,13.94,0,0,1,.18-2.05,2.49,2.49,0,0,1,1.7-1.65,11.52,11.52,0,0,1,1.64-.16H640.9c.42,0,.83,0,1.24.06a2.52,2.52,0,0,1,2.21,1.64A3,3,0,0,1,644,457a2.53,2.53,0,0,1-1.71,1.05c-.68.07-1.37.1-2.06.11h-8.28c-.83,0-1.66,0-2.48.07a1.17,1.17,0,0,0-1.12,1c-.05,1.37-.09,2.75-.08,4.13,0,1.07.46,1.54,1.45,1.59.82,0,1.65.06,2.48.06h6.21a15.72,15.72,0,0,1,2.06.14,2.9,2.9,0,0,1,2.44,2.91,2.94,2.94,0,0,1-2.36,3,14.28,14.28,0,0,1-2.06.15c-2.62,0-5.25,0-7.87,0a6.88,6.88,0,0,0-1.62.23.83.83,0,0,0-.55.51,14.26,14.26,0,0,0,0,5.33.83.83,0,0,0,.54.51,11.57,11.57,0,0,0,2,.22c3.31,0,6.63,0,9.94,0a11.28,11.28,0,0,1,2.46.24,3.11,3.11,0,0,1,1.51,4.73,2.63,2.63,0,0,1-1.74,1,22.76,22.76,0,0,1-2.48.14C638.35,484.14,636,484.13,633.66,484.13Z"/><path class="cls-7" d="M496.16,481.21a6.4,6.4,0,0,1-.32,1.18,3.19,3.19,0,0,1-3,1.88,3.92,3.92,0,0,1-1.87-.73,2.61,2.61,0,0,1-.74-1c-.69-1.18-1.35-2.38-2-3.56-1.59-.67-3.26-.34-4.9-.37-3.3-.05-6.61,0-9.92,0a2.66,2.66,0,0,0-2.93,1.72,18.24,18.24,0,0,1-1.34,2.55,3.16,3.16,0,0,1-3.21,1.45,2.87,2.87,0,0,1-2.45-1.95,2.56,2.56,0,0,1-.11-2q.63-1.53,1.38-3,5.63-11,11.3-22.06c.31-.61.62-1.23,1-1.81a3.2,3.2,0,0,1,5.49-.05c.64,1.06,1.2,2.16,1.76,3.27q5.3,10.51,10.56,21c.37.74.74,1.48,1.05,2.25A5.77,5.77,0,0,1,496.16,481.21Zm-16.83-8.81v-.12c1.36,0,2.72,0,4.09,0,.8,0,1.12-.59.76-1.39q-1.95-4.28-3.94-8.53c-.05-.12-.2-.32-.25-.31-.25.1-.58.18-.7.37a69.47,69.47,0,0,0-4.41,9.16c-.05.13.22.55.37.56C476.62,472.25,478,472.32,479.33,472.4Z"/><path class="cls-7" d="M76,464.37c0,2.89.06,5.79,0,8.68a11.46,11.46,0,0,1-3.35,7.8,12.62,12.62,0,0,1-6,3.48,16.32,16.32,0,0,1-10.55-.5c-4.44-1.81-7.17-5-7.83-9.83a18.75,18.75,0,0,1-.23-2.47q0-7.65,0-15.31a9.41,9.41,0,0,1,.25-2A2.9,2.9,0,0,1,51.39,452a3,3,0,0,1,2.69,2.2,14.41,14.41,0,0,1,.19,2.46c0,4.28,0,8.55,0,12.83,0,1,0,1.93,0,2.89a6,6,0,0,0,3.09,5.08,8.87,8.87,0,0,0,8.32.67,6.4,6.4,0,0,0,4.12-5.27A18.49,18.49,0,0,0,70,470c0-4.27,0-8.55,0-12.82a25.31,25.31,0,0,1,.15-2.89,2.75,2.75,0,0,1,2.2-2.19,2.83,2.83,0,0,1,3,.88,3,3,0,0,1,.64,1.48c.12,1.37.11,2.75.12,4.13,0,1.93,0,3.86,0,5.8Z"/><path class="cls-7" d="M94,450.67a14.18,14.18,0,0,1,7.91,2,5,5,0,0,1,1.8,1.66,2.82,2.82,0,0,1-.19,3.11,2.58,2.58,0,0,1-3,.87c-1-.42-2-.92-3-1.31a11.69,11.69,0,0,0-6.52-.5A4.21,4.21,0,0,0,88.64,458a3.12,3.12,0,0,0,.61,4.7A11.42,11.42,0,0,0,91.83,464c1.69.59,3.42,1.07,5.14,1.57a21,21,0,0,1,5.69,2.42,7.67,7.67,0,0,1,3.71,7,9.25,9.25,0,0,1-5.08,8.43,16.14,16.14,0,0,1-8,1.87,18.2,18.2,0,0,1-9.87-2.63,4.3,4.3,0,0,1-1.91-2.1,3.18,3.18,0,0,1,.91-3.73,2.59,2.59,0,0,1,3.11-.19,18,18,0,0,0,7.32,2.63,9.58,9.58,0,0,0,4.48-.52,4.15,4.15,0,0,0,2.35-2.21,3,3,0,0,0-.85-3.72,10.79,10.79,0,0,0-2.51-1.38c-1.68-.62-3.41-1.12-5.12-1.62a23.49,23.49,0,0,1-5.37-2.13,7.78,7.78,0,0,1-3.69-4.3,9,9,0,0,1,2.92-10A13.52,13.52,0,0,1,92,450.68,17.87,17.87,0,0,1,94,450.67Z"/><path class="cls-7" d="M138.92,464c0-2.76,0-5.51,0-8.27a8.23,8.23,0,0,1,.17-1.64,2.89,2.89,0,0,1,2.41-2,2.85,2.85,0,0,1,2.91,1.14,2.48,2.48,0,0,1,.43,1.14c.09,1,.1,1.93.1,2.89q0,6.42,0,12.83a14.35,14.35,0,0,0,.4,3.69,5.76,5.76,0,0,0,2.61,3.58,8.88,8.88,0,0,0,9.42.41,5.69,5.69,0,0,0,3.16-4.58c.12-1.23.17-2.47.18-3.71,0-4.14,0-8.27,0-12.41a22.75,22.75,0,0,1,.11-2.48,3,3,0,0,1,2.83-2.56,2.91,2.91,0,0,1,3.09,2.2,9,9,0,0,1,.14,1.64c0,5.38.07,10.76,0,16.13-.1,7-4.61,11.89-11.61,12.79a16.42,16.42,0,0,1-8.13-.82,12.06,12.06,0,0,1-8.23-11.7C138.88,469.47,138.92,466.71,138.92,464Z"/><path class="cls-7" d="M123.5,484.31c-2.21,0-4.41,0-6.62,0a11.12,11.12,0,0,1-2.43-.34,1.83,1.83,0,0,1-1.36-1.42,10.07,10.07,0,0,1-.25-2c0-1.52,0-3-.06-4.55,0-.76-.3-1.14-1.26-1.31a3.65,3.65,0,0,1-2.71-1.66,2.61,2.61,0,0,1,.4-3.38,5.21,5.21,0,0,1,.62-.54c3.54-2.13,2.94-2.2,3-6.06,0-2.07,0-4.13,0-6.2,0-.69,0-1.38.08-2.06a3,3,0,0,1,3.45-2.77,2.77,2.77,0,0,1,2.53,2.32c.1,1.65.07,3.3.12,5,0,1.24.07,2.48.17,3.71,0,.15.46.4.66.36a13,13,0,0,0,1.55-.54,13.79,13.79,0,0,1,2-.62,2.56,2.56,0,0,1,2.72,1.45,2.74,2.74,0,0,1-.29,3.09,7,7,0,0,1-1.58,1.3c-1.41.85-2.87,1.63-4.32,2.43a1.54,1.54,0,0,0-.82,1.32c0,.41,0,.83,0,1.24.11,5.71-.93,5,5,5.07,2.21,0,4.41,0,6.61,0a12.93,12.93,0,0,1,1.65.09,3.12,3.12,0,0,1,2.23,4.45,2.29,2.29,0,0,1-1.53,1.29,16.21,16.21,0,0,1-2.84.41C127.9,484.35,125.7,484.31,123.5,484.31Z"/><path class="cls-5" d="M531.88,452a2.85,2.85,0,0,1,2.27,1c.9,1.23,1.74,2.49,2.61,3.74l5.19,7.47a.89.89,0,0,0,1.08.07c.43-.54.88-1.07,1.27-1.64,1.64-2.39,3.25-4.79,4.89-7.19.54-.79,1.09-1.59,1.71-2.33a3.27,3.27,0,0,1,5.45.91,2.29,2.29,0,0,1,0,1.59,16.08,16.08,0,0,1-1.48,2.48c-2.66,3.87-5.29,7.75-8,11.56a7.1,7.1,0,0,0-1.44,4.62c.07,1.8,0,3.59,0,5.39,0,.69,0,1.38-.07,2.06a3,3,0,0,1-2.83,2.56,3.13,3.13,0,0,1-3.22-2.62c-.1-1.79-.07-3.59-.11-5.38,0-1.52-.08-3-.12-4.55-.8-1.29-1.58-2.59-2.42-3.85-2-3-4-6-6-9-.53-.81-1.06-1.62-1.57-2.43a2.55,2.55,0,0,1-.21-2.74A3.18,3.18,0,0,1,531.88,452Z"/><path class="cls-6" d="M324.13,452h9.11c.83,0,1.66,0,2.48.05a2.86,2.86,0,0,1,2.59,2.76,3,3,0,0,1-2.69,3.12c-1.1.08-2.2.05-3.31.07s-2.48,0-3.71.13a1.13,1.13,0,0,0-.8.76,18.54,18.54,0,0,0-.16,2.89c0,5.79,0,11.59,0,17.38a18.49,18.49,0,0,1-.18,2.88,3.13,3.13,0,0,1-3,2.33,3.19,3.19,0,0,1-3-2.4,25.2,25.2,0,0,1-.13-2.89c0-5.24,0-10.48,0-15.73,0-1.1,0-2.21,0-3.31,0-1.69-.3-2-1.84-2-1.38,0-2.76,0-4.14,0-.69,0-1.38,0-2.06,0a2.94,2.94,0,0,1-2.86-3.7,2.55,2.55,0,0,1,2.19-2.16c.82-.08,1.65-.11,2.47-.11Z"/><path class="cls-5" d="M402.94,452a2.81,2.81,0,0,1,2.22.88c.68.86,1.32,1.76,1.94,2.66,2,2.95,4,5.92,6.06,8.87a.68.68,0,0,0,1,0c.34-.43.69-.86,1-1.31,1.94-2.85,3.86-5.71,5.82-8.54a11.39,11.39,0,0,1,1.59-1.88,3.34,3.34,0,0,1,4.71.84,2.51,2.51,0,0,1,.12,2.39,18.67,18.67,0,0,1-1.28,2.1q-4.22,6.13-8.46,12.24a5.54,5.54,0,0,0-1.06,3.46c.06,2.61,0,5.23,0,7.85a2.84,2.84,0,0,1-1.85,2.49c-1.36.74-3.95-.24-4.16-2.15-.12-1.09-.12-2.2-.17-3.29-.11-2.34.23-4.68-.25-7-1.25-2-2.48-4-3.75-5.92-1.66-2.53-3.36-5-5-7.56-.39-.57-.79-1.13-1.13-1.73A3,3,0,0,1,402.94,452Z"/><path class="cls-6" d="M581.39,465c0,2.76,0,5.51,0,8.27a16.52,16.52,0,0,1-.61,4.48,8.92,8.92,0,0,1-7.45,6.84,18.41,18.41,0,0,1-6.58.06,10.48,10.48,0,0,1-7.32-4.9,2.8,2.8,0,0,1,.14-3.13,3,3,0,0,1,2.79-1.43,2.37,2.37,0,0,1,1.17.36,10.94,10.94,0,0,1,1.52,1.37,6.81,6.81,0,0,0,6.06,1.92,4.23,4.23,0,0,0,3.67-3.42,21.15,21.15,0,0,0,.2-3.29c0-4.95,0-9.91,0-14.86a23,23,0,0,1,.16-2.88,2.84,2.84,0,0,1,2.6-2.28,5.61,5.61,0,0,1,1.23.05,2.76,2.76,0,0,1,2.28,2.12,15.56,15.56,0,0,1,.11,2.05C581.4,459.2,581.39,462.09,581.39,465Z"/><path class="cls-6" d="M208.54,467.69V457.35c0-.82,0-1.65,0-2.48a2.68,2.68,0,0,1,1.74-2.57,3.36,3.36,0,0,1,3.52.43,2.77,2.77,0,0,1,.83,1.38,11.18,11.18,0,0,1,.23,2.45q0,11.58,0,23.15a14.07,14.07,0,0,1-.11,2.06,3.11,3.11,0,0,1-3.72,2.41,2.87,2.87,0,0,1-2.49-2.85c0-1.52,0-3,0-4.55Z"/><path class="cls-6" d="M37.76,247.61a2,2,0,0,1-1.17.77,7.13,7.13,0,0,0-1.25.66c-1.93,0-3.85.1-5.78.09-3.3,0-6.61-.11-9.92-.17-.29-.57-.84-.6-1.37-.74a5.23,5.23,0,0,1-1.05-.54c5.07-.07,10.14-.15,15.21-.2C34.21,247.47,36,247.56,37.76,247.61Z"/><path class="cls-6" d="M657,249l-1.61-1.42c1.51-.05,3-.15,4.51-.14,5.07.05,10.13.13,15.2.2a5.23,5.23,0,0,1-1,.54c-.53.14-1.08.18-1.37.74-4,.07-8,.16-12,.21C659.42,249.19,658.18,249.09,657,249Z"/><path class="cls-9" d="M17.22,247.68a5.23,5.23,0,0,0,1.05.54c.53.14,1.08.17,1.37.74a20.07,20.07,0,0,1-2.43.27C13,249.17,8.72,249,4.48,249,3.1,249,2,248.42,0,247.76c4.92-.11,9-.22,13.13-.28C14.49,247.47,15.86,247.61,17.22,247.68Z"/><path class="cls-9" d="M672.63,249c.29-.56.84-.6,1.37-.74a5.23,5.23,0,0,0,1-.54c1.5-.07,3-.21,4.5-.19,4,0,7.93.17,11.92.26-.18.19-.31.44-.5.5a8.55,8.55,0,0,1-2.36.64c-5.06.14-10.13.21-15.19.28A3.43,3.43,0,0,1,672.63,249Z"/><path class="cls-6" d="M15.39,523.72c0,.17,0,.34,0,.51l-8.9-.13v-.24C9.46,523.79,12.42,523.39,15.39,523.72Z"/><path class="cls-6" d="M677.71,524.19v-.44c2.69-.36,5.37.07,8.06.11v.24C683.09,524.13,680.4,524.53,677.71,524.19Z"/><path class="cls-9" d="M685.78,524.1v-.24a6.41,6.41,0,0,1,1.2-.25c1.5,0,3,.09,5,.15A11.91,11.91,0,0,1,685.78,524.1Z"/></g></g></svg>