<svg xmlns="http://www.w3.org/2000/svg" viewBox="0 0 755.96 338.73"><defs><style>.cls-1{fill:#1c2a44;}</style></defs><title>ca</title><g id="Warstwa_2" data-name="Warstwa 2"><g id="Warstwa_1-2" data-name="Warstwa 1"><path class="cls-1" d="M164.83,323.81a6,6,0,0,0-.19-.74,18.77,18.77,0,0,1,1.3-3.14c.24-.51.26-1.14.55-1.67a13.76,13.76,0,0,0,1.7-3.33c0-.05.13-.58.13-.69s.69-.82.77-.9a.69.69,0,0,0,.13-.47v-.37c0-.45-.13-1.22-.77-1.22h-.13c-.11,0-.95.18-1.06.18h-.18c-1,0-1.88-.18-2.78-.18-1.48,0-1.93,1.77-1.85,3,.05.93.74,2.2.74,3.12a2.28,2.28,0,0,1-2,2.25,1,1,0,0,0-.42-.19,2,2,0,0,1-1-1.5,14.63,14.63,0,0,1-.19-2.57,6,6,0,0,1,.19-1.82,11.2,11.2,0,0,1,1.63-2.75c.08-.19.64-1,.74-1.33a9.07,9.07,0,0,1,.59-1.05.21.21,0,0,1,.13-.19c.61-.42,2.25-1.61,2.43-1.64a3.82,3.82,0,0,1,.93-.42,1.23,1.23,0,0,0,.31-.19h2.41s.48-.08.5-.18h4.07a7.41,7.41,0,0,0,.75.55,1.32,1.32,0,0,1,.42,1c0,1-.93,1.79-1.35,2.56,0,.13-.32.74-.4.93,0,0-.1,1-.13,1.08a.85.85,0,0,1-.18.32c-.06.1-.37.37-.37.42v.93a1.55,1.55,0,0,1-.24.34c-.08.24-.58.74-.69,1.06a4.46,4.46,0,0,1-.21.92c0,.14-.32.56-.32.59a1,1,0,0,0-.18.42,6.27,6.27,0,0,0-1,2.88,11,11,0,0,0,1,3.65,5.2,5.2,0,0,0,.18.79c0,.08.19.95.19,1s.16.24.31.24h.22c.6,0,1-.37,1.56-.37.42,0,.68.13,1.11.13h.26c.26,0,1.61-.26,1.82-.31.64-.19.64-.82,1.14-1.09a6.27,6.27,0,0,1,1.43-.74.71.71,0,0,0,.24-.63,1,1,0,0,0-.06-.27,27.42,27.42,0,0,0-.5-3c0-.05-.24-.44-.18-.5s.31-1.06.31-1.13v-2.94c0-.24.37-2,.37-2.25v-1.08a2.67,2.67,0,0,1,.24-1.06,8.18,8.18,0,0,1,3.84-4.26,3.17,3.17,0,0,1,1.69-.39c1.32,0,3.7,1.35,4,2.83a26.42,26.42,0,0,1,.32,2.88c0,1-.45,3.75-1.09,4.57a24.57,24.57,0,0,0-1.64,2.83c-.66,1-2.06,1.93-2.06,3.31,0,.58.63.95,1,1.4a5.61,5.61,0,0,0,.37.79,4.8,4.8,0,0,0,.56.53h.9a4.39,4.39,0,0,0,3.12-1.14c.5-.45,1.9-1.87,2.06-2a17.4,17.4,0,0,0,1.4-2.88l.92-.92a1.38,1.38,0,0,0,.06-.16,1.65,1.65,0,0,0-.06-.24c-.18-.87-.23-1.88-.5-2.75-.74-2-2.43-4.12-2.43-6.35v-.05c.56-1.61,1.11-3,3.07-3,.45,0,1.24.11,1.5.56a11.13,11.13,0,0,1,.93,1.51c.08,0,.18.47.21.5,0,.29.19,1.51.19,1.66v5.48c0,.79-.53,1.06-.72,1.69,0,.11-.18.74-.18.93a23,23,0,0,1-1.83,6.45,24.84,24.84,0,0,1-2.06,2.56c-1.67,2-3.7,3.47-6.4,3.47a11.68,11.68,0,0,1-2.38-.74,6.92,6.92,0,0,1-1.11-.53L180.11,326c0-.11-.37-.19-.4-.19a4,4,0,0,0-.74.32c-.13.13-1.05,1.06-1.26,1.32-.06.05-.48.69-.56.74a9.49,9.49,0,0,1-.93.19c-1.05.45-1.87,1.64-3.09,1.82h-2.67a4.39,4.39,0,0,1-3.78-1.45,7.18,7.18,0,0,1-.5-.8.52.52,0,0,1-.24-.13C165.57,326.51,165.3,325.08,164.83,323.81Zm16.89-6.69c0,.32.06.64.4.64s.56-.21.93-.58a.57.57,0,0,0,.18-.37,3.34,3.34,0,0,1,0-.37v-.19c.13-.4.82-.4.92-.9a6.9,6.9,0,0,0,.22-1.32v-.29a.62.62,0,0,0-.69-.64c-1.19,0-1,1.46-1.35,2.25,0,.13-.5.95-.5,1.09s-.06.42-.06.5Z"/><path class="cls-1" d="M208.13,316.54c1.77-3.89,3.59-7.38,7.53-9.2a10.54,10.54,0,0,1,1.43-.69,4.54,4.54,0,0,1,.9,0c3.2,0,4.25,1.24,5.18,4.2.08.37.32,1.3.32,1.35s.18,1.14.24,1.27.18.5.18.56-.18.82-.18.9c-.19.92-.11,1.85-.24,2.74a2.23,2.23,0,0,1-.19.38c-.37,1.13-.55,1.87-.92,3.12a2.78,2.78,0,0,1-.14.52,6.35,6.35,0,0,0-.37.74,3.6,3.6,0,0,1-.21.74c-.1.19-1.13,1.14-1.24,1.33-.08,0-.37.45-.4.5-.18.24-1.66,1.64-1.85,1.82a2.31,2.31,0,0,1-.37.61,16.57,16.57,0,0,1-2.72,2.38,3.32,3.32,0,0,1-1.8.37h-2.4c-.69-.34-2.68-1.69-2.94-2.43a6.28,6.28,0,0,1-.18-1.11,21,21,0,0,1-.56-4.47C207.2,320.14,208,318.44,208.13,316.54Zm2.56,9.73c0,.32.95.32,1.19.32,1.53,0,2.51-1.27,3.2-2.57l.18-.31a17.63,17.63,0,0,0,2.54-3.15c.11-.13,1.25-2.8,1.7-3.83a3.4,3.4,0,0,0,.15-.56v-1.69c0-.11.37-1.3.37-1.43a1.81,1.81,0,0,0,0-.45c0-.87-.5-2.51-1.59-2.51-.42,0-1.24.69-1.56,1-.37.42-2.32,2.3-2.75,2.75a8.77,8.77,0,0,1-.74,1.83c0,.1-.68.82-.71.92a4.07,4.07,0,0,1-.37.53,22.71,22.71,0,0,0-.74,3.12c0,.11-.32.63-.32.79s-.18.45-.24.51a11.18,11.18,0,0,1-.34,2Z"/><path class="cls-1" d="M234.5,316.54c1.77-3.89,3.6-7.38,7.54-9.2a10.4,10.4,0,0,1,1.42-.69,4.59,4.59,0,0,1,.9,0c3.2,0,4.26,1.24,5.18,4.2.08.37.32,1.3.32,1.35s.19,1.14.24,1.27.19.5.19.56-.19.82-.19.9c-.19.92-.11,1.85-.24,2.74a2.28,2.28,0,0,1-.18.38c-.37,1.13-.56,1.87-.93,3.12a3,3,0,0,1-.13.52,5.08,5.08,0,0,0-.37.74,5.53,5.53,0,0,1-.21.74c-.11.19-1.14,1.14-1.25,1.33-.07,0-.37.45-.39.5-.19.24-1.67,1.64-1.85,1.82a2.61,2.61,0,0,1-.37.61,16.65,16.65,0,0,1-2.73,2.38,3.28,3.28,0,0,1-1.79.37h-2.41c-.69-.34-2.67-1.69-2.94-2.43a6.28,6.28,0,0,1-.18-1.11,21,21,0,0,1-.56-4.47C233.57,320.14,234.37,318.44,234.5,316.54Zm2.56,9.73c0,.32,1,.32,1.19.32,1.54,0,2.52-1.27,3.2-2.57l.19-.31a18.08,18.08,0,0,0,2.54-3.15c.1-.13,1.24-2.8,1.69-3.83a3.55,3.55,0,0,0,.16-.56v-1.69c0-.11.37-1.3.37-1.43a2.7,2.7,0,0,0,0-.45c0-.87-.5-2.51-1.58-2.51-.42,0-1.24.69-1.56,1-.37.42-2.33,2.3-2.75,2.75a9.35,9.35,0,0,1-.74,1.83c0,.1-.69.82-.72.92a4.07,4.07,0,0,1-.37.53,22.71,22.71,0,0,0-.74,3.12c0,.11-.31.63-.31.79s-.19.45-.24.51a10.4,10.4,0,0,1-.35,2Z"/><path class="cls-1" d="M257.44,328.57c0-.05.18-.37.18-.42a4.52,4.52,0,0,0,.13-.9c.24-.74,1-1.35,1.35-2,0-.13.35-.9.35-1s.15-1.24.15-1.35,1-1.95,1.14-2.19c0-.08.32-.82.37-1a6,6,0,0,1,.72-2.25c.05-.13.68-.82.74-.92a16.83,16.83,0,0,0,.79-2.57c0-.13.45-1.32.5-1.45a5.48,5.48,0,0,0,.16-.56,5.27,5.27,0,0,1,.24-.9s.45-.5.5-.61c.42-.45.32-1.05.56-1.58.13-.29.45-1,.55-1.17a3.9,3.9,0,0,0,.72-.9c.1-.1.31-.5.42-.5.05-.18.26-1.37.32-1.48.18-.45.6-.84.74-1.27a6.41,6.41,0,0,0,.37-.92,7.66,7.66,0,0,1,.21-.95,9.91,9.91,0,0,1,.69-1.09c.05-.05.18-.47.23-.53a6.4,6.4,0,0,0,.9-3c0-2.27-3.33-1.43-3.33-3,0-.74.93-1,1.83-1.25a40.5,40.5,0,0,1,4.38-.68H276l.32.55a3.53,3.53,0,0,1,.61,1.88c0,.5-.69.95-.93,1.43a25.1,25.1,0,0,0-1.32,3.14c0,.08-.19.45-.19.51a7,7,0,0,1-.13.92c-.13.16-1,1.51-1.11,1.64a3.84,3.84,0,0,0-.21.4c-.05.29-1,2.67-1.11,2.93s-.45.77-.5.93a5.61,5.61,0,0,0-.93,2.38c-.21.58-1.4,3.41-1.64,4a2.42,2.42,0,0,0-.58.9,5.82,5.82,0,0,1-.18,1.11c0,.05-.32.31-.32.37s-.19.39-.24.55a44.65,44.65,0,0,1-3.25,7.54c0,.05-.08.45-.08.5v.18c0,.32,0,.77.4.77l.18,0a6.36,6.36,0,0,0,1.48-.37c.9-.5,1.54-2.06,2.73-2.06.47,0,.92.19.92.69,0,2.27-3.75,4.07-5.31,5.45a10.94,10.94,0,0,0-1.22,1.27c-.16.1-1.06,1.13-1.16,1.24a3.44,3.44,0,0,1-2.46.63l-1.19,0a2.28,2.28,0,0,1-1.11-2.27Z"/><path class="cls-1" d="M307.46,337a11.24,11.24,0,0,1-1.27-.74c-.05,0-.29-.08-.31-.18a20.21,20.21,0,0,1-4.26-4.89,2.39,2.39,0,0,1-.19-.59c-.31-.68-.82-1.29-1.13-2,0,0,0-.21,0-.32s0-.08,0-.08-.61-1-.69-1.11a1.27,1.27,0,0,1-.16-.76V326a1.87,1.87,0,0,0-.4-1.37V322c0-.08.19-.63.19-.68v-2.41c.05-.24.26-1.67.37-2A3.24,3.24,0,0,1,300,316c.53-1.25.71-2.57,1.22-3.89a16.73,16.73,0,0,1,3.35-4.39c.27-.29,1.7-1.69,2-2,.72-.29,1.27-.79,2-1.06s1.85-.69,2.75-1.11h2.75c1.06,0,1.69-2,2.14-2.72l.42-.42a3,3,0,0,0,.32-.51,13.43,13.43,0,0,1,.61-1.5c.08-.24,1.32-1.83,1.4-2,.37-.56.29-1.16.61-1.69,0-.11.5-.8.53-.93a2.3,2.3,0,0,0,.18-1.06v-1.5c-.45-1.46-3.14-.64-3.14-2.38,0-.08.13-.82.18-1.09a5.39,5.39,0,0,1,.24-.74c.08-.31.69-.55.9-.69a8.57,8.57,0,0,1,.69-.76,1,1,0,0,1,.42-.16,22.18,22.18,0,0,1,4.6-.82c.18,0,.69,0,.69,0s.66.37.74.37c.95.4,2.19.4,2.19,1.77a7.81,7.81,0,0,1-.92,2.81c-1.14,2.75-3,4.89-4.58,7.32a9.92,9.92,0,0,0-.9,2.54c-.1.16-.31.66-.37.74a2.21,2.21,0,0,1-.42.61,7.68,7.68,0,0,1-.71,1.64c-1.43,1.64-2.3,2.43-3.07,4.57a3.27,3.27,0,0,0-.19.69c-.05.13-.18.87-.23.9s-.64.87-.69.92c-.5.74-.82,1.56-1.32,2.25a18.86,18.86,0,0,0-1.25,1.64c-.76,1.51-1.13,3.2-2,4.58a8.47,8.47,0,0,0-.69.92,35.83,35.83,0,0,0-2.25,4.57c-.61,1.09-1.29,1.59-1.29,2.91,0,2.7,2.48,4.08,4.76,4.58.18,0,1.35.42,1.5.42.53.05,2.89.13,3.49.13.08.37.37.43.69.43h.19c.58,0,.82-.29,1.45-.43.24,0,1.51-.13,1.83-.13a8.86,8.86,0,0,0,3.67-1.11c.82-.45,1.4-1.08,2.25-1.51a5.5,5.5,0,0,1,.9-.31c.29-.19.68-.27.92-.59.88-1.13,1.69-2.32,2.57-3.49a6.06,6.06,0,0,0,.9-1.82l.18-.19a1.18,1.18,0,0,0,.19-.37c.1-.31.31-1.13.37-1.26s.31-3,.37-3.84v-.74c-.14-.45-.74-2.51-.93-2.93s-.82-1.06-1.08-1.46c-.06-.13-.5-1-.56-1.11-.42-.71-2-2.06-2.75-2.06h-3.33c-.24.24-1.37,1.29-1.61,1.53a1.34,1.34,0,0,1-.4.13,4.1,4.1,0,0,0-1.48,2.89c0,.63.93,1,1.43,1s.87-.47,1.37-.74a6.12,6.12,0,0,1,1.09-.55h2.35s.27.1.4.15a3.1,3.1,0,0,1,1.64,2.41,3.35,3.35,0,0,1-.53,1.11c-.11,0-.32.69-.37.71a5.43,5.43,0,0,1-2.75,1.67h-.19c-.37,0-.74-.29-1.13-.32a11,11,0,0,0-1.25-.23c-.05,0-.68-.43-.9-.56a5.24,5.24,0,0,1-2.56-2.38,2.72,2.72,0,0,1-.61-1.64v-.37c.13-1.08.19-2.38.42-3.46a7.75,7.75,0,0,1,2.75-4.39c.72-.69,1.41-.43,2.33-.61a3.38,3.38,0,0,0,.9-.32,9.45,9.45,0,0,1,1.16-.37,4.78,4.78,0,0,1,1,0,5.72,5.72,0,0,1,1.05,0c.08,0,.95.37,1.09.37h2c.13,0,.69.32.77.32,1,.42,2.61,1,3.3,1.82.13.19.72,1.33.9,1.67,0,.16.5,1.32.61,1.51,0,0,.08.31.13.31.24.32,1.56,1.59,1.83,1.83a2.39,2.39,0,0,0,1.11.24c2,0,2.4-1.43,2.4-3.12v-.93l-.21-.37a6.19,6.19,0,0,1-1.29-3v-.14c.47-1.26.63-1.63,2.11-1.63h.32a2.31,2.31,0,0,1,1.43.39c.07.05.84.79,1.13,1.11,1.19,1.27,2,2,2,3.81a10.25,10.25,0,0,1-2,6.8,5.14,5.14,0,0,1-2.24,1.29l-.75.37h-.39a13.62,13.62,0,0,1-2.51-.24c-.11,0-1-.31-1.11-.31h-.51a1.13,1.13,0,0,0-1.13.89,4.79,4.79,0,0,0-.24,1.62c0,.55,0,1.08,0,1.64a7.2,7.2,0,0,1-.13,1.32c-.13.42-.64,1.93-.79,2.25,0,.1-.51,1-.53,1.05s-.29,1-.37,1.09-.69,1-.74,1.11-.45,1.64-.56,1.82-.63,1-.77,1.14a8.7,8.7,0,0,0-.5.93c-.32.45-.45.31-.92.68-.22.24-1.83,1.64-2,1.83a5.25,5.25,0,0,1-.9.74c-1,.58-2.3.82-3.31,1.32-.13,0-.95.69-1.11.74a2.46,2.46,0,0,0-.71.19,19.42,19.42,0,0,0-2.94,1.4c-.42.18-1.24.61-1.32.61h-3.81a4.48,4.48,0,0,0-1.5-.38c-.27,0-1-.05-1.75-.05s-1.51.05-1.72.05C309.84,337.72,308.6,337.59,307.46,337Zm-3.2-14.78c1.19,0,1.93-1.06,2.65-1.82.34-1.11,1.11-1.8,1.48-2.83.08-.16.69-1.93.74-2.17s1.32-2.27,1.45-2.56a4.57,4.57,0,0,0,.9-2.2c0-.5,0-.9-.71-.9a11.53,11.53,0,0,0-3.07.9,4.27,4.27,0,0,0-.92.93,7.21,7.21,0,0,0-2.07,2.75s-.13.63-.16.71-.68.85-.74.93c-.31.42-.23.92-.37,1.45-.05.16-.31,1.48-.42,1.67v.31C303,320.11,303.13,322.25,304.26,322.25Z"/><path class="cls-1" d="M372,322.83v-.95a11.2,11.2,0,0,1,.18-2.51c0-.08.32-.69.37-.77a11.24,11.24,0,0,0,.53-2.38,13.64,13.64,0,0,1,2.38-4.94c.42-.56.24-.56.74-.93.08-.05.45-.31.58-.37a1.87,1.87,0,0,1,.35-.18c.08,0,.63-.69.76-.72a1.82,1.82,0,0,1,.32-.18,2.08,2.08,0,0,1,.61-.19c.08-.1,1.14-.87,1.22-.92.23-.08,1-.5,1.16-.53,0-.11.82-.19.9-.19a8.14,8.14,0,0,1,.74-.42,14.39,14.39,0,0,1,1.93-.18h.45c.58.1,2.27.18,2.38.18,1.06.24,1.95,1.38,2.56,2.06a3.26,3.26,0,0,1,.58,2.25v.69a5.17,5.17,0,0,1-.58.71,2.35,2.35,0,0,1-1.74,1.17,3.37,3.37,0,0,1-2.49-1.17c-.34-.45-.82-2.38-1.27-2.38a3.28,3.28,0,0,0-1.27-.26,2.5,2.5,0,0,0-1.11.26c-.39.51-1.08.74-1.5,1.3-.06.08-.27.63-.32.69s-.87.87-.93.9c-.58.68-.63,1.56-1.13,2.24a9.69,9.69,0,0,0-1.43,2.57,10.67,10.67,0,0,1-.4,2c-.18.45-.74.74-.74,1.32a11.49,11.49,0,0,0-.13,1.61,9.65,9.65,0,0,0,.13,1.56s.5,1,.74,1.4a6,6,0,0,0,2.06,1.48,2.38,2.38,0,0,0,.51-.15c1.05-.82,1.27-1.7,2.06-2.6,0-.05.5-.5.5-.55a7,7,0,0,0,.58-.93,1.34,1.34,0,0,1,1.11-.39c.72,0,1,.87,1,1.5a7.86,7.86,0,0,1-.82,2.81c-.32.31-2,2-2.33,2.32-.56.51-1,.45-1.67.72,0,.1-.5.37-.58.42a3.75,3.75,0,0,1-1.88.37h-.68a5.4,5.4,0,0,1-2.38-1.29c-.08-.08-.88-.69-.93-.72a16.55,16.55,0,0,0-.53-1.66,6.88,6.88,0,0,0-.23-.9,11.71,11.71,0,0,0-.32-1.33Z"/><path class="cls-1" d="M406,326.14c0-.45-.05-1.27-.68-1.27s-1,.9-1.38,1.27a6.7,6.7,0,0,1-.55.42c-1.14.82-2.09,1.88-3.26,2.73a7.59,7.59,0,0,0-.89.74,3.81,3.81,0,0,1-1.38.18h-.69a1.67,1.67,0,0,1-.37-.42,3.17,3.17,0,0,1-1.64-2.59v-.14c.56-4.49,2.28-7.64,4.58-11.34a7.18,7.18,0,0,1,.74-1.29c.34-.4,2-2.07,2.4-2.38a1.35,1.35,0,0,1,.14-.37c.15-.08,1-.88,1.11-.9,1.58-1.43,3.2-2.81,5.5-2.81.71,0,1.4.24,2.19.24,1.27,0,2.09-.74,3.09-.74,1.62,0,1.75.82,1.75,2.3a5.27,5.27,0,0,1-.42,2.09,8.54,8.54,0,0,1-.9,1.67c-.06,0-.32.34-.43.34-.76,1.06-1.13,3.75-2.14,4.39-.13.34-.63,1.88-.74,2.25,0,0-.18.29-.18.31s-.37,1.17-.37,1.35c0,0-.32.45-.35.51a3.22,3.22,0,0,0-.37,1.77v.05c0,.13.27.4.37.4.77,0,1.38-1.27,1.83-1.64a6.54,6.54,0,0,1,3.7-1.7.29.29,0,0,1,.32.19c0,.24-.08,1.27-.13,1.51-.45,1.13-1.7,1.74-2.07,2.88a25.13,25.13,0,0,1-4.25,3.89,3.63,3.63,0,0,1-2,.37h-.08c-.74,0-2.57-1.06-2.67-1.83v-.74C405.76,327.14,406,326.77,406,326.14Zm-4.44-1.43a2.55,2.55,0,0,0,1.32-.53c.06-.1.8-.47.93-.61.32-.26,1.69-1.69,2-2a1.49,1.49,0,0,0,.37-.74,26.82,26.82,0,0,0,2.24-2.14c.06-.13.51-.87.56-.92s.34-.35.34-.4a9.06,9.06,0,0,0,.16-1.3,10,10,0,0,0,.4-2.37c0-.85-.19-1.83-1.19-1.83-1.75,0-4.07,1.88-5,3.17a6,6,0,0,0-.42.69c-.21.32-.45.32-.5.72,0,.18-.19,1.48-.21,1.66s-.66,1.14-.74,1.32a7.45,7.45,0,0,0-1.11,3.7C400.63,323.76,400.81,324.71,401.55,324.71Z"/><path class="cls-1" d="M427.24,330.21H427c-.32-.18-1.83-.92-2.2-1.11a4.32,4.32,0,0,1-1.64-1.14v-.71c0-1.35.27-3.49,2-3.49,1.27,0,2.2,1.88,2.73,2.8.1.13.68,1.32.74,1.4a1,1,0,0,0,1,.43,4.4,4.4,0,0,0,2-.43c1.14-.5,1.09-3.2,1.09-4.09a13.78,13.78,0,0,0-1.09-4.26,15.14,15.14,0,0,1-.42-2.17,30.2,30.2,0,0,1-.5-3.52v-1.87a6.39,6.39,0,0,1,.69-1.51l1.64-1.64c.18-.13,1.11-.93,1.32-1.11a5.26,5.26,0,0,1,2.17-.72c.08,0,.52-.18.58-.18h.55c.08,0,.82.5.93.58s.39.13.53.13a9.88,9.88,0,0,1,1.05.19c.14,0,.88.69,1,.74.29.24,1.06.63,1.06,1.11a3.61,3.61,0,0,1,.18,1.14,3.06,3.06,0,0,1-.18,1.08,6.4,6.4,0,0,1-2.3.74c-2.09,0-2.65-2.38-3.92-2.38-.68,0-1.66.69-1.66,1.38v.08c0,.05.18.47.18.5a15.38,15.38,0,0,0,.32,2.62c.05.08.37.68.42.74.24.95.27,2.08.51,3.14a19.08,19.08,0,0,1,.74,2.75,14.39,14.39,0,0,1,.39,2.65v1c0,.11-.18.79-.18.93v.55s-.69.64-.72.69-.79,1.19-.92,1.32a17.62,17.62,0,0,1-2.25,1.46,12.09,12.09,0,0,1-2,.37H430c-.92,0-1.37-.43-2.11-.43C427.71,330,427.53,330.21,427.24,330.21Z"/><path class="cls-1" d="M447,328.2a5.27,5.27,0,0,1,.37-1.82c.08-.16.63-1,.69-1.11.69-1.09,1-2.25,1.69-3.34a43.67,43.67,0,0,0,2.72-5.63,1.74,1.74,0,0,0,.16-.55c.08-.13.35-1.27.4-1.46a24.44,24.44,0,0,1,1.43-2.56,2.43,2.43,0,0,0,.18-.69c.37-1.08.9-2,1.32-3,.06-.16.45-1.51.51-1.61a2.84,2.84,0,0,1,.23-.4,24.61,24.61,0,0,0,1.09-2.56,5.83,5.83,0,0,1,1.11-1.62,26.55,26.55,0,0,0,.9-2.59,4.14,4.14,0,0,0,.31-4.23c-.26-.63-1.4-1.32-1.4-1.82s.53-.82.9-.9,2.62-.16,3.07-.19c.11,0,.56-.18.61-.18h.5s.37.18.4.18c1,.4,2,.58,2,1.83a8.08,8.08,0,0,1-.4,2.43s-.45.77-.5.9-.19.29-.19.32a16.5,16.5,0,0,1-.61,1.66c-.26.82-1.26,1.32-1.4,2.2v.89c-.05.11-.87.8-.92.93a10.77,10.77,0,0,0-.21,1.32,7.21,7.21,0,0,1-1.25,2.51,7.72,7.72,0,0,1-.79.74v.9a1.67,1.67,0,0,0,.18.43H461c.05,0,1.19-.93,1.64-1.33s.48-.63.93-.74a12.62,12.62,0,0,1,2.24-.37h.35a2.06,2.06,0,0,1,.34.19c.13,0,1,.18,1.08.18s.19.14.24.24.77.45.9.5c.5.32.66.32.93.9a5.29,5.29,0,0,1,.31,1.48,10.76,10.76,0,0,1,.77,3.1c0,2.85-1.14,5.44-2.22,8.06-.05.21-.82,2.09-.93,2.33-.95,2.3-2.75,3.83-4.52,5.5a4.85,4.85,0,0,1-.74.4,9.1,9.1,0,0,1-3.43,1.11,2.92,2.92,0,0,1-1.88-.43c-.08,0-.53-.63-.58-.68-.32-.45-1.25-1-1.25-1.7a4.82,4.82,0,0,1,.74-2.38c.19-.21.69-.82.74-.9h.45c1.38,0,2.07,1.33,3.65,1.33,1.38,0,1.56-1.48,2.06-2.38.06-.14.69-.82.75-.93.39-.58.31-1.37.58-2,.05-.21.47-.95.5-1.08a3.65,3.65,0,0,1,.61-.74c0-.06.13-.74.13-.93a23,23,0,0,0,.18-2.56,8.11,8.11,0,0,0-.18-1.69,7.26,7.26,0,0,1-.5-.9c-.27-.61-.19-1.64-1.14-1.64-.5,0-.79.39-1.24.58-.08,0-.56.13-.58.24s-.67.37-.69.5c-.42.32-2.06,2-2.38,2.38a17.25,17.25,0,0,0-2,3.41c0,.11-.19.18-.19.24A20.12,20.12,0,0,0,455,321a5.53,5.53,0,0,1-.58.79c-.11.27-1.43,3-1.83,3.78a5.59,5.59,0,0,1-.32.93,6.35,6.35,0,0,1-.74.9c-.31.47-.18.69-.37,1.35a3.66,3.66,0,0,1-2.69,2.19,2,2,0,0,1-1.7-2C446.76,328.89,447,328.25,447,328.2Z"/><path class="cls-1" d="M507.06,324.31c.24-.31,1.75-2.61,2.2-3.3a2.61,2.61,0,0,0,.55-.71c.06-.16.32-1,.37-1.12a1.09,1.09,0,0,1,.19-.39c0-.05.69-1,.71-1.11a1.8,1.8,0,0,0,.19-.32,13,13,0,0,1,.61-1.32,6.48,6.48,0,0,0,.71-.93,1.44,1.44,0,0,1,.18-.5l.35-.74a6.43,6.43,0,0,0,1-3.28c0-.45,0-.79-.56-.79h-.39c-.11.05-1.24.42-1.67.55,0,0-.37.19-.37.19a9.48,9.48,0,0,0-.71.92,18,18,0,0,0-1.48,1.33c-.69.9-1.46,1.93-2.2,2.93-.68.82-1.69,1.27-2.38,2.14-.13.19-.63.93-.76,1.14s-.45.95-.51,1.11c-.5.71-1.24,1.45-1.82,2.14-.11.13-.32.56-.42.58-.08.19-.77,1.67-.9,1.85a9.8,9.8,0,0,1-.93.9c-.26.32-1.43,1.88-1.64,2.25a4.56,4.56,0,0,1-.92,1.64,2.56,2.56,0,0,1-2.28.93h-.42c-.63,0-.77-.06-1.14-.93a2.74,2.74,0,0,1-.37-1.37c0-.69.56-1,.74-1.59a7,7,0,0,1,.19-1.11s.5-.64.53-.72a8.94,8.94,0,0,0,.5-1.11,15.49,15.49,0,0,1,1.69-2.93c.61-.77.69-1.35,1.17-2a16.1,16.1,0,0,0,1.63-3.3v-1.09a4.93,4.93,0,0,1,.51-1.66c.26-.4.58-.69.58-1.19s-.19-.45-.58-.45c-.88,0-1.19.58-1.83,1.14-.47.31-1.16.37-1.66.74a27.31,27.31,0,0,0-2.54,2.51c-.16.08-1,.69-1.11.74s-.27.58-.37.71-.32,1.06-.37,1.11a7.9,7.9,0,0,1-.58.58,24.82,24.82,0,0,0-1.83,2.2,3.17,3.17,0,0,1-.32.69c-.15.18-.66,1-.79,1.16a13.73,13.73,0,0,0-2.14,4v.9c-.19.55-1.14.74-1.51,1.16-.74.77-1.06,1.64-2.19,1.64a2,2,0,0,1-2-2.06c0-1.69,1.35-3.39,2.22-4.76a13.71,13.71,0,0,0,.69-2.38c.23-.5.68-.82.92-1.27.08-.13.5-1.19.56-1.3a2.17,2.17,0,0,1,.34-.34,6.28,6.28,0,0,0,.37-.74c.24-.61.93-2,.93-2.06s.08-.37.08-.42c0-.72-.35-.9-1-.9-.18,0-.47,0-.5,0l-2,2a2.34,2.34,0,0,1-.51.13,1.92,1.92,0,0,1-.58-.13,4.06,4.06,0,0,1-.37-.74v-.05a5.66,5.66,0,0,1,.93-2.46c.58-1.11,1.13-2.12,1.64-3.15l.18-.19c1.69-1.37,2.59-2.61,5-2.61,1.24,0,3.67.31,3.67,1.93,0,1.27-.84,2.27-.84,3.51a4.15,4.15,0,0,0,.23,1.41s.14-.16.19-.22a3.2,3.2,0,0,0,.74-.37c.82-.55,1.27-1.87,2.19-2.56.69-.5,1.7-.9,2.38-1.32a1.4,1.4,0,0,0,.37-.32c.08,0,.82-.64.95-.74s.08-.37.19-.37a3.74,3.74,0,0,1,.32-.4c.13-.05,1-.29,1.08-.32a3.19,3.19,0,0,1,.56-.37c.13-.05.37-.23.42-.23h3.09a12.59,12.59,0,0,1,.93.92,2.8,2.8,0,0,1,.55,1.91c0,.84-.74,1.42-.74,2.35V312c0,.18.06.39.27.39h.05a8.36,8.36,0,0,0,1.14-.9c.87-.68,1.74-1.32,2.62-2,.05-.05.26-.34.31-.37a3.17,3.17,0,0,1,1.11-.92,1.78,1.78,0,0,0,.53-.19c.16-.05.85-.87.93-.9a2.57,2.57,0,0,1,.37-.18,10.5,10.5,0,0,1,3.75-.93h.13a1,1,0,0,1,.32.19c.08,0,.19.18.19.18.18.06,1.37.69,1.5.74s.14.19.14.19a6.73,6.73,0,0,1,.42,1.45v.19c-.05.21-.19,1.82-.19,2v.37a2.06,2.06,0,0,1-.23.55c-.06.22-1,1.64-1.06,1.86-.34.66-.53,1.37-.9,2a3.74,3.74,0,0,0-.61.9c-.08.24-.63,1.24-.69,1.48s-.5,1.14-.52,1.27a17.51,17.51,0,0,0-1.12,1.64,6.45,6.45,0,0,0-1.32,2.93c0,.24.27.24.37.24,1.14,0,1.75-1.16,2.38-1.93a14.43,14.43,0,0,0,1.14-1.06c.45-.55.42-.89,1.08-.89.35,0,1.67.45,1.67.71v.18a5.57,5.57,0,0,1-.93,2.2c-.08.13-1.19,1.14-1.32,1.29s-.26.88-.32.9c-.18.24-1.37,1.43-1.63,1.67-.11,0-.69.34-.8.4a19.23,19.23,0,0,1-2.88,1.82,5.12,5.12,0,0,0-1.14.19c-.37.1-2,.74-2.38.92-1.19-.45-2.06-.69-2.06-2.14A7.9,7.9,0,0,1,507.06,324.31Z"/><path class="cls-1" d="M527.65,323.39v-.69a5.38,5.38,0,0,1,.53-2.19c0-.08.15-.45.18-.58a21.06,21.06,0,0,1,.93-2,8,8,0,0,0,.37-1.17c.05-.08.5-.95.55-1s.19-.84.19-.92a2.81,2.81,0,0,1,.39-.59c.11-.1,1.3-1.34,1.43-1.42a7.93,7.93,0,0,0,.9-1.14s.32-.66.42-.69.27-.18.32-.24a3.16,3.16,0,0,0,.58-.18l.35-.32c.13-.13.68-.87.71-.92a7.31,7.31,0,0,1,1.69-.9c0-.11.13-.19.13-.24a6.25,6.25,0,0,1,3.92-1.09c1,0,4,.4,4.57,1.46a2.29,2.29,0,0,1,.16.77c0,.05.37.79.42.92v.32a10.92,10.92,0,0,1-.58,2.75c0,.13-.29.45-.34.58a7,7,0,0,1-1.64,1.67,17.11,17.11,0,0,0-1.82.9c-1,.5-2.15.47-3.15.92H535c-.64,0-1.19.08-1.46.74-.13.16-.68,1.83-.79,2a12.87,12.87,0,0,1-.71,1.32v1.25c0,1.13.26,3.88,2,3.88.39,0,.68-.24,1.13-.24h.51a.77.77,0,0,0,1.32-.68l2-2.07h.29c.55,0,.87.64.87,1.14,0,1.06-.69,1.61-1.32,2.35a5.09,5.09,0,0,0-.37.59c-.32.45-1,.63-1.3,1.11-.08,0-.31.5-.37.53s-1,.29-1.13.37c-1.19.55-2.07,1.48-3.47,1.48s-3.62-1.8-4.26-2.94C527.91,327.46,527.67,324.18,527.65,323.39Zm8.64-9.52c0,.24.19.56.45.56h.08c.16-.06,1-.51,1.11-.56a28.21,28.21,0,0,0,2.75-1.08c.32-.24,1.33-.88,1.33-1.19v-.14a10.33,10.33,0,0,1-.93-1.11,1.76,1.76,0,0,0-.21-.13c-.11,0-.56-.08-.66-.08a5.29,5.29,0,0,0-3.6,2.41,3,3,0,0,0-.32,1.19Z"/><path class="cls-1" d="M554.39,327.59c0-.08.19-.63.19-.68s0-.4,0-.72,0-.63,0-.79c.9-.69.55-1.64.9-2.57.55-1.27.92-2.53,1.48-3.83a4.94,4.94,0,0,1,.58-.9c.45-1-.21-1.48.92-2.38v-.66c0-.5-.1-1.77-.79-1.77h-.13a6.52,6.52,0,0,1-2.2.58h-.21a.68.68,0,0,1-.55-.18c0-.16-.19-1-.19-1.14v-.19c0-1.45,2.28-3.59,3.15-4.57a5,5,0,0,1,.32-.53A4.85,4.85,0,0,1,561,306a2.27,2.27,0,0,1,1.08.19,5.57,5.57,0,0,1,1.06.55,3.63,3.63,0,0,1,.19,1.09v2.43s.18.56.18.69.19.32.21.37h.19a5,5,0,0,0,1.48-1.06,1.34,1.34,0,0,1,.37-.58,4.87,4.87,0,0,1,.9-.74,11,11,0,0,0,1.64-1.51c.29-.32.34-.61.74-.92a5,5,0,0,1,2.3-.74c.45,0,.82.37,1.19.6.9.56,1.82,1,1.82,2.2s-.82,2.93-2.19,2.93c-1.06,0-1.69-1.66-2.67-1.66a2.08,2.08,0,0,0-1.19.55c-.27.24-1.59,1.56-1.83,1.83-.39,1.61-1.32,1.61-2.22,2.75,0,.1-.18.32-.18.37-.06.24-.35,1.82-.35,2.06a2.5,2.5,0,0,1-.21.5c0,.14-.63,1.06-.69,1.14s-.5.82-.6.93c-.27.5-.53,1.87-1,2.19,0,.21-.18,1.24-.18,1.45s-.37.64-.42.74c-.4.82-.56,1.75-.9,2.6a5.76,5.76,0,0,0-.56.92,8.05,8.05,0,0,1-.69,1.24,15.07,15.07,0,0,0-1.69,1.33c-.37.26-.37.31-.74.31-.55,0-.95-.55-1.32-.92,0,0-.13-.27-.13-.32s-.13-1.27-.19-1.64v-.24Z"/><path class="cls-1" d="M577.67,323.39v-.69a5.38,5.38,0,0,1,.53-2.19c0-.08.16-.45.19-.58a21.09,21.09,0,0,1,.92-2,8,8,0,0,0,.37-1.17c.06-.08.5-.95.56-1s.18-.84.18-.92a3.42,3.42,0,0,1,.4-.59c.11-.1,1.29-1.34,1.43-1.42a8.7,8.7,0,0,0,.9-1.14c.05,0,.31-.66.42-.69s.26-.18.32-.24a3.16,3.16,0,0,0,.58-.18l.34-.32c.13-.13.69-.87.72-.92a7.31,7.31,0,0,1,1.69-.9c0-.11.13-.19.13-.24a6.22,6.22,0,0,1,3.91-1.09c1,0,4,.4,4.58,1.46a2.29,2.29,0,0,1,.16.77c0,.05.37.79.42.92v.32a11.87,11.87,0,0,1-.58,2.75c0,.13-.29.45-.35.58a7,7,0,0,1-1.64,1.67,18.11,18.11,0,0,0-1.82.9c-1,.5-2.14.47-3.15.92H585c-.63,0-1.19.08-1.45.74-.13.16-.69,1.83-.79,2a13,13,0,0,1-.72,1.32v1.25c0,1.13.27,3.88,2,3.88.4,0,.69-.24,1.14-.24h.5a.77.77,0,0,0,1.32-.68l2-2.07h.29c.56,0,.88.64.88,1.14,0,1.06-.69,1.61-1.33,2.35a5.09,5.09,0,0,0-.37.59c-.31.45-1,.63-1.29,1.11-.08,0-.32.5-.37.53s-1,.29-1.14.37c-1.19.55-2.06,1.48-3.46,1.48s-3.63-1.8-4.26-2.94C577.94,327.46,577.7,324.18,577.67,323.39Zm8.65-9.52c0,.24.18.56.45.56h.08c.16-.06,1-.51,1.11-.56a29.24,29.24,0,0,0,2.75-1.08c.32-.24,1.32-.88,1.32-1.19v-.14a11.64,11.64,0,0,1-.93-1.11.92.92,0,0,0-.21-.13c-.1,0-.55-.08-.66-.08a5.29,5.29,0,0,0-3.59,2.41,2.87,2.87,0,0,0-.32,1.19Z"/><path class="cls-1" d="M1,220c0-.61-.61-2.37-.61-2.85a4.88,4.88,0,0,1-.14-1.28,3.46,3.46,0,0,1,.61-1.9L0,200.38l.34-3.8s.47-.81.61-1.15A56.94,56.94,0,0,0,2.71,190a10.84,10.84,0,0,0,.34-2.57A5.39,5.39,0,0,1,3.59,185a52.62,52.62,0,0,1,4.74-8.27c.21-.27.34-.61.55-.88.81-1.15,2-3,2.1-3.18,1.08-1.63,2-2.1,3.45-3.46,3.05-2.37,5-4.27,8.27-6.23l1.69-.75c1.63-.54,4.2-2.17,5.83-2.64l6.91-1a2.87,2.87,0,0,0,1.76-.74c3.86-.07,6-.21,8-.21,2.78,0,5.49.14,8.2.21,3.52.88,4,.88,4.47.88,2.23-.14,2.3-.14,4.67-.14,1,.54,2.31,1.9,3.26,1.9.33,0,.81-.41.94-.41h4c2.44-.34,4-2.78,6.44-2.78a2.64,2.64,0,0,1,2.84,2.78v11.25c.07.41.34,1.76.34,2.17.82,4.33,2.24,9,2.24,13.35a5,5,0,0,1-2.24,2.77c0,.14-.13.14-.47.14-3.66,0-5.15-3.73-5.49-6.23v-2.24c-.41-2.57-1.22-2.64-2.71-4.68-.95-1-.81-2.3-1.63-3.52-.13-.34-1.08-.81-1.22-.81l-4.33-3.12c-.07-.13-1.83-1.9-2-2.24a3.54,3.54,0,0,0-.81-.4c-.14.13-.47.13-1,.13s-.47,0-.47-.13a16.82,16.82,0,0,1-5.15-2.1l-8.2-.34a2.45,2.45,0,0,0-2.1-.81,14.19,14.19,0,0,0-6.91,1.55s-.27.34-.41.34c-2.57,2-6.16,1.83-8.67,4L28,171.38c-.06.13-1.28,1-1.35,1.29a6.47,6.47,0,0,1-2.24,2.16c-.74,1-.95,2.44-1.28,2.58l-1.56,2.24L19.65,184l-.88,3.93a7.17,7.17,0,0,1-1.9,2.1c0,.14-.34,3-.34,3.93v1.83l.34,6.91.81,3.32-.81,3.73c0,4.34,1.42,8.81,2.78,12.8a9.65,9.65,0,0,1,1.22,1.63l.68,1.9c.47,1.49,2.44,2.64,3.32,3.73.88,3.25.54,2,1.76,3.18,1.35.54,1.35,2.64,2.64,3.59,1.69.27,2.85,0,3.86,1.09,4.27,3.52,7.32,5.14,12.67,6.09l3.53,1c2.37,0,3.66-1,5.08-1s2.44,1.43,3.86,1.43c1.15,0,1.76-1.09,2.91-1.43.14,0,1.5-.27,1.77-.34a4.67,4.67,0,0,0,1.76-.94,20.08,20.08,0,0,0,3.72-.82c.14-.13,1.63-1.56,1.9-1.89.68,0,3.52-2.1,4.81-2.85.41-.27.48-.68,1-1.15,1.36-1.9,2.64-2.31,4.2-4.2a7,7,0,0,0,1.42-1.76c.07-.14.48-1.56.82-1.63a5.07,5.07,0,0,1,3.39-1.29c1.28,0,2,2.44,2,3.59,0,3.66-3.73,5.15-4.4,8.61a20.83,20.83,0,0,0-3.93,3.86c-2,2.64-3.59,3.25-5,4.34-.61.81-.68,1.83-1.76,2.23a19.44,19.44,0,0,1-4.67,1.76c-2.85,1.83-4.95,2.1-7.39,2.92L58,255.67a29.53,29.53,0,0,0-6.57,1,15.36,15.36,0,0,1-4-.68l-4.2,1.35c-1.9-.2-4.81-.34-5.76-1-2.44-.61-5.15-.61-7.59-1.76l-5-2a6.34,6.34,0,0,0-1.76-.47,16,16,0,0,0-2.24-2.58H19.24c-.74-.4-1.76-1.89-2.71-3.52,0-1.08-1.62-1.22-2.5-1.22-1-.54-.55-2.17-1.49-3.12A6.73,6.73,0,0,0,11,239.75c-1.29-.82-1.29-.34-2.17-1.77l-1.7-2.57-1.49-1.63c0-3.18-.61-4.27-.81-4.33a10.38,10.38,0,0,0-.47-2.24,8.68,8.68,0,0,1-2.1-1.15Z"/><path class="cls-1" d="M89.38,251.66c.29-.21,1.26-1.14,1.63-1.34l1.95-1c.94-.45,3.17-4.71,3.74-5.89a3.24,3.24,0,0,0,.16-1c0-.2.29-.69.29-.77a20.35,20.35,0,0,0,1.38-2,11.56,11.56,0,0,0,.29-1.82c.69-3.5,2.68-7,3-10.62l2.81-7.72c.77-2.2.61-4.68,1.26-7,.93-2.12,2.4-4.07,3.45-6.39.41-1.22.21-2.6,1-3.74.57-.77,4.84-4.92,5.9-4.92a1.07,1.07,0,0,1,1,.57,2.67,2.67,0,0,1,.65,1c.29,1,.86,1.91,1.18,3.05l0,.89a6.94,6.94,0,0,0,.69,2.24,41.53,41.53,0,0,1,1.34,5.45c.21,1.09.9,1.87.9,3l0,.65c2,1.74,1.58,2.6,2.84,5,1.14,2.11.86,3.74,1.79,6.26,0,.24.49,1.13.49,1.34v1.54c0,.21,1.06,1.79,1.06,2.12a6.38,6.38,0,0,0,.2,1.26l1.14,1.14c.77.65.28,1.83.81,2.8.65,1.5,1,3.17,1.83,4.72a9.76,9.76,0,0,1,.85,3.65v.49c.7,1.22,1.71,2.2,2.24,3.09a5.29,5.29,0,0,0,3.05,3.17,11.51,11.51,0,0,0,4.27,1.26l1.14.29a2.37,2.37,0,0,1,.77,2c0,1.14-1.14,1.63-2,1.63l-3.46-.21h-.85c-.53-.48-2.08-.4-2.32-.48h-4.84c-.4-.57-.69-.57-1.34-.57-2.2,0-4.63.85-7.32.85h-.89a4.37,4.37,0,0,1-2.28-.37c-.12-.08-.2-.32-.2-.69l.08-.65a2,2,0,0,0,.08-.61.33.33,0,0,1,.24-.36c1.92-.86,5.49-.61,5.49-2.52v-.08c0-1.26-.24-3-.24-4.52,0-.52-.53-1.17-.57-1.66v-2.48c-.24-1.47-2.48-6.88-4.39-6.88-1.38,0-2.93.9-4.43.9-1.3,0-2.32-.77-3.9-.77h-2.61a6.63,6.63,0,0,0-3.33.65,8.17,8.17,0,0,0-3.86,5l-.29,2.85c0,.24-.48,2-.48,2.15s-.09.37-.09.57c0,1,.37,1.18.86,2a13.44,13.44,0,0,0,1.26,2c1.5,1.26,5.69,1.22,5.69,3.54v.29c-.29,2.11-1.67,2.6-3.7,2.6l-3.54-.94H99.67c-1.91,0-4.35.21-5.08.73-2.73.05-5.49.21-5.69.21-1.39,0-3.78-.94-3.78-2.4C85.12,252.15,88.2,252.43,89.38,251.66Zm16.55-23.3c0,1.51.69,1.91,2.15,1.91.17,0,.29-.2.29-.2s.93-.16,1.22-.2c.49,0,1,.2,1.26.2h6.38c1.83,0,2.77-.77,2.77-2.52,0-1-1.71-3.17-2.12-5a.69.69,0,0,0-.2-.49l-1.91-2.84c0-.29-.29-.53-.37-.82l-.2-.85c-.49-2.32-1.63-7-3.21-7-1.43,0-5.94,14.18-5.94,16.18C106,227.3,105.93,227.88,105.93,228.36Z"/><path class="cls-1" d="M152.66,251.49h1.06c2.44,0,4.63,0,6.26-2.35l1.26-1.55c.28-.28.28-.45.28-1l-.28-5.33c0-1.71.85-3.29.85-4.8,0-1.67-.85-3.49-.85-5.32,0-.86.61-1.14.61-2l-.41-2.88.41-3.86v-1.59l-.61-1.1s-.37-3.53-.49-4.92l.57-1.91c0-1.54-1.51-7.8-2.68-8.45-1.83-.53-7.32-.78-7.32-3.78,0-.21.08-.37.2-.37,1.71,0,2.48-.81,3.86-.81l3.26.4,6.54-.65,1.34.45,2.12-.45a36,36,0,0,1,4.63-.28,31.27,31.27,0,0,1,4.35.28,7.47,7.47,0,0,0,3.5.57,15.72,15.72,0,0,1,3.74.37c1.91.32,6.95,3.17,8.09,5.32A27.5,27.5,0,0,1,194.7,214c0,1.3-.13,4.72-.82,5.65l-1.22,1.55-.28,1.54a21.23,21.23,0,0,1-5.53,5.57,32.89,32.89,0,0,1-3.9,1.83l-2.85.2-1.79.57c-1.26,0-4.06-.85-4.06-2,0-.49.28-.77.85-1l4.72-1c0-.28.53-.49.77-.57a13.09,13.09,0,0,0,6.67-11.06c-.08-.4-.37-.77-.41-1a.91.91,0,0,1-.08-.33,26,26,0,0,0-1-5.28c-.44-1.06-4.23-4.15-6-5.62l-3.62-.85H173c-1,.57-4,.61-4,2.6v4.72a1.51,1.51,0,0,1,.37,1.26l-.37,1.54a10.27,10.27,0,0,1,.37,1.14v.69l-.73,2.12.93,4.71a2.93,2.93,0,0,1-.2,1.26v6.27a3.11,3.11,0,0,1,.2,1.34l-.57,2.35c0,2,.78,3.95.9,6,.16,3-.21,6.46.73,9.35.12.78,5.49,3.7,6.26,3.7h1.26a2,2,0,0,1,1.14.2,7.51,7.51,0,0,0,1.58,1.35c.09.28.21.36.21.65v.12c-1,2.19-4.27,2.19-6.3,2.19l-3.09-.57c-.57,0-1.14.37-1.79.37l-3.38-.93h-.48c-.29,0-.33,0-.41.08-2.32.28-4.59,1.05-7.24,1.05-2.11,0-7.11-.08-7.11-2.52C151.32,252.63,152.38,251.86,152.66,251.49Z"/><path class="cls-1" d="M244.45,254.34a27.94,27.94,0,0,1-7.52-10l-.57-1.46c-.57-1.14-2.11-2.28-2.6-3.26l-.89-1.46-3.05-3.33c-.21-3.13-6.26-6.26-8.91-6.26-1,0-3.65.65-3.65,2.11l.28,1.54c0,.74-.28.94-.28,1.43a6.67,6.67,0,0,0,.28,2.11l-.37,6.47.09.85c0,.89,0,1.75,0,2.68s0,1.67,0,2.52a2.05,2.05,0,0,0,1.09,1.55l1.91,1.26c2.32,1.62,9-.08,9,3.09,0,1.62-2.81,2.76-4.07,2.76-1.7,0-2.88-.85-4.67-1.14a56.64,56.64,0,0,1-6.18-1.26c-.61,0-1.26.29-2.12.29l-2.88-.29c-.61,0-1.26.86-2,.86l-6.62-.25a1.18,1.18,0,0,1-.41-.81c0-2.6,6.06-2.85,7.12-3.66.57-.85.4-2.11.61-2.89.24-.08.65-.56.73-.56a13.06,13.06,0,0,0,.57-4.52V241c0-1.13-.37-1.91-.37-2.8l.85-7.32-.65-3.94-.2-.94v-.2a19.53,19.53,0,0,1,.2-2.15c.65-.25.65-.37.65-.74l-.48-2.52.48-2.19a10.4,10.4,0,0,0,.21-1l-.21-1.06v-1.21l.21-2.61-.69-6.18v-.85c-2.4-2.89-4.39-4-8.26-4.92a.66.66,0,0,1-.57-.69c0-1.5,4.72-2.11,5.7-2.11l2.39.2,2.57-.2,3.57.77c1.47,0,2.81-.57,4.48-.57l3.37.37,3.46-.37a27.17,27.17,0,0,1,7.8,1.34c1.22.41,2.89.49,4,1.26l.89.65c4.39,2.64,7,4.19,7.32,9.92.08,1.38.49,2.44.49,3.86,0,1.18-.61,1.18-1.06,2.12-.49,1.1-.41,3.09-1,3.9-.89,1.3-2.31,1.91-3.45,3.05-1,1.67-4.64,1.63-4.64,4.07,0,1.13.94,1,1.43,1.82.12.29,2,3.05,2.19,3.18,2,2.6,3.38,5.4,5.45,7.8a16.2,16.2,0,0,0,3.94,3.86c.86.45,1.22,2.69,2,3.54,2,1.46,3.7,2.44,5.61,3.86,1.71,1.14,5.09,1.55,5.09,4,0,1.13-1.14,1.34-2.28,1.34h-6c-1.66-.77-3.17-.57-5.24-.77a16,16,0,0,1-3.9-2Zm-27.76-31.47c0,2.48,2,3.74,4.35,3.74h1.46c.37-1.74,6.55-2.4,8.05-3a10.28,10.28,0,0,0,3.09-2.61l1.34-2.56a9,9,0,0,0,1.38-4.63c0-.86-.89-1.55-.89-2.68a8.54,8.54,0,0,0,.32-1.75V209c0-.2-.77-.77-.81-1-2.6-4.79-6.71-6.22-12.11-6.22a20.09,20.09,0,0,0-3.58.65,11.25,11.25,0,0,0-.94,1.55v1.14a33,33,0,0,1-1.38,8.58l-.57.81.86,1.06c0,.24.2,1.34.28,1.82V218c-.08,0-.28.28-.28.48a2.7,2.7,0,0,0,.28.78Z"/><path class="cls-1" d="M278,248.89c.47-.34,2.1-1.89,2.71-2.23l3.25-1.63c1.56-.74,5.28-7.86,6.23-9.82a5.1,5.1,0,0,0,.27-1.7c.07-.34.48-1.15.48-1.29a31.1,31.1,0,0,0,2.3-3.38,18.76,18.76,0,0,0,.48-3.05c1.15-5.83,4.47-11.59,4.94-17.69l4.68-12.87c1.28-3.66,1-7.79,2.1-11.65,1.56-3.53,4-6.78,5.76-10.64.68-2,.34-4.34,1.62-6.24,1-1.28,8.07-8.19,9.83-8.19a1.78,1.78,0,0,1,1.76.94,4.46,4.46,0,0,1,1.08,1.63c.48,1.63,1.43,3.18,2,5.08l-.07,1.49a11.44,11.44,0,0,0,1.15,3.73,69.76,69.76,0,0,1,2.24,9.08c.34,1.83,1.49,3.12,1.49,5l-.07,1.09c3.25,2.91,2.64,4.33,4.75,8.26,1.89,3.53,1.42,6.24,3,10.44.06.4.81,1.89.81,2.23v2.58c0,.34,1.76,3,1.76,3.52a10,10,0,0,0,.34,2.1l1.9,1.9c1.28,1.08.47,3,1.35,4.67,1.09,2.51,1.7,5.29,3,7.86a16.44,16.44,0,0,1,1.42,6.1V237c1.16,2,2.85,3.65,3.73,5.15,1.69,4,3.52,4.33,5.08,5.28,2,1.15,3.86,1.56,7.12,2.1l1.89.48c1.16.74,1.29,2.37,1.29,3.38,0,1.9-1.89,2.71-3.39,2.71l-5.76-.34h-1.42c-.88-.81-3.45-.67-3.86-.81h-8.06c-.68-1-1.16-1-2.24-1-3.66,0-7.72,1.43-12.2,1.43H331.2a7.35,7.35,0,0,1-3.79-.61,1.48,1.48,0,0,1-.34-1.16l.14-1.08a3.54,3.54,0,0,0,.13-1,.57.57,0,0,1,.41-.61c3.18-1.42,9.15-1,9.15-4.2v-.13c-.07-2.1-.41-4.95-.41-7.52,0-.89-.88-2-.95-2.78v-4.14c-.41-2.43-4.13-11.45-7.32-11.45-2.3,0-4.88,1.49-7.38,1.49-2.17,0-3.87-1.28-6.51-1.28H310a11,11,0,0,0-5.55,1.08,13.72,13.72,0,0,0-6.44,8.4l-.47,4.75c0,.4-.82,3.25-.82,3.59,0,.13-.13.61-.13.95,0,1.62.61,2,1.42,3.38a25,25,0,0,0,2.1,3.39c2.51,2.1,9.49,2,9.49,5.9v.47c-.48,3.52-2.78,4.34-6.17,4.34l-5.89-1.56h-2.44c-3.19,0-7.25.34-8.47,1.22-4.54.06-9.15.34-9.49.34-2.3,0-6.3-1.56-6.3-4C270.83,249.71,276,250.18,278,248.89Zm27.57-38.82c0,2.51,1.16,3.18,3.59,3.18.28,0,.48-.34.48-.34s1.56-.27,2-.33c.81.06,1.63.33,2.1.33h10.64c3.05,0,4.61-1.28,4.61-4.2,0-1.69-2.85-5.28-3.53-8.33a1.11,1.11,0,0,0-.33-.81l-3.19-4.75c0-.47-.47-.88-.61-1.35l-.34-1.42c-.81-3.87-2.71-11.73-5.35-11.73-2.37,0-9.89,23.65-9.89,27C305.66,208.31,305.52,209.25,305.52,210.07Z"/><path class="cls-1" d="M372.44,233.81c0-.53-.28-.65-.85-1.06a10.28,10.28,0,0,1-.12-1.5v-3a9.89,9.89,0,0,1,.12-1.54,1.26,1.26,0,0,0,.36-.94l-.57-1.87.57-2.4c0-.65-.36-1.22-.36-1.75,0-.85,1.14-1.3,1.34-2.11l.36-1.3c.78-2.85,2.61-5,5-7.08.24-3.37,8.33-7.39,11.26-8.74,1.26-.48,2.56-.6,3.94-1.18,1-.2,6.34-.77,7.52-1,.73,0,1.34.12,2,.12h3.95a18.26,18.26,0,0,1,2.11.08,20.35,20.35,0,0,0,6.87,1.95c2.32,0,2.24-2.52,4.15-2.52,1.42,0,1.91,1.67,1.91,2.52l.2,4.31a2.86,2.86,0,0,1,.37,1.06,2.62,2.62,0,0,0,.12,1,31.3,31.3,0,0,0,.65,3.37c.2,1.75,1.06,2.2,1.06,3.94,0,.33-1.06,1.06-1.34,1.06-2.61,0-4.8-3.86-5.78-6l-.28-.48-.21-1.06-1.34-1.26a23.77,23.77,0,0,1-1.7-2.2c-1.18-1.74-4.15-1.54-6-2.39-1.55-.78-2-1.35-3.94-1.35-1.26,0-2.36.94-3.62,1.14l-2.89.21c-5,.85-8.86,5.36-12,9.06a8.25,8.25,0,0,0-.74,2.6c-.81,2.4-3.41,4.92-3.41,7.53,0,.56.29,3,.29,5.16l-.09,1.38.61,1v2.27c.25,2.89.53,5.61,1.91,8.21,1.22,2.12,3.09,3.18,4.36,5.37.24.49,1,.33,1.54.86,2.6,3.78,6.26,5.52,10.45,6.66a14.88,14.88,0,0,0,2.6.69,5.92,5.92,0,0,0,1.26-.28c.61,0,3.29-.29,4.06-.41.21,0,6.55-4.31,7-4.71V246l-.21-2.4c0-1.14.21-2.12.21-2.89v-.85l-.41-.78v-2c-.2-1.91-2.19-2.31-2.4-3.86V231.9l-.2-1.14c.2-1,2.52-1.06,4.06-1.06h1.35l3,.49a14.87,14.87,0,0,0,3.3-.4l.2-.09h7.4c.36,0,1.91.45,1.91,1.27,0,2.27-5,2.31-6.06,3.08l-2.4,3a5.36,5.36,0,0,1,.57,2l-.57,4.52c0,.85.57,1.18.57,1.71,0,2.43-.57,6-3.37,6.66l-2.2.21c-1.54.2-4.23,2.39-5.61,3.17a3.92,3.92,0,0,1-1.91.36h-1.46a6.7,6.7,0,0,0-3,.53H401a17.36,17.36,0,0,0-3.78-.41c-1.22,0-2.48-.08-3.74-.12s-1.34-1.14-2.16-1.34a10.77,10.77,0,0,0-3.12-1.06l-2.61-1.34c-.32,0-1.26-.36-1.66-.36-1.47-.33-5.7-5.21-6.67-6.55a3.56,3.56,0,0,0-.94-1.26l-.4-1.06c-.25-.28-1.71-1.26-1.71-1.54l-.41-2.6c-.28-1.14-1.62-2-1.62-3.46C372.16,234.62,372.44,234.5,372.44,233.81Z"/><path class="cls-1" d="M440.72,251.66l.61-.17c.85-.48,1.22-2,2.11-2.84,0-.57-.29-.77-.29-1.06l1.27-1.54,1.13-9.72a4.6,4.6,0,0,0,.69-2.89l-.2-4.79a7,7,0,0,1,.37-2,9.37,9.37,0,0,0,.36-1.91v-3.78a1.88,1.88,0,0,1,.33-.85v-4.92l.16-2.4a7.17,7.17,0,0,0,.21-.89c-.49-1.71-.45-3.54-1.43-4.92,0,0-.2-.25-.2-.25l-1.63-.69-2.11-2.11c-1-.82-3.21-.33-4.19-1.1l-1.34-1.06a1.79,1.79,0,0,0-1.26-.28l-1,0a2.85,2.85,0,0,1-1.66-1.87c0-2,3.69-2,4.92-2,2.23.77,4.26.32,6.66.69.08,0,2,.61,2.28.61H447l3-.9c.86,0,2.4,1.14,3,1.63l.25.33c1.14,1.91,3.74,5.65,5.45,7l1.95,1.1a2.65,2.65,0,0,1,.65.77l.32,1.05c.65,1.22.86,1,1.83,1.79,2.12,2.08,2.69,2.44,3.66,5.25a42.59,42.59,0,0,1,3.38,3l.44,1a4.46,4.46,0,0,0,1,1.55l.89.4c2.32,2.08,5.17,5,6.06,7.61l4.07,3.86a5.92,5.92,0,0,0,5.28,4.11v-1.63a11.25,11.25,0,0,1,.16-1.63,12.5,12.5,0,0,0,.61-1.66c0-.57-.4-.74-.4-1l.4-2.32c0-1.46-.32-3.49-.4-4.92,0-.2-.17-1.46-.21-1.75v-.08a1.09,1.09,0,0,1,.21-.77l.36-.77.69-3.74a3.17,3.17,0,0,1-.44-1.67l.24-3.86-.24-4c0-.61,0-1,.65-1.34v-1c0-1.26-1.43-3.58-2.81-4a15.14,15.14,0,0,1-1.75-.32l-.93-.65a7.9,7.9,0,0,0-1.18-.21,7.86,7.86,0,0,1-4.31-3.29c-.29-.37-.61-.2-.85-.77.24-.65,2.6-.78,3-.78.17,0,.21,0,.21,0a7.49,7.49,0,0,1,1.22.24,93.58,93.58,0,0,0,9.47.81l6.18-.61c1.42,0,3.33.09,3.33,1.91,0,3-4.63,2.44-6.54,3.62l-.45,1.34-1.95,1.83a2,2,0,0,0-.21.78,14.48,14.48,0,0,0,1.06,2.39v.21c0,.73-.57,3.45-.57,3.74-.08.08-.08.28-.08.49a1.62,1.62,0,0,0,.08.69v2.48a5.7,5.7,0,0,1-.69,3.09v5c0,1.42,0,3.58-.85,4.71v1.14c0,2.16-.29,4.19-.49,6.38-.08,1.14-.57,2-.57,3.17a36.57,36.57,0,0,0,.57,7.89,17.06,17.06,0,0,1,.89,5.69v2a1.17,1.17,0,0,1-1.09.69c-3,0-7.56-7.16-10.21-9.56-.08-.2-.28-1.26-.57-1.46-.85-.94-1.91-2.4-2.8-3.25-2.32-1.71-3.54-3.78-5.29-5.9-.65-.85-1.91-1.06-2.23-1.91a22.63,22.63,0,0,0-6.14-6.26c-.85-.49-.85-1.42-1.95-1.95-.16-.28-1.71-2.68-1.91-3.05l-.49-.41c-.57-2.31-1.63-2.8-3.46-4.79l-.36-.57c-.53-1.59-2.36-2.12-3.38-3.29-.77-.86-.32-1.75-1.83-2-.32,0-1.26.61-1.26,1l.21,1.18c0,.57-.41,1.54-.41,2.4l.41,1.26-.41,1.14a5.2,5.2,0,0,0,.69,2.72,8.79,8.79,0,0,1,.37,2.85,11.28,11.28,0,0,1-.37,3.21,1,1,0,0,1,.29.65c0,1.83-.78,2.93-.78,4.35v1.34a14.21,14.21,0,0,0,.49,4.14,6.82,6.82,0,0,0-.69,3c0,3.26,1.26,7,4.15,9.07.85.53,2.11.24,2.88,1.22,1.75,0,4.07.28,4.92,1.14a5.92,5.92,0,0,1,.78,3,3.85,3.85,0,0,1-3.3,1.91h-.77l-1.63-.86a43,43,0,0,0-6.38-.44h-2.76a4.91,4.91,0,0,0-1.91.28h-6.51c-.36-1.06-2.07-.2-2.07-1.18,0-2.52,2.56-3,4.59-3.37Z"/><path class="cls-1" d="M511.37,250.8h3.29c.94-.2,3.34-2.11,3.54-3.66a12.93,12.93,0,0,0,.12-1.82,11.18,11.18,0,0,0-.12-1.63l.57-.9a30.5,30.5,0,0,1-1-8.21,25.12,25.12,0,0,1,.69-4.51,2.34,2.34,0,0,0,.29-.69,5.89,5.89,0,0,0,.57-1.3c0-.41-.57-.82-.86-.82.12-1.78.21-3.61.21-5.36s-.09-3.58-.21-5.41a3.41,3.41,0,0,1-.28-1.54l.28-2.4-.28-4.35c0-1.34-2.6-3.46-3.54-3.66h-2.92a2.7,2.7,0,0,0-.78-.37c-1.54-.4-4-.32-4-2.68,0-2,1.14-2,3-2,1.46,0,2.88,0,3.86.69a7.4,7.4,0,0,1,.77-.12h.77c2.6,0,5.57.57,7.89.77l2.32.41c1.38,0,3-1.18,4.51-1.18.53,0,.77.4,1.58.4.25,0,.45-.4,1-.4s.81,0,1.06.4h1.58c1.14,0,2.4-.6,3.66-.6a2.3,2.3,0,0,1,1.83.6l7.32.37s1.75.2,2.6.41c.57,0,1.63.2,1.63,1.05a44,44,0,0,1,.69,5.86,37.88,37.88,0,0,1,.45,5.61h-.65c-.57,0-1.06-.41-1.47-1.38a6.39,6.39,0,0,1-.77-1.06,46.61,46.61,0,0,1-3.58-5.86c-1.3-.56-2.88-.28-3.62-1.42a1.34,1.34,0,0,0-1.26-.61c-.2,0-.36,0-.4.08a8.19,8.19,0,0,1-1.14.13c-.89,0-1.91-.13-2.52-.13-.37,0-.37-.16-.65-.16a.89.89,0,0,1-.29-.12,26.72,26.72,0,0,0-3.57-.21,25.69,25.69,0,0,0-3.5.21,4.53,4.53,0,0,0-2.36,2.32,33,33,0,0,0-.49,6.66v4.23a2.83,2.83,0,0,0-.52,2V220c0,2.6.2,5,2.35,7.07l6.55.24a3.84,3.84,0,0,0,1.5-.28,3.84,3.84,0,0,1,1.06-.2l1.59,0a2.1,2.1,0,0,0,1.26-.41,8.11,8.11,0,0,0,3-2c.69-1.3,1.55-6.59,3.17-6.59.41,0,.7.29,1,.78v3.74a5.11,5.11,0,0,1-.49,2.07l-.49.65.21,1.34c0,.41.49,4.84.49,6.67l-.21,1.5c0,.9.49,1.55.49,2.08,0,1.42-.41,2.6-1.83,2.6s-1.46-1-1.46-1.95a3.9,3.9,0,0,0-.08-1l-1.14-2v-1.26c-.21-2.16-11.51-3.7-13.82-3.7-2,0-2.89,2.84-3.09,4.35v3.21l.52,6.26v3.54c.25,2.52,4,5.2,6.26,5.41l2.89.2.77.28h2.61a61.5,61.5,0,0,0,7-.28l3.25-1.26a31.43,31.43,0,0,0,6.26-6.55c.57-.32,1-3.21,2.32-3.21.57,0,.85.61.85,1.1l-.73,2.56a47.9,47.9,0,0,0-2,8.7c-1.14,1.75-3,1.83-4.84,1.83a11.68,11.68,0,0,0-1.71.08l-.85.2c-1.06,0-1.18-.48-2-.48l-2.6.28-1.35-.28-6.26.48c-3.94,0-7.84-.48-12.07-.48l-5.2.48-3.66-.2c-2,0-3.66,1.06-5.21,1.06-1.79,0-4.71-1.06-4.71-3.25C506.25,251.37,509.91,250.8,511.37,250.8Z"/><path class="cls-1" d="M568.61,251.66l3.37-.29c2.69-.57,5.29-.57,7.12-2.8a2.26,2.26,0,0,0,.36-1.14,2.16,2.16,0,0,1,.33-1.18,24,24,0,0,0-.2-3.74,8.86,8.86,0,0,1-.09-1.34,4,4,0,0,1,.29-1.83c0-1.54-.08-2.52-.08-3.5a10,10,0,0,1,.44-2.84l-.36-6a6.74,6.74,0,0,1-.2-1.34,5.83,5.83,0,0,0,.56-2.32c-.16-1.54-.08-3-.36-4.59-.12-.41-.49-.61-.49-1.1s.37-.73.49-1v-2c0-2.32,0-5.85-1.18-8.66-.57-.4-2.11-1.62-2.2-1.66-1.46-1.14-7.23-1.34-7.23-4,0-.65,1.83-.85,2.31-.85a8.31,8.31,0,0,0,1.14.08c.29,0,.33,0,.41-.08,1.83-.08,3.82-.21,5.77-.21s3.46.13,5.49.21a1,1,0,0,0,.77.37c4.92-.45,6.67-1.14,9.92-1.71h1c2.11,0,6.42.08,6.42,2a3.84,3.84,0,0,1-.28,1.75c-.57.85-6,1.06-7.32,1.06a5.89,5.89,0,0,1-1.14.2l-.69.2c-3.86.45-3.86.49-4.15,2.4-.08.89-.08,1.83-.28,3l-.57,1.3c0,1.38,1.34,3.29,1.34,4.92l-.28,3.13.57,2.6a11.7,11.7,0,0,1-.57,3.17,31.1,31.1,0,0,0-.29,5.16l-.08,1.26a1.77,1.77,0,0,0,.37,1.35v8.21a1.51,1.51,0,0,0-.29.93c0,.82.57,1.47.57,2.08a13.44,13.44,0,0,1-.57,3.53,9.76,9.76,0,0,1-.2,1.06c.33,1.75,3.86,3.66,5.53,3.66l1.79-.37a3.34,3.34,0,0,0,1.34.37c.69,0,1.18-.57,2-.57l1.26.57,2.6.2,1.14.29h.69c3-.49,6.1-.49,8.42-2.4a.69.69,0,0,0,.28-.49c.57-1.75,1.79-2.11,2.89-3.25.77-.61,1.26-1.87,2-2.81,1.14-1.1,3.17-2.6,4.43-2.6.57,0,1.91.2,1.91.73,0,2.36-1,3-2.11,4.48a2.49,2.49,0,0,0-.33,1.21c0,.33.13,1,.13,1.18-.29,1.43-1.63,2.32-2.2,3.09l-.2,1.26a4.86,4.86,0,0,1-5.21,4.11l-3.21-.65-1.3.65H606a4.79,4.79,0,0,0-2.93-.65c-1.26,0-2.31.65-3.29.65h-.57l-6.26-.85-.77-.29h-3.66a1.75,1.75,0,0,0-1.63-.57,1.59,1.59,0,0,0-1.26.37H579.1c-1.63,1.34-7.61,1.54-9.52,1.54a2.52,2.52,0,0,1-2.23-2.6C567.35,252.92,567.75,251.66,568.61,251.66Z"/><path class="cls-1" d="M629.89,251.66l3.38-.29c2.68-.57,5.28-.57,7.11-2.8a2.27,2.27,0,0,0,.37-1.14,2.16,2.16,0,0,1,.32-1.18,24,24,0,0,0-.2-3.74,10,10,0,0,1-.08-1.34,4.16,4.16,0,0,1,.28-1.83c0-1.54-.08-2.52-.08-3.5a9.67,9.67,0,0,1,.45-2.84l-.37-6a6.74,6.74,0,0,1-.2-1.34,5.83,5.83,0,0,0,.57-2.32c-.16-1.54-.09-3-.37-4.59-.12-.41-.49-.61-.49-1.1s.37-.73.49-1v-2c0-2.32,0-5.85-1.18-8.66-.57-.4-2.11-1.62-2.19-1.66-1.47-1.14-7.24-1.34-7.24-4,0-.65,1.83-.85,2.32-.85a8.14,8.14,0,0,0,1.14.08c.28,0,.32,0,.4-.08,1.83-.08,3.82-.21,5.78-.21s3.45.13,5.48.21a1,1,0,0,0,.78.37c4.91-.45,6.66-1.14,9.92-1.71h1c2.12,0,6.42.08,6.42,2a3.84,3.84,0,0,1-.28,1.75c-.57.85-6,1.06-7.32,1.06a5.89,5.89,0,0,1-1.13.2l-.7.2c-3.86.45-3.86.49-4.14,2.4a29.86,29.86,0,0,1-.29,3l-.57,1.3c0,1.38,1.34,3.29,1.34,4.92l-.28,3.13.57,2.6a11.7,11.7,0,0,1-.57,3.17,32.2,32.2,0,0,0-.28,5.16l-.09,1.26a1.81,1.81,0,0,0,.37,1.35v8.21a1.55,1.55,0,0,0-.28.93c0,.82.56,1.47.56,2.08a13.87,13.87,0,0,1-.56,3.53,9.35,9.35,0,0,1-.21,1.06c.33,1.75,3.86,3.66,5.53,3.66l1.79-.37a3.34,3.34,0,0,0,1.34.37c.69,0,1.18-.57,2-.57l1.27.57,2.6.2,1.14.29h.69c3-.49,6.09-.49,8.41-2.4a.69.69,0,0,0,.29-.49c.56-1.75,1.78-2.11,2.88-3.25.77-.61,1.26-1.87,2-2.81,1.13-1.1,3.16-2.6,4.43-2.6.57,0,1.91.2,1.91.73,0,2.36-1,3-2.12,4.48a2.48,2.48,0,0,0-.32,1.21c0,.33.12,1,.12,1.18-.28,1.43-1.63,2.32-2.2,3.09l-.2,1.26a4.86,4.86,0,0,1-5.2,4.11l-3.21-.65-1.31.65h-4.43a4.74,4.74,0,0,0-2.92-.65c-1.26,0-2.32.65-3.3.65h-.57l-6.26-.85-.77-.29h-3.66a1.75,1.75,0,0,0-1.63-.57,1.57,1.57,0,0,0-1.25.37h-6.55c-1.63,1.34-7.6,1.54-9.51,1.54a2.52,2.52,0,0,1-2.24-2.6C628.63,252.92,629,251.66,629.89,251.66Z"/><path class="cls-1" d="M694.77,233.24l-1-4.51a30.87,30.87,0,0,1,.49-5.21,31.86,31.86,0,0,0,1-8.45c1.22-1.55,2.4-1.87,2.69-3.94l2.23-2.32,1.06-.49c.69-.28,1.75-2.81,2.6-3.58a70.27,70.27,0,0,1,9.51-5.85,5.74,5.74,0,0,1,1.1-.25c1.71-.24,2-1.34,3.66-1.34l2,.33.61-.33,1.51-.44a50.93,50.93,0,0,1,7.07-.33,42.86,42.86,0,0,1,8.94,2.11c1.55,1.1,2.77,2.81,4.15,3.91,1.75,1.3,3.37,1.54,4.92,3,.57.21,1.63,1.55,1.91,1.83l.28,1.26c.21,1.26,2.2,2.28,2.53,3.46a19.43,19.43,0,0,1,2.6,6v2.39a5.32,5.32,0,0,0,.73,2,5.07,5.07,0,0,1,.41,2c0,.2-.21,1.26-.21,1.54L756,227l-.2,1.75a4.54,4.54,0,0,1,.08,1.14,10.38,10.38,0,0,1-.49,3.57c-1.22,3.46-3.13,5.7-4.51,9.27-.65.65-1.35.45-1.91,1.26a11.43,11.43,0,0,1-1.43,2.61l-.81.48a1.09,1.09,0,0,0-.94.86,38.53,38.53,0,0,1-4.06,4.39,6.19,6.19,0,0,1-1.14.53L736,254.38c-.77.85-.49.85-1.47,1.06l-2.68.24L729,256.94a16.43,16.43,0,0,1-2.08.21,33.58,33.58,0,0,1-5-.86,14.45,14.45,0,0,0-3.5-.28,14.28,14.28,0,0,1-5.77-.78l-.61-.85c-1.14-.32-3.53-.2-4.31-1.3-1.62-1.91-1.54-2.56-4.14-3.62l-1.26-.28c-1.63-.81-4.35-7-5-8.42-1-2.6-3.17-1.5-3.17-5.36C694.21,234.71,694.77,234.05,694.77,233.24ZM705,231.9a.89.89,0,0,1,.08.49l-.08,2a2.89,2.89,0,0,0,.49,1.71c.65,1.13,1.54.77,1.91,2.19l0,.41c0,.36,0,.61,0,1.26a2.77,2.77,0,0,0,.2,1.14c.2.56,1,.56,1.34,1a9.77,9.77,0,0,0,2.89,4.56c3.78,3,7.8,5.89,13,5.89,1.38,0,1.83-.49,3.21-.77a45,45,0,0,1,5.2-.61c2.32-1.75,5.94-2.8,7.32-5.65l2.11-4.27c1.55-1.14,1.06-3.58,2.24-5l.85-5.61c0-.85-.2-1.51-.2-2.6l.49-1.34c0-1.75-1.83-5.17-2.68-6.83l-.41-.7.2-1.13c0-1.63-1.26-2.32-1.46-3.58l-.37-2c-1-3-6.75-8.87-9.43-9.64a13.55,13.55,0,0,0-3.37-.28l-1.06-1.3a22.34,22.34,0,0,0-5.24-1.3c-2.12,0-7.49.85-8.87,2.6l-.2.65c-.85.65-1.91.57-2.2,2-2.52.65-1.26,1-2.8,2.19-4.23,2.77-4.92,9.44-4.92,14.15l.2,2.89c0,.49-.65,1.18-.65,2C702.78,228.53,704.78,229.87,705,231.9Z"/><path class="cls-1" d="M231.45,67.2c-1.31-1.85-.68-3.35.14-5,.32-.64.53-1.35.84-2.17-3.26,2.84-3.73,6.14-2.35,10C231.89,69.62,232.25,68.32,231.45,67.2Z"/><path class="cls-1" d="M234.92,77.86l2.58.77c-.35.32-.93.6-1,1-.26,1.49-.38,3-.49,4.52a12.79,12.79,0,0,0,.13,1.85l.57.26c.38-1.42.92-3,1.42-4.39s.92-3,2.9-3.91c-.4,1.61-1.31,3.26-.85,3.86A6,6,0,0,1,241.46,85c.16,1.24,1.36,1,1.81.24a20.24,20.24,0,0,0,2-4.7,46.56,46.56,0,0,0,.89-5.43l.62.06,0,2.71a86,86,0,0,0,1.77-10.65c.22-1.91.24-3.86.52-5.76.07-.48.83-.86,1.27-1.29l.57.35c-.4,3.45-.79,6.9-1.19,10.35l.64.16,2.16-5.48.78.51c0-1,.05-1.9.07-2.8,1.77.3,1.7-1,2.13-2.15a37,37,0,0,1,2.66-4.95c.19-.62.39-1.24.59-1.85,0-.47.08-1,.09-1.1l-2.64-.75c-.61,1.41-1.23,2.88-1.9,4.46-1-.84-.87-1.49.62-5.13l-7,3.28-2.81-1.84,1.82-2.82-.28-.2-1.29,1.06-1.92-1.81,2-2-1.71.18,1-1.09c-1.66.81-4.11-.5-5,2l1.06.38c.4,3,.76,5.66,1.14,8.42l1.62-.71a20.61,20.61,0,0,1-2.12,13.58c-.11-1.91-.29-2.13-.4-3.84-.3,1.89-.52,2.3-.82,4.2l-.58,0c-.29-1.2.12-1.5-.19-2.72-.3.19-1.36-.56-1.73-.33-.78-2.26-1.51-4.42-2.29-6.7l2.62-.86c.2,2.31.8,3.28,1,5.67.54-1.09.67-.77,1.22-1.88,0,.08,1.73.22,2.11.77a8.19,8.19,0,0,0-.25-4c-.39-2-2.06-3.79-1.47-6.14.09-.34-.27-.78-.55-1.51-.16,1.89-.28,3.38-.44,5.37l-2.4-2.19L237.9,53l-2.61.44.82-1.91c-1.81,1.28-2.67,3.63-1.64,4.14,2.31,1.15.82,2.37.44,3.64A12.34,12.34,0,0,0,234,63c.1,2.82.52,5.62.74,7.7l-1.42-.34C231.61,73.47,234.32,75.64,234.92,77.86Zm10.56-11,.67,0A23.5,23.5,0,0,1,244,78.52Q244.72,72.7,245.48,66.88Zm-3,7.07.38.44-5.37,4.22C237.84,75.61,240.35,75,242.51,74Z"/><path class="cls-1" d="M233.31,70.31h0l0-.09Z"/><path class="cls-1" d="M287.6,73.39c.23.93,1.14,1.71,1.73,2.56l.28-.15c.06-.5.37-1.19.15-1.47-2.29-2.94-1.8-6.38-2-9.74A6.63,6.63,0,0,0,284.47,59C285.55,64.07,286.49,68.75,287.6,73.39Z"/><path class="cls-1" d="M294.32,45c-.17.18-.71.49-.69.76.15,2.09,1.29,4.44,3,4.55,2.74.16,2.68,2.19,3.59,3.58a12.71,12.71,0,0,1,1,2.72c.26-5.19-3.17-8.48-5-12.46-.2.11-.41.21-.62.31l2.19,3.76-.37.24Z"/><path class="cls-1" d="M261.72,59.81c.29.12,1.14-1.09,1.68-1.74a1.11,1.11,0,0,0,.16-.87c-.8-2.65,1-4.4,2.19-6.34a12.67,12.67,0,0,1,1.3-1.55l-1.93-.94c-1.08,2-2.36,4.43-3.65,6.83l-.27,1.93C260.4,58.22,260.42,59.31,261.72,59.81Z"/><path class="cls-1" d="M261,63.18c-3.85,1.37-4.17,1.33-4.52,4.62a93.75,93.75,0,0,0,0,10.47c0-1.24.81-2.66.67-3.87-.21-1.7-.26-2.69,1.25-3.42-.08-1.42-.52-2.94-.14-4.21S259.85,64.63,261,63.18Z"/><path class="cls-1" d="M312.6,26.18l2.34-1.38-.52-.19c.71-2,1.42-4.05,2.05-5.83C312.28,19.48,313,23,312.6,26.18Z"/><path class="cls-1" d="M289.73,61.45l-2.84-7.65C286.37,58.45,287,60.11,289.73,61.45Z"/><path class="cls-1" d="M276.68,55.15l-.84,6.1C277.92,59.55,278,59.32,276.68,55.15Z"/><path class="cls-1" d="M271,46.59l-.39,7.91C272.62,52.44,272.62,52.14,271,46.59Z"/><path class="cls-1" d="M285.15,44.82l-.39,7.92C286.76,50.68,286.76,50.37,285.15,44.82Z"/><path class="cls-1" d="M466.53,43.16l-1.74,4.22C466.51,46.58,466.57,46.41,466.53,43.16Z"/><path class="cls-1" d="M462.1,43l0,2.08C462.82,44.26,462.82,44.18,462.1,43Z"/><path class="cls-1" d="M460.79,41.85l-2.2,2.42C460.83,43.85,460.91,43.75,460.79,41.85Z"/><path class="cls-1" d="M457.13,41.33c-.38.81-.77,1.63-1.15,2.45C457.13,43.32,457.17,43.22,457.13,41.33Z"/><path class="cls-1" d="M298,38.53l-.84,6.1C299.26,42.93,299.28,42.7,298,38.53Z"/><path class="cls-1" d="M291,50.39c-.74-2.26-1.49-4.52-2.23-6.77l-.62.19c.8,2.25,1.61,4.51,2.41,6.77Z"/><path class="cls-1" d="M302.8,43.86q-1.12-3.39-2.24-6.77l-.62.19c.81,2.26,1.61,4.51,2.41,6.77Z"/><path class="cls-1" d="M254.92,46.4l-.54-.92-5.6,4.05c.22.42.44.84.67,1.26Z"/><path class="cls-1" d="M309,40.14l-3.66-5.81-.84.45,3.9,5.73Z"/><path class="cls-1" d="M250.68,82.67l.45.13,1.81-7.69-.79-.19Z"/><path class="cls-1" d="M269.5,47.67l-.79-.19-1.47,7.74.44.14C268.29,52.8,268.89,50.23,269.5,47.67Z"/><path class="cls-1" d="M256.29,79.44c-2.42,0-1.23,2.06-2.08,3l2.46.45C256.54,81.75,256.42,80.6,256.29,79.44Z"/><path class="cls-1" d="M291.62,57.17l-.56.09,1.08,6.44.78-.07Q292.27,60.4,291.62,57.17Z"/><path class="cls-1" d="M277.93,51.8l1.77,4.31C280.11,54.3,280.34,52.57,277.93,51.8Z"/><path class="cls-1" d="M254.39,84.53c-1.4,1.48-1.36,2.79-.28,4.14,0-.1,0-.15,0-.15C254.83,87.29,255.43,86.05,254.39,84.53Z"/><path class="cls-1" d="M274,53.7c-.07,1.21-.14,2.45-.25,4.26C276,55.17,275.94,54.88,274,53.7Z"/><path class="cls-1" d="M391.61,17.11h0C391.7,17.18,391.69,17.16,391.61,17.11Z"/><path class="cls-1" d="M471.4,62.84c.39-.22.76-.46,1.14-.69-2.94-.29-2.94-.34-2.39-3.69a1,1,0,0,0,0-.71c-.21,1.45-2.27,2.45-1.11,4.34a13.51,13.51,0,0,1-2.29,1.5c.69-.22-.31,2.34,1.4,1l0,0h.06v0Z"/><path class="cls-1" d="M466.76,63.59a.71.71,0,0,0-.17.09Z"/><path class="cls-1" d="M429.19,35.73a14.86,14.86,0,0,0-.09-2.66c-.35.11-.87.07-1,.35-.73,1.22-1.37,2.54-1.92,3.6a14.57,14.57,0,0,0,2-.48C428.51,36.37,429.15,36,429.19,35.73Z"/><path class="cls-1" d="M390.81,51.88c.65-.34,1-1.24,1.44-1.81a25.78,25.78,0,0,0-3.26-.23,1.49,1.49,0,0,0-1.08.87c-.11.36.22,1.22.46,1.26A4.19,4.19,0,0,0,390.81,51.88Z"/><path class="cls-1" d="M443.94,60.21l-3.72,5.87A5,5,0,0,0,443.94,60.21Z"/><path class="cls-1" d="M443.94,60.21l.07-.1h-.07v0A.09.09,0,0,1,443.94,60.21Z"/><path class="cls-1" d="M478.54,45l-2.32,6.09C477.57,50.36,478.54,47.52,478.54,45Z"/><path class="cls-1" d="M478.54,45v0l0-.11Z"/><path class="cls-1" d="M475.93,47.1v0l0-.11Z"/><path class="cls-1" d="M475.93,47.15l-2.32,6.09C475,52.5,475.94,49.66,475.93,47.15Z"/><path class="cls-1" d="M437.5,62.66c.61-.17,1.53-.15,1.76-.53a24.61,24.61,0,0,0,1.56-3.78c0-.11-.18-.42-.34-.49a.61.61,0,0,0-.56.14c-.49.83-.87,1.74-1.42,2.53a4.28,4.28,0,0,1-1.17.9C437.39,61.84,437.44,62.25,437.5,62.66Z"/><path class="cls-1" d="M437.26,61.47l.07,0h0Z"/><path class="cls-1" d="M470.94,74.63l.06.06v-.06Z"/><path class="cls-1" d="M386.31,62.78a5.7,5.7,0,0,0,.57,2.51c.12.24,1,.13,1.59.07.09,0,.2-.49.2-.76s-.23-.29-.19-.25l-1.18.11c.26-.37.55-.72.79-1.1.12-.21.29-.49.24-.68s-.41-.57-.55-.54C387.25,62.29,386.31,62.56,386.31,62.78Z"/><path class="cls-1" d="M394.25,54.44a22.14,22.14,0,0,0,2.83-1.33,4.64,4.64,0,0,0,1-1c-.42-.09-.93-.37-1.25-.23-1.29.58-2.53,1.28-3.79,1.94l.2.58C393.56,54.39,394,54.56,394.25,54.44Z"/><path class="cls-1" d="M443.94,60.11c.25-1.13.55-2.25.7-3.39,0-.24-.44-.55-.69-.83-.42.66-.85,1.31-1.27,2C444,58.06,441.91,60.3,443.94,60.11Z"/><path class="cls-1" d="M463.71,74.21c-.92.1-1.83.25-2.78.39.3.52.63,1.52.93,1.52a7,7,0,0,0,2.49-.77c.11,0,0-.66,0-1C464.28,74.27,463.91,74.19,463.71,74.21Z"/><path class="cls-1" d="M464.94,67.74l0,0,0,0Z"/><path class="cls-1" d="M465.72,66.7a13.19,13.19,0,0,1,1.07-.91c-.73.33-1-1.51-1.94-.43-.26.29-.93.2-1.41.29l1.48,2A9.73,9.73,0,0,1,465.72,66.7Z"/><path class="cls-1" d="M468,74a6.13,6.13,0,0,0,1-.79c.15-.2.11-.54.15-.82a4.2,4.2,0,0,0-.93-.06c-.82.15-1.64.36-2.38.53C466.08,74.26,468,72.05,468,74Z"/><path class="cls-1" d="M387.36,56.65l2.34-1.86c-.95-1.59-1.66,0-2.35.3S385.84,56.15,387.36,56.65Z"/><path class="cls-1" d="M426.16,59.19l.95.81,1.22-3.19C426.24,56.08,428.15,59.52,426.16,59.19Z"/><path class="cls-1" d="M427.58,54l.9.86c.49-1.07,1-2.14,1.4-3.11C427.83,50.86,429.55,54.4,427.58,54Z"/><path class="cls-1" d="M433.15,37.33c-1.79-1.32-1,2.53-2.78,1.63l.66,1Z"/><path class="cls-1" d="M436.49,37.51c-1.78-1.32-1,2.54-2.77,1.63l.66,1.06Z"/><path class="cls-1" d="M451.27,59.31c.06-.21-.32-.58-.57-.78-.07-.05-.63.29-.62.43.06.89.2,1.78.32,2.68A22.6,22.6,0,0,0,451.27,59.31Z"/><path class="cls-1" d="M450.41,61.73v-.09l-.06.14Z"/><path class="cls-1" d="M449.69,56.61c.06-.2-.32-.58-.57-.78-.07,0-.63.29-.62.43.05.9.2,1.79.32,2.68A21.77,21.77,0,0,0,449.69,56.61Z"/><path class="cls-1" d="M448.83,59v-.1l-.06.14Z"/><path class="cls-1" d="M446.62,52c.06-.21-.32-.58-.57-.78-.07,0-.63.29-.62.43.05.9.2,1.79.32,2.68A21.77,21.77,0,0,0,446.62,52Z"/><path class="cls-1" d="M445.76,54.38v-.09l-.06.14Z"/><path class="cls-1" d="M452.11,55.68c.06-.2-.32-.58-.58-.78-.06,0-.62.29-.61.43.05.9.2,1.79.32,2.68A21.77,21.77,0,0,0,452.11,55.68Z"/><path class="cls-1" d="M451.25,58.11V58l-.06.14Z"/><path class="cls-1" d="M472,48.48l0-.1a.78.78,0,0,0-.05.14Z"/><path class="cls-1" d="M472.81,46.05c.06-.2-.32-.58-.58-.78-.06-.05-.63.29-.62.43.06.9.2,1.79.32,2.68A21.83,21.83,0,0,0,472.81,46.05Z"/><path class="cls-1" d="M470.58,46.05c.05-.2-.33-.58-.58-.78-.06-.05-.63.29-.62.43.06.9.2,1.79.32,2.68A21.83,21.83,0,0,0,470.58,46.05Z"/><path class="cls-1" d="M469.71,48.48v-.1l-.06.14Z"/><path class="cls-1" d="M470.29,52.13v-.07a1,1,0,0,1,0,.1Z"/><path class="cls-1" d="M470.05,50.15c0,.64.15,1.28.23,1.91a12.85,12.85,0,0,0,.63-1.66c0-.15-.23-.42-.42-.56S470,50.05,470.05,50.15Z"/><path class="cls-1" d="M468.4,47.66c0-.15-.23-.42-.42-.57s-.45.21-.44.31c0,.64.14,1.28.23,1.92A17.63,17.63,0,0,0,468.4,47.66Z"/><path class="cls-1" d="M467.78,49.39v-.07l0,.1Z"/><path class="cls-1" d="M455.27,55a1.75,1.75,0,0,0-.53-1.59c-.12-.09-1.17.43-1.14.65.15,1.42.46,2.83.73,4.25A30.28,30.28,0,0,0,455.27,55Z"/><path class="cls-1" d="M454.37,58.51a1,1,0,0,1,0-.17l-.09.23Z"/><path class="cls-1" d="M472.73,59.86l0-.15a2,2,0,0,0-.1.21Z"/><path class="cls-1" d="M472,55.44c.15,1.43.47,2.84.74,4.27a32.13,32.13,0,0,0,1.54-3.65c.09-.33-.64-.94-1.13-1.27C473,54.7,471.93,55.22,472,55.44Z"/><path class="cls-1" d="M470.94,74.63l-.05.18.11-.12Z"/><path class="cls-1" d="M469.65,76.08l-.67.72,1.08.6c.28-.86.55-1.72.83-2.59Z"/><path class="cls-1" d="M477.48,54.36l2.21-2.88-.4-.31L477,54Z"/><path class="cls-1" d="M482.1,46.06l-.51-.08c-.23,1.19-.47,2.37-.71,3.56l.61.1C481.7,48.45,481.9,47.26,482.1,46.06Z"/><path class="cls-1" d="M375.79,28.61a15.43,15.43,0,0,1,2.07.37c.83.2,2.16-.8,2.52.91a2.79,2.79,0,0,0,1.66,0c.3-.11.46-.76.58-1.19a12,12,0,0,0,.3-1.71c0-.27.07-.74-.05-.8-.3-.15-.95-.24-1-.12-1.4,2.61-3.91,1.05-6,1.73-.21.07-.85-1-1.06-1a4.74,4.74,0,0,0,.06,1A1.07,1.07,0,0,0,375.79,28.61Z"/><path class="cls-1" d="M474.24,68.8v0l0,0Z"/><path class="cls-1" d="M464.83,67.73h0Z"/><path class="cls-1" d="M450.27,61.78v0s0,0,.07-.08Z"/><path class="cls-1" d="M603.47,152.83l0,0a1.31,1.31,0,0,1-.2-.3,1.27,1.27,0,0,1-.86-.6l-.07-.07a1.19,1.19,0,0,1-.36-.57l-2-1.12a1.26,1.26,0,0,1-1.18-.35l-.11-.12,0,0a.25.25,0,0,1-.12,0,4.88,4.88,0,0,1-.89-.36,1.14,1.14,0,0,1-.61-.72l-1.19-.64a1.07,1.07,0,0,1-.72,0l-.45-.17a1.3,1.3,0,0,1-.56-.4,1.16,1.16,0,0,1-1-.4,3.75,3.75,0,0,1-.38-.51s0-.08-.06-.13a3.41,3.41,0,0,0-.33-.17,1.54,1.54,0,0,1-.56,0,7.72,7.72,0,0,1-.85-.29,1.66,1.66,0,0,1-.5-.3,1.17,1.17,0,0,1-.67-.39,3.73,3.73,0,0,1-.39-.5v0l-1-.51h0a1.25,1.25,0,0,1-.77-.27.58.58,0,0,1-.19,0h-.23a1.22,1.22,0,0,1-1.08-.57,1.37,1.37,0,0,1-.57-.34l0-.06a1.08,1.08,0,0,1-.23-.34l-1.17-.57a1.12,1.12,0,0,1-.42.06,2.46,2.46,0,0,1-.92-.24s0,0-.07-.06a1.17,1.17,0,0,1-1-.24,1.12,1.12,0,0,1-.45-.72l-.08-.07-.1-.07a1.21,1.21,0,0,1-.61-.26l-.06,0a1.21,1.21,0,0,1-1.11-.65l-.08,0a1.17,1.17,0,0,1-1-.49.94.94,0,0,1-.16,0,1.26,1.26,0,0,1-.67-.2,1.23,1.23,0,0,1-.92-.37l-.05-.06a1.41,1.41,0,0,1-.18-.27,1,1,0,0,1-.33-.23l-1.53-.69c-.16,0-.32,0-.49-.05a1.1,1.1,0,0,1-.81-.53l-.39-.17a1.38,1.38,0,0,1-1-.17,1,1,0,0,1-.24.1,1.25,1.25,0,0,1-1.79,0l-.18-.17a1.17,1.17,0,0,1-.34-.74,1.51,1.51,0,0,1-.42-.35,1.57,1.57,0,0,1-.49-.33l-.05-.05a1.28,1.28,0,0,1-.14-.21l-.55-.23a1.16,1.16,0,0,1-1.27.33,2.13,2.13,0,0,1-.88-.52,1.29,1.29,0,0,1-.35-.52h-.05a1.28,1.28,0,0,1-.76-.25,1.42,1.42,0,0,1-.78.31,1.25,1.25,0,0,1-1-.49l0,0a.73.73,0,0,1-.05-.09,1.56,1.56,0,0,1-.16-.28,1.43,1.43,0,0,1-.11-.39s0-.06,0-.09v-.05l0,.05c0-.06,0-.12,0-.18l-.34-.14a1.12,1.12,0,0,1-.77.21,2.36,2.36,0,0,1-.59-.11,1.26,1.26,0,0,1-.63-.51,1.09,1.09,0,0,1-.26.05,1.24,1.24,0,0,1-1.25-1c-1.3-.5-2.6-1-3.93-1.47a1.2,1.2,0,0,1-.78.27h-.12a1.21,1.21,0,0,1-1.06-.56,1.81,1.81,0,0,1-.38-.05,1.21,1.21,0,0,0-.45-.12,1.21,1.21,0,0,1-.89-.85l-.56-.2a1.32,1.32,0,0,1-.54-.08,3.72,3.72,0,0,1-.67-.31s0,0,0,0l-.09,0a1.34,1.34,0,0,1-1.74.35l-.08-.09a1.48,1.48,0,0,1-1-1.24l-.77-.25a1.15,1.15,0,0,1-.72.18,2.28,2.28,0,0,1-.59-.11,1.87,1.87,0,0,1-.28-.16,1.1,1.1,0,0,1-1.06-.36,2.64,2.64,0,0,0-.35-.4c0-.06-.07-.13-.12-.19-.78-.26-1.54-.52-2.33-.77a1.34,1.34,0,0,1-1.18-.29c-.14-.11-1.18-.39-1.56-.57-1.47-.46-2.91-.94-4.4-1.38l-.76.27a1.34,1.34,0,0,1-1.33-.35l-.41-.49a1.4,1.4,0,0,1-1.53-.61l-.08,0-4.81-.92a1.41,1.41,0,0,1-.29.25,1.38,1.38,0,0,1-1.82-.44,1.26,1.26,0,0,1-.57-.37,4.12,4.12,0,0,1-.41-.1l-.29-.07a1.36,1.36,0,0,1-1.92-.32,1.41,1.41,0,0,1-1.69-.31h-.09a3.09,3.09,0,0,1-.51-.29,33,33,0,0,1-4.7-1.1c-1.76-.59-5.36-1.65-6.5-2-1.52-.44-5.34-1.8-6.73-1.2a1.5,1.5,0,0,1-2.06-1.23l-1.15-.25a2.27,2.27,0,0,1-2.19.34c-.85-.24-1.43-1-2.26-1.25l-.52-.11c-.86,0-1.47.65-2.44.24a1.91,1.91,0,0,1-.84-.67,1.93,1.93,0,0,1-1.64-.3,1.18,1.18,0,0,1-.24-.26l-.88-.16c-.37.08-.77.26-1.1.32a1.37,1.37,0,0,1-1.53-.82l-1.95-.36c.95-3,2.72-5.79,2.12-9.47-.51-3.2.81-6.71,1.39-10.07.2-1.15.86-2.27.86-3.39,0-.94,1.66-2.48-.68-2.9.36-2.05-1.06-3.12.43-5.17.79-1.1,1.08-2.54,2-3.54,1.72-1.79,3.67-3.33,3.43-6.43-.12-1.46,1.12-3.23,2.18-4.51.93-1.12,1.59-2,1.23-3.52a24.08,24.08,0,0,1-.3-3.91c-.1-1.74-.67-2.12-2.36-1.57a.61.61,0,0,1-.42-.1,2.36,2.36,0,0,1,.07-1.17c.56-.92,1.13-.16,1.79-1.07a2.91,2.91,0,0,0,.05.74c.15.81.51-.63.63.17a9.7,9.7,0,0,0,1.33-2.52c.11-.47-.56-1.17-1-1.67-.13-.16-.67-.06-1,0a3.91,3.91,0,0,0-.88.55c.18-.57.21-1.46.58-1.63,1.14-.54,1.7-1.17,1.07-2.38-.15-.29-.54-.44-.83-.65a3.66,3.66,0,0,1-.41.87c-.57.69-1.19,1.34-1.79,2l-.65-1.46-.46.07c-.12,1.11-.26,2.21-.31,3.32,0,.2.46.59.71.6,2.19,0,1.67,1,.67,2s-2,1.69-3,2.52l-.09,0-2.81,3.35c0-1.86,0-3.14,0-4.75l-4.7,6.86-.33-.16a7.41,7.41,0,0,0,.43-1.49,3.33,3.33,0,0,0-.29-1.1,7.79,7.79,0,0,0-.64.78c-.47.77-.91,1.56-1.37,2.34h0l0,0,0,0,0,0,0,0h.14l0,0,1.21.4c1.6,0,3.28.21,2.74-2.34-.05-.24.5-.62,1-1.2-.08,1.17.15,2.1-.22,2.54A20.79,20.79,0,0,1,478,63.08c-.25-.43-.5-.85-.76-1.27l-2,1.78,0,0c-.52,0-1-.11-1.55-.09-.69,0-1.38.1-2.06.16.49,2,2,1.15,3.2,1.09-.48,1.2-.95,2.4-1.42,3.59l.74,0a1.35,1.35,0,0,1,.1.54,2.54,2.54,0,0,0-.13,1c.93-1.26,1.8-2.58,3.58-2.06L475,65a3.91,3.91,0,0,0,1.53.29c1.75-.37,3.47-.88,5.54-1.42a12.88,12.88,0,0,1-1.28,1.83c-2.41-1.1-2.75.55-3.13,2.19h0v.05c.58.8,1.74,1.83,1.55,2.34a14.31,14.31,0,0,1-2.44,3.36c-.22-.11-.58-.24-.57-.32.09-.65.25-1.28.39-1.92a6,6,0,0,0-2.11.7c-.29.24-.08,1.09-.07,1.69l2.34-.13v0c-.13,2.06-1.66,2.54-3.25,3l.05,0-.07,0v0l-.09.05.08,0h0c-.47,1.19-.94,2.38-1.4,3.57l-.74-.2.22-1.41-.35-.08c-.21.74-.42,1.47-.63,2.18l2.61.42-4.77,6c-.18-3,.48-3.47-3.06-2.42h0c-1,1.18-1.59.15-2.15-.43a2.31,2.31,0,0,1-.55-1.45A12.38,12.38,0,0,1,463,79.6a6.4,6.4,0,0,1,1-1.7,13.26,13.26,0,0,1-.82-2.64c-.13-1.41-.39-3,.11-4.23a11.57,11.57,0,0,1,2.92-3.52c.45-.42,1.27-.45,1.94-.65a23,23,0,0,1-2.35-.36c-.11,0-.08-.64-.12-1-.65.64-1.89.79-1.54,2.28.07.3-1.27,1-2,1.4a5.18,5.18,0,0,1-1.39.65c-.22.05-.71-.2-.75-.39a31.53,31.53,0,0,1-.88-5.06,14.85,14.85,0,0,1,.67-3.92c0-.15.62-.12.91-.26A3.4,3.4,0,0,0,462.24,59c-.91,1-3.56-.54-3.54,1.95L457.24,59c-.3,1.34-.55,2.5-.81,3.66l2.25-1.53c-.31,1.52-.63,3-.94,4.56l-.59-.12.34-2.12-1.68.38-.21-1.06c-.87,1.08-1.32.47-1.63-.44a11.18,11.18,0,0,1-.32-1.39c-.77,1,.14,3.35-2.36,3l.27-2.68-.56-.09c-.18.77-.35,1.54-.53,2.31l-1.36-1.37h0l0,0v0c-.66.51-1.59.89-1.93,1.57-1.7,3.41-1.64,3.43-4.69,5.83-1.26-1.45-.25-2.73.22-4.08.21-.61.46-1.53.17-1.92s-1.26-.45-1.92-.67-1.22-.43-1.83-.65l1.51-1.62-.07.05c-1-1.14.68-2.26.33-3.22l-2.8,1.07c.63.68-1.78,1.07-.19,2a3.39,3.39,0,0,1-.72,2.4c-.63.55-1.79.51-2.71.75a2,2,0,0,0-.61.36c-.38.26-.76.55-1.13.83a8.6,8.6,0,0,1,.39-1.61c.49-1.13,1.07-2.22,1.62-3.33l-.54-.3-4.86,8.12-.45-.16.82-5.11-2.62,1c.05-3.09,0-6.28.23-9.46,0-.58,1-1.08,1.43-1.67,1.28-1.62,1.56-3.23-.11-4.82-.83-.8-.8-1.24.36-1.93.95-.56,1.44-1.89,2.13-2.87l-1.94-1.12c.17-.41.24-.93.54-1.19,1.79-1.61.4-1.56-.81-1.63a5.68,5.68,0,0,0-.54,1.73c0,.36.51.72.8,1.08l-.11-.06c-1.14,1-1.94.62-3.35-1.12l2.77-1.58-1.64-.07c.2-.51.4-1,.61-1.53a8.86,8.86,0,0,0,.85-2.92c-.7,1.18-1.41,2.35-2.12,3.52l-.31-.1c.17-1.71.34-3.41.51-5.22-.53.06-1.22,1.65-2.05.21-.19.82-.38,1.64-.62,2.63-1.55.16-1.75-1.45-1.11-2.4,1.51-2.25-1-.09-.69-1,1.41-.68-.39-1.58-.06-2.45a12.14,12.14,0,0,0,.93-3.2L418.71,30l-.43-.11a17.63,17.63,0,0,1,1.18-2.19,13.74,13.74,0,0,1,1.75-1.83c1.32-1.27,1.11-2.42-.76-2.85-1.38-.32-1.67-.94-1.83-2.24A27.46,27.46,0,0,0,417.13,16l-1.19,2.13-.33-.13c.23-.89.52-1.78.67-2.68a10.73,10.73,0,0,0,0-1.88l-1.66.16-3.32.3c.84-.94,1.56-1.71,2.21-2.53.18-.23.15-.63.21-1-.28,0-.64-.23-.81-.12-1.49,1-.65-.56-.71-.59-1.64-.79-3.34-1.45-5-2.13a12.61,12.61,0,0,0-.65,1.74c0,.14.4.37.57.6,1.44,2,2.89,4.07,4.28,6.14a4.18,4.18,0,0,1,.49,1.66,12.24,12.24,0,0,1-.09,2.07,27.36,27.36,0,0,1-.92,4.08c-3.44,4-7.17,3.55-10.09,2.63-.84-.27-1.06-1.6-.21-1.86,1.81-.55,4.44-2.07,4.75-2.63,1.39-2.45,1.36-4.05-.49-6.28-.73-.89-2.27-.71-3.5-1a3.85,3.85,0,0,0-.81-1c-1.7-1-2.07-4.35-.31-4.92s-.12-1.37.42-1.84l-1.47.44c-1.28.39-2.61,1.21-3.83,1.06-2.64-.32-3.38,0-4,2.64l-.1,0-1,0v.53l-.52.25c-1.45,2.86-.81,4,2.31,4.48,1.3.19.78-.18,2,.18.19-.17.41-.46.6-.63l.37.25c1.84-.44,2.68,1.18,4,1.55-1.15,1.76-2,4-2.61,4.74-.49.58.07,2.06.17,3.2-1.32.57-3.54.34-3.48,2.76,0,.37,1.06.71,1.65,1.07-1.55.69-3.12,1.61-4.53,2.21-2.23,1-1.37,2.91-2.51,3.95a12.28,12.28,0,0,0-1.09,1.18c-.68.81-1.39,1.65.12,2.36-.56-1.79,1.6-.31,1.64-1.38,0,.46,0,.92,0,1.37s.14,1.2.22,1.91L387.2,41c-.95.35-.95.35-1.3-1.34a19.25,19.25,0,0,0-2.08,2A.89.89,0,0,0,384,43c1.32.83,1.75,3.15,4.17,2.3.54-.19,1.52,1.25,2.43,1.65a10.58,10.58,0,0,0,2.68.48l-.69.78.28.49a9.55,9.55,0,0,0,1.57-1c.21-.19.16-.68.21-1,.48-3.29,2.16-3.95,5.27-1.81a3.59,3.59,0,0,0-1.21.35,4.72,4.72,0,0,0-.76,1.09c.42,0,.91.18,1.25,0,1.3-.63,2.55-1.37,3.72-2,.24.72.45,1.36.65,2q2.37-.9,4.77-1.85c-.25-.8-.15-.49-.4-1.3l-3.27.72a2.29,2.29,0,0,1,1.49-1.55,10.75,10.75,0,0,1,2.7.13c-.05.14-.09.28-.13.41l2-.41c-.55,1.3-1,2.45-1.5,3.59l-.46-.36h-4.37c-1.46,1.12-2.94,2.28-4.41,3.43l.34.65,5.27-1.22-.05,0,.05,0h0a15.59,15.59,0,0,0-1.55,1.49,3.56,3.56,0,0,0-.38,1.22,4.11,4.11,0,0,0,1.42-.34,42.37,42.37,0,0,1,5.08-3.51c-2.75,2.22-3.11,6.29-6.36,8.06l1.2-1.59-4,1,.07,0-.09,0h0l0,0h0l0,0-.08,0,.33-2a9.64,9.64,0,0,0-1.59,1.12,20.37,20.37,0,0,0-1.62,2.21L401,55c-1.31,1.35-2.61,2.7-3.92,4l.32.48c1-.41,2-.86,3-1.19a5.4,5.4,0,0,1,1.51-.08c1.4-1.4,4.19-.48,4.94-3l.63.24-4.36,6.61-.47-.28L404.1,59l-2-.58c1.15,4-1.77.32-2.26,1.21.52.64,1,1.29,1.57,1.93l-1.68.25L397,60.27c0,1.15,0,1.9,0,2.65l-.07,0c.14,2.77-2.56,2.24-3.91,3.35l2.28,1.35-3.91.43c2.68,2.2,5,4,7.28,6a23.64,23.64,0,0,1,2,2.24c.24.26.58.7.81.66a1.52,1.52,0,0,0,1-.72c.37-.87,1-1.9.79-2.69-.58-2.45,1.76-2.28,2.86-3.24l-2,3.09c1.38.3,2.53.78,2.71-1.4,0-.38,1.2-1,1.73-.92.69.13,1.28.87,1.91,1.34a9.53,9.53,0,0,1-2,2.06,3.63,3.63,0,0,1-2.17-.1c-2.4-.5-1.79,1.38-2.14,2.67,1.41-3.27,3.67-1.61,6.32-1a12.27,12.27,0,0,0-3.36.1,3.23,3.23,0,0,0-1.7,1.9l3.32-.58c-2.25,1.35-4.22,2.4-6,3.71-.33.24-.21,1.85.22,2.21,1.23,1,.72,3.54,3.07,3.57a6.54,6.54,0,0,1,.2,1.18V88a.3.3,0,0,0,0,.08c-.49.18-1.3.29-1.36.56-.41,1.8-.65,3.64-.94,5.47.19,0,1.64,1.52,1.83,1.56.58-2.05-.42-5,.15-7.05.64,1.26,0,2.52.37,3,1.05,1.45.48,2.56.05,3.74-.23.63-.95,1.08-1.46,1.59s-1.08.75-1.13,1.18a12.14,12.14,0,0,0,1,3.77c.5.49,1.83.24,2.36.71.49-.75.21-3.3.64-4.07.78-1.38,1.49-2.8,2.15-4.05a3.83,3.83,0,0,1-1.07,4.41,3.32,3.32,0,0,0-1,2,3.93,3.93,0,0,1-.09.72c-2.17-.11-3.16,0-5.34-.13-.05.63-1.68,1.06-2.49,1-1.35-.13-1.45.15-2.77,0-.43.65-2.6.58-3.35-.11-.2-.19-.38-.41-.57-.61a57.82,57.82,0,0,0-10.05-.29c-2.32.16-4-1.16-5.62.4-1,1-3.08,1.82-3.81-.15l-.49-.39c-4.72-.22-9.37-.3-14.19,1.39-1.11.39-2-.24-1.81-1.15-.35,0-.29.14-.64.15.09.39-.2.29-.59.65a6.51,6.51,0,0,1-4.6,1.61c-1.54,0-1-.44-1.25-1.62-1.14.05-1.59-.91-2.72-.86a10.38,10.38,0,0,0-2.64,1.78c-.7.67-1.61.09-2.06-.54a1.4,1.4,0,0,0-1.29-.59c-1.05.11-2.24-.22-3.3-.15-1.33.67-.63,1.69-1.65,1.33a18,18,0,0,0-5.78-.83c-2.33.17-4.65.36-7,.55a8.37,8.37,0,0,0-1.69,1.14,1.45,1.45,0,0,1-2.33-.79c-2.67.25-5.32.51-8,.79a6.93,6.93,0,0,1,.17-2.22c.05-.13.34-1.73.39-1.82,1.28-2.07,1.18-2.67,1.26-4.92,0-.57.29-2.35.92-2.57.84-.28,2.43.95,3.35.87,1.43-.11,3.15-.69,2.84-2.16a8.41,8.41,0,0,1,.88-5.28c1.14-2.7.43-5.85,2.1-8.4a13.9,13.9,0,0,1,1.62-2.11c.86-.9,1.82-1.7,3-2.74a4.09,4.09,0,0,1,2.42,2.37,2.89,2.89,0,0,0,1.05-2.37l3,1a3.14,3.14,0,0,1,0-2.83l2.38,1.74,6.09-9,.53.91c.51-1.29,1.37-2.59,1.49-3.95a25.39,25.39,0,0,0-1.44-11.1c-.79-.68-.05-1,1.23-2.26-1.6-1.88-3.53-4.32-5.37-6.63-.41-.52-1.3-1.2-.73-2.29a2.62,2.62,0,0,1,1.89-1.45c2.62-.56,5.6-2.77,5.39-5.44-1-2.21-4.43-4.08-5.85-5.74a10,10,0,0,1-2.05-4.7c-.46-1.75-.88-2.7-2.73-2.52-.38,0-1.34.6-1.65.47-1.61-.62-2.65-1.73-4.27-2.32a6.45,6.45,0,0,0-2,0l.5,2a17.36,17.36,0,0,0-1.69.95c-2.27,1.59-.29,4.32-1.52,6.2l-3.33-1c.09-.24.12-.56.26-.63,2.37-1.24,3.86-2.87,2.78-5.78-.07-.21.26-.54.3-.83.39-2.44,2.63-2.3,4.29-2.91a25.49,25.49,0,0,0-6.9-9.29,41.94,41.94,0,0,0-9.14-4.15A23.85,23.85,0,0,0,302.47.28C300.53.6,299.42.66,298,1a13.68,13.68,0,0,0-4.7,1.49c-3.89,2.4-4.84,4-7.38,10.38a12.63,12.63,0,0,0,.22,5.46c.56,2,4.92,5,6.86,4.33a7.51,7.51,0,0,0,3.16-2.09c1.81-1.79,4.12-5.56,1-7.3a.21.21,0,0,0-.31.19,7.22,7.22,0,0,1-1,3c-.68,1.24-1.45,1.92-3.12,1.31s-1.79-1.31-1.48-3.14c.43-2.48,3.37-5.24,5.33-6.54,3.33-2.22,6.92-1.88,10.62-1a24.23,24.23,0,0,1,11.59,6.77c1.8,1.82,2.77,1.66,3.07,2.46-.81,2-.95,3.28-1.72,5.3a20.46,20.46,0,0,0-.63,2.36c-.2.86-.35,1.74-.6,2.59-.2.65-.5,1.26-.76,1.89-.17-.48-.33-1-.49-1.45l-.62.07c-.1,1.28-.21,2.56-.34,4.08-1-2-2.67-2.18-3.87-3l-1.13,2.1h0c-2,.92-1,2.52-.55,3.66,1.13,3.14,2.54,6.18,3.84,9.26l-.41.19c-.5-1-1-2.1-1.66-3.44-.1,3,3.06,4.83,2.16,7.95-2.42-1.38-3-2.23-3-4.37a4.92,4.92,0,0,0-4.12-5.2c.44,4.08,2.54,8,.92,12.75L307,43.87c.07,4.73,2.54,13.17,2.62,18.39-.33,0-2.6-3.19-2.94-3.16-.18-1-.36-2-.55-3h-.31c-.32,1.37.72,5.35.41,6.72a11.65,11.65,0,0,1-2.43-4.28c.14-3.14.18-3.14-2.21-5.45.58,3.56,1.46,7,2.37,10.54a1.62,1.62,0,0,0,.53,1c1.66,1,.61,2,.47,3.36L302,64.8c.37-.18.9-.35.9-.53.06-2.25.26-4.57-1.4-6.41l-.75.15,1.2,6.6-1.31-.18v-.06l-.06,0h-.09s0,0,0,.08c-.35.29-.81.56-.9.92-.65,2.72-1.2,5.46-1.86,8.52l-1-4-.21.06c.09,1,.19,2,.28,3l-.46.16-2-3.14a14.39,14.39,0,0,0,1.52,3.8c.58,1.22,1,2.5,1.54,3.76l-.26.1-1.51-3.31a4,4,0,0,1-1,.47c-.52,0-.15,2.1-.68,2.08l-2.65,1.45c-.94-1.09-1.21-5.58-1.24-6.7-.07-3.28-2.79-5.75-2.2-9.27.37-2.18-.42-4.58-.81-6.86a25.73,25.73,0,0,0-1.06-3.35c.11,4.24.18,8.25.35,12.25a32.25,32.25,0,0,0,.59,3.47c.1.66.24,5.35.29,5.91-1.69-.92-3.11-5.65-4.39-6.35l-.37,1.73c-.76-1.39-1.34-2.43-1.91-3.46l-.68.25c.37,1.95,2,8.78,2.45,10.88L279.7,72.5c-.72-2.81-1.35-5.51-2.12-8.18a12.62,12.62,0,0,0-.7-2.65c0,.06-.51.21-.51.28.4,3.21-.47,6.6,1.42,9.62a13,13,0,0,1,0,4.49c-1.82-4-3.38-10.59-1.57-14.42,0-.8.12-1.44.14-2.24-2.11,4.25-6.14,7.65-5.08,13.09l-.55.25-4-5.77-.41,2.73h0l-.74,2.38-1.45-5.67-.32,0,.48,6.77-2-1c1.47,2.09,2,4.12.49,6.57a5.38,5.38,0,0,0-.2,3.73c.32,1.26,1.3,2.35,1.85,3.58a4.87,4.87,0,0,1,.09,1.72l-1.24,3c-1.34-1.87-3.43-4.58-3.8-2.7-.76-.27,0,2.49-.61,2.27a24.38,24.38,0,0,0-2.12,1.83c-2.1.65-3.22-4.07-4.42-6.33-.12-.23-1.81,4.43-2.42,4.46.1-.6.91-6,1.18-7.57-3.11,2.16-4.87,6.1-7.61,8,.94-1.8,1.61-5.73-.75-7.8l-.5,3.39c-.47-.59-.36-.94-1-1.76-.74,3.84.91,7.26.63,9.17-.25,0-2.16-3.06-2.41-3.06-.12-1-.45-1.48-.58-2.51-.18,2.47-.58,4.7.43,6.7s1,4.75,3.75,5.63c.49.16.76,1.21,1,1.9s.88,4.16,1.19,5.77c0,1.19-.26,4.42-.47,7.23-3.22.76-6.39,1.57-9.54,2.39-3.39,3-8.42,3.12-13.21,3.66-2.84,1-4.72,1.93-7.35,2.29a8.46,8.46,0,0,0-2.77,1.59,1.84,1.84,0,0,1-1.82.48,4.23,4.23,0,0,0-1.18-.25c-.61.2-1.2.43-1.81.63a1.09,1.09,0,0,1-.67,1.11c-1.18.57-2.51.87-3.36,1.91a1.36,1.36,0,0,1-1.93,0c-.22-.25-1.66-.38-1.8-.64a14.71,14.71,0,0,1-3,1.11c-1.63.39-3.23.46-4,1.22a4,4,0,0,1-.93.69,4.26,4.26,0,0,1-.79.31,14.56,14.56,0,0,0-1.63.65c-3,2-6.29,3.94-8.88,4a282.77,282.77,0,0,0-27.61,13.63,1.67,1.67,0,0,1,.5.41,1.84,1.84,0,0,1,.4,0,6,6,0,0,0,1.12.15c5-2.32,10.2-4.59,15.59-6.74a46.34,46.34,0,0,1,9.38-4.77,16.78,16.78,0,0,1,3.46-1.26c4.7-1,7.68-1.53,12.08-3.6,3.29-1.56,6.17-2.66,9.64-2.34,7.62-2.28,15.49-4.4,23.54-6.38a10.94,10.94,0,0,0,1.41-1.14,1.94,1.94,0,0,1,2.5-.1l.72.13c3.35-1.52,7.2-3,10.42-3.24,1.67-.12,3.29-.13,4.9-.15q10.19-2.1,20.74-3.87c5.85-1.74,14.87-4.91,20.58-3.09l.74-.1a10.85,10.85,0,0,1,3.64-1.57c1.71-.35,4.07.25,5.94-.1s3.38-1.23,5.19-1.42c5.44-.56,7.63,1.83,13.19-1.63.82-.51,4.51.21,5,1.09-.06-.12,6.71-.5,7.77-.49,4.71,0,9.18-.9,13.88-.64,6-.27,9.94-.91,16-1l2.47.15c.24-.19.58-.79.86-.87.34-.27.61,0,1-.33a1.88,1.88,0,0,1,2.56.67c.16.31,2.39-.1,2.63.08,1.36,0,.71.62,2.08.61a18.49,18.49,0,0,0,2.43-1.06c.79-.4,2.34-.53,2.91,0,3.65-1,9.06-1.06,12.65.6,4.87.09,8.46.81,13.28,1a6,6,0,0,1,2-.57c2.7-.24,6.49.7,9.89,1.15l5.37.32c1.37.07,2.74.17,4.11.29,5.85.42,9.8.6,15.54,1.16.51,0,2.75-.14,3.26-.14.29,0,.69.56.95.69,4.71.48,9.76.66,14.4,1.24,3.52.22,6.71.5,7.55.63a94.77,94.77,0,0,1,11.6,2.16,13.58,13.58,0,0,1,1.49.55q4.23.67,8.42,1.41a1.74,1.74,0,0,1,1.66-.37,44.5,44.5,0,0,0,4.22,1.43q8.13,1.51,16,3.23c1.86.31,3.68.62,5.45,1,3.2.67,6.45,1.57,9.71,2.52,4.59,1.13,9.09,2.34,13.54,3.57.06,0,.11,0,.18,0a1.27,1.27,0,0,1,.84.31,1.72,1.72,0,0,1,.28.08l1.16.32a.69.69,0,0,1,.13,0l.15.05.91.26.25,0h0l.57.05a2,2,0,0,1,.55.15c1.33.24,2.66.45,4,.58a1.76,1.76,0,0,1,.91.35l.21.13a1,1,0,0,1,.72,0l.28.11a1.57,1.57,0,0,1,.91.89,1.19,1.19,0,0,1,.33.34q8.13,2.5,15.86,5.27h.1a1.2,1.2,0,0,1,.88.35l.18.06a.93.93,0,0,1,.33,0l.28.12a1.72,1.72,0,0,1,.32.18l2.57.92a2.26,2.26,0,0,1,.35,0h0a1.35,1.35,0,0,1,.68.23h.06a1.29,1.29,0,0,1,.64.17,1.21,1.21,0,0,1,1,.26,1.16,1.16,0,0,1,.36.41s0,0,.06,0c1.06.4,2.14.79,3.2,1.2a1,1,0,0,1,.18.07l.6.22a1.11,1.11,0,0,1,.25-.05h.29a1.24,1.24,0,0,1,1,.46,1.4,1.4,0,0,1,.5,0l.39,0a1.07,1.07,0,0,1,.67.45l.11,0,.12.06a1.23,1.23,0,0,1,.46.37l.07,0a1.35,1.35,0,0,1,.29,0,1.65,1.65,0,0,1,1.51.85q9.54,3.87,18.36,8.09c.21,0,.41,0,.62,0A1.29,1.29,0,0,1,603.47,152.83ZM389.87,35.6l-.13-.55,4.59-.86C393.59,37.05,391.46,35.48,389.87,35.6Zm4.48-1.48h0a3.32,3.32,0,0,0-.73-1.06,19.23,19.23,0,0,0-2.47-1.2c1.19-.14,1.91,0,2.24-.31a10.09,10.09,0,0,0,1.37-2c.84.88.8,3.54,3.53.85C397.21,32.74,396.29,34,394.35,34.12ZM405,41.73l-.41-.55,2.34-1.61.43.64ZM399.18,64,397,62.94l2.61-1C399.49,62.6,399.33,63.32,399.18,64ZM300.6,65a30.53,30.53,0,0,1,.45,3.52,29.65,29.65,0,0,1-.32,3.75l-.74,0Q300.29,68.63,300.6,65Zm-27.24,2.17c1.9,2.82,1.6,7.67.62,10.2C272.28,76.5,271.51,71.25,273.36,67.18Zm-5.6,3.33c.55,2.18,2.43,4.31,2.86,6.52.08.43-.29,4.63-.22,5.22-1.8-1.81-3.76-8.13-4.06-12.52C266.85,70,267.66,70.15,267.76,70.51ZM264,82.73c.43-2.8.84-5.43,1.25-8l1.2.12c-.06,2.63-.11,5.25-.17,8Zm42.35,17.9c.06.09.07,2.24.07,4.12-.9.11-1.15,0-2.05.11a2.16,2.16,0,0,1-2.29,1.46c-2.33-.57-7.11,1.44-9.22,1.54a24.69,24.69,0,0,1-5.76-.41c-1.88-.26-3.79,1.45-5.75,2-3.61,1-7.46.29-11.21,1.11-4.42,1-8.72,1.82-13.1,3a1.27,1.27,0,0,1-1.41-.5c-2.12.46-4.27.88-6.37,1.36.33-2.46,1.57-5,2.34-7.47.59-.1,1.19-.22,1.78-.3,2.8-.35,5.52,1.8,8.38.25a3.91,3.91,0,0,1,1.69-.3c3.43-.2,4.75-1.86,4.07-5.45,2.87-.45,4-3.75,7.59-3.84s7.21-1.81,10.81-2.8c.56-.15,1.16-.19,1.73-.32,1.65-.37,4-3,4.06-4.37a2.83,2.83,0,0,1,2.57-2.91A6.42,6.42,0,0,1,298,88.09c.65.43.73,1.7,1,2.51l1.43-.63c.79,2.29,1.54,4.49,2.36,6.9l2.44-3.23C307.08,98.19,307.32,96.76,306.32,100.63Zm13.77-32.35c-.36-4.06-.73-8.33-.94-10.77C319.56,59.94,322.69,64,320.09,68.28Zm3.6-5.69c.4,2,.81,3.94,1.21,5.91C323,66.77,323.82,64.6,323.69,62.59Zm1.13,0-1.15-.38c1.13-2,.34-3.74-.61-5.47-1.42-2.57-2.88-5.11-2.11-8.28C322.05,53.21,325.72,57.17,324.82,62.63Zm1.86,1.92c-.17-2.59.09-5.3-.64-7.72s-2.43-4.4-3.51-6.68C326.3,54.22,328,59,326.68,64.55Zm-1.41-21.87c1.28,2.55,2.89,5.57,6.19,6.55-2.45-1.79-3.94-5.71-4.46-8.44,1.4,2.56,4.1,3.56,5.55,6.21-.32-.16,1,2.53.62,2.34.7,1.11-.56,3.35.64,4.52C326.85,51.64,325.19,47.75,325.27,42.68Zm4.62-14.94-1.81,2.83c3.52-.2,4.73.26,5.54,2.24L330.88,34,327,32.56l-.53,2.68c-3.83-.8-3.05-4.48-4.51-6.77C324.29,26.58,328.93,26.37,329.89,27.74Zm-9.95,1.35a19.76,19.76,0,0,0,1.66,3.12c2.13,2.56,3.8,5.2,3,8.16-1.1-1.87-2.07-4.33-3.77-6.08-1.15-1.18-2.58-1.88-2.53-3.8a18.35,18.35,0,0,0-.18-1.95Zm-8.26,1.31,3.66.91c0,.95,0,1.63,0,2.31l1.85-.14c1.08,3.28,2.29,6.91,3.49,10.55l-.81.29c-.59-1.57-1.07-3.19-1.79-4.69a6.83,6.83,0,0,0-2-2.7A9.66,9.66,0,0,1,311.68,30.4Zm.09,20.77.24-.09.86,2.3c.18-.82.29-1.34.4-1.87h.65c.25,4.32,1.51,11.94,1.76,16.27-.12.07-1.26-3.16-1.38-3.09l-2.61-10.22.17-.08c.19.38.38.77.58,1.15l.23-.07Zm147,16.65.51,3.34-.4.11c-.23-1.1-.47-2.21-.7-3.31Zm-6.33-1.49c2.18.55,2.28-1.54,3.28-2.42,1.06,2.87-1.85,3.29-3.57,5.13l2.09-.59c-.22.81-.44,1.59-.7,2.5-.21-.35-.33-.82-.64-1s-1.49-.58-1.47-.66A14.26,14.26,0,0,1,452.48,66.33Zm-1.23-2.24-.72,4.46-.53-.12C450.41,67,450.83,65.54,451.25,64.09Zm-4.63,4.14c.12-.31.28-.6.41-.92.69-1.73,1.38-3.48,2.08-5.22,1.69,2.78-1.08,4.62-1.5,7a9.12,9.12,0,0,1-1.24-.08C446.45,68.72,446.52,68.47,446.62,68.23Zm-7,4.32c-.11-.49-.26-1.07-.34-1.65a3.87,3.87,0,0,1,.09-1l.81.36C441.46,70.84,441.37,71.12,439.63,72.55ZM439,63l.51.64-2.82,2-.36-.4ZM428.9,49.91,424.18,58c0-.7-.05-1.31-.07-1.92-.56.23-1.1.48-1.67.66a13.64,13.64,0,0,1-1.41.31,4.19,4.19,0,0,1,.2-1.66c.27-.42.92-.63,1.42-.88a14.19,14.19,0,0,0,2.21-1.09C426.15,52.45,427.33,51.3,428.9,49.91ZM415.06,66.25c.05.1-.49.51-.76.78-.14-.37-.46-.78-.39-1.11a28.15,28.15,0,0,1,.87-2.85C417.22,63.89,414.53,65.22,415.06,66.25Zm-2-11.41-.57-.5,2.33-2.79.58.46ZM414.86,50a12.88,12.88,0,0,1,1.3-3,4.81,4.81,0,0,1,2.2-1.29c.17-.07.64.67,1,1l.06,0h0c-.19.42-.38.84-.58,1.25l1.73,2.24c.46-.1,1-.06,1.36-.32.86-.67,1.64-1.44,2.44-2.18a15.17,15.17,0,0,0-1.9,2.6c-.85,1.8-1.37,1.05-2-.09-.58-.75-1.16-1.49-1.73-2.24ZM426,48a2.08,2.08,0,0,1,1.61.17,9.54,9.54,0,0,1-.15,2.25l-.53-.05-.05-1.71-.36,0L424.92,52c-.25-.67-.79-1.4-.62-1.84A5,5,0,0,1,426,48Zm-5,4.16c.21.4.65.86.56,1.18s-.67.57-1,.85c-.21-.3-.42-.61-.73-1.08Zm3.19-15.34c1.14,2.18-.8,2.34-2,2.94Zm-1.5,7.84c1.62-1.22,2.9-.77,3.95.8-.24-1.51.1-2.62,1.92-2.56a.88.88,0,0,1,.7.46,1.88,1.88,0,0,1-.28.89c-1.52-.44-1.36,1.08-2,1.68-.23.24-.43.51-.65.77l-.18-.16.45-1.09-2,2,.34-2.11-2.5-.4a17,17,0,0,1-1.69,2.08c-.16.15-.8-.21-1.22-.34h0Zm-5-5.37.94,2.15c.13-.22.25-.45.38-.68.2.32.61.67.57,1-.23,1.61-.94,2-2.59,1.8.5-.65,1.06-1.38,1.61-2.14l-3.08,1.43Zm-2.9-19.38c.66.36,1.06.55,1.42.79a5.51,5.51,0,0,1,.66.62c-1.7,1.46-.35,4.92-3.55,5.41C413.71,24.5,416.46,22.79,414.67,19.94ZM414,27.67c.17.25.34.51.5.77l-2.56,1.71c-.18-.27-.36-.54-.53-.81Zm-3.77,39.54c-.16.23-.43.62-.35.76,1.19,2-1.35.91-1.49,1.79l-3.86-1.7,4.89-.72c0-.12-.07-.24-.1-.36l-1.66,0c.75-1,1.43-1.9,2.12-2.8l-2.45.54a8.73,8.73,0,0,1,5.79-2.37c.21,0,.42.44.64.68l-.85.48h0l0-.05,0,.05c-.51-.15-1.07-.46-1.51-.34a6,6,0,0,0-1.6,1c.36.18.81.6,1.06.5a14.32,14.32,0,0,0,2-1.17C412,64.79,411.11,66,410.23,67.21ZM461,105.73a1.14,1.14,0,0,1,.09.88.13.13,0,0,1,0,.06h0a1.36,1.36,0,0,1-2.25.62,3.87,3.87,0,0,0-1.18-.66,1.26,1.26,0,0,1-1.51.21,1.35,1.35,0,0,1-2.32-.81,1.85,1.85,0,0,0-.37.08,1.37,1.37,0,0,1-1.33-.35l-.11-.12a1.61,1.61,0,0,1-1.62-.13l-.25.12a1.44,1.44,0,0,1-1.65-.21c-.1-.09-.28.59-.36.51l-.91-.2c-.54.33-.19-.36-.65-.76a2,2,0,0,1-.89,0l-.76-.18c-.53.29-.41,1-.85.56-.69.32-1,.39-1.62,0-.94-.1-2-.48-2.93-.57-.35.11-1.62-.49-1.88-.47a1.09,1.09,0,0,1-1.13.38c-.27.28-.76-.2-1,.06a1.38,1.38,0,0,1-2.3-1,5.06,5.06,0,0,1-.46-.24l-.75-.07c-.27.14-.45.42-.75.55-1.18.51-1.94.54-2.45-.26-.27,0-.35-.52-.62-.55a1.92,1.92,0,0,1-.4-.1,1.4,1.4,0,0,1-2,1.08,9,9,0,0,1-1.77-1.28,6.5,6.5,0,0,1-.84-.22H423a3.9,3.9,0,0,1-2.05.06l-.09.06a6.86,6.86,0,0,1-2.9,0,9.57,9.57,0,0,1-1.06,0,10.25,10.25,0,0,0-1.94-.23,1.23,1.23,0,0,1-.33,0l-.42.23a1.38,1.38,0,0,1-2-.88c-.95-.07-1.89-.14-2.85-.19,1-1.48,2.84-2.57,2.34-4.88a38,38,0,0,1-.49-7.63c0-1.67.1-3.1,2.45-3.79,1.77-.53,3.43-2.33,4.52-4s2.07-1.94,3.85-1.44c6,1.71,12,3.2,18,4.91s11.92,1.25,17.89,0c1.05-.23,2-.09,1.81,1.41,0,.15-.11.34-.05.44,1.31,2.08.55,4.13.14,6.3-.27,1.43,1.87,1.48,2.61,2.51.13.19.5.22.72.3-1.18,2.11-1.48,3.88-2.61,5.9A25.28,25.28,0,0,1,461,105.73Zm3.47-17.43c-.47-.77-1-1.54-1.42-2.32-.05-.09,0-.27.06-.41l.43-.27c.46.84.93,1.68,1.35,2.54C464.87,87.91,464.57,88.14,464.42,88.3Zm2.11-.38c-.95,0-1.78-2.27-1.24-3.29a15.89,15.89,0,0,1,1.79,2.08C467.22,86.93,466.75,87.9,466.53,87.92Zm11.66-10.34c-.74.66-.66,3.37-2.73,1.1ZM469.89,99c.27-2.22,2.35-2.94,4.44-1.84l-3.86.91a12.51,12.51,0,0,1-.65,1.64C469.85,99.51,469.86,99.27,469.89,99Zm2.2,9.32-1.6-.26c.72-.34,1.52-.74,2.21-1A10.09,10.09,0,0,0,472.09,108.36Zm-1.94-.31-.77-.12c0-1.79.09-3.59.2-5.37.76-.55,1.67-1.4,2.57-2.22-.69,1.52-.89,3.48-1.6,6.53l4.89-5.4A14.08,14.08,0,0,1,470.15,108.05Zm6.1-8.85a7,7,0,0,1-.67.87h0a3.55,3.55,0,0,1-.16,1.4h0l-.5-2.7c-.52.24-1.16.39-1.7.61A5.58,5.58,0,0,1,475.41,98a6,6,0,0,1,1.26.1A10.56,10.56,0,0,1,476.25,99.2Zm.58-9.59c2.24.44,1.62-2,3-3.28-.27,1.66-.43,2.65-.64,4Z"/><path class="cls-1" d="M298.6,65.5l0,.15-.09-.1A.18.18,0,0,1,298.6,65.5Z"/></g></g></svg>