<svg xmlns="http://www.w3.org/2000/svg" viewBox="0 0 168.44 35.99"><defs><style>.cls-1{stroke:#000;stroke-miterlimit:10;stroke-width:0.5px;}</style></defs><title>Zasób 4</title><g id="Warstwa_2" data-name="Warstwa 2"><g id="Warstwa_2-2" data-name="Warstwa 2"><g id="Warstwa_1-2" data-name="Warstwa 1"><path d="M9.46.39h3.95V30q0,6-6.7,6T0,30V.39H4V30a2.45,2.45,0,0,0,2.76,2.79A2.45,2.45,0,0,0,9.46,30Z"/><path d="M17.11,35.61V.39h3.95v32H28.7v3.21Z"/><path d="M31.25,35.61V.39h4V35.61Z"/><path d="M48,25.17c0-.54,0-1-.05-1.33a3.72,3.72,0,0,0-.21-.9,3,3,0,0,0-.42-.71c-.17-.21-.38-.45-.62-.7-.52-.52-1-1-1.56-1.44s-1.06-.88-1.61-1.32-1.12-.91-1.69-1.41-1.17-1.07-1.79-1.7a3.67,3.67,0,0,1-1.23-2,15.38,15.38,0,0,1-.18-2.55V5.82Q38.63,0,45.29,0q3.59,0,5,1.44a5.89,5.89,0,0,1,1.46,4.38v6.42H48.1v-6a3.79,3.79,0,0,0-.55-2.14,2.45,2.45,0,0,0-2.16-.81q-2.76,0-2.76,2.52V11a5.31,5.31,0,0,0,.18,1.63,3.49,3.49,0,0,0,.76,1.11,27.17,27.17,0,0,0,3.2,2.87,34.83,34.83,0,0,1,3.3,2.87A6.52,6.52,0,0,1,51,20.63a4.75,4.75,0,0,1,.58,1.2,6.66,6.66,0,0,1,.28,1.45,17.2,17.2,0,0,1,.08,1.84v5.05a5.79,5.79,0,0,1-1.53,4.33c-1,1-2.73,1.49-5.12,1.49s-4-.49-5.07-1.49a5.66,5.66,0,0,1-1.59-4.33V22.69h3.8v7A3.87,3.87,0,0,0,43,31.93a2.46,2.46,0,0,0,2.16.86,2.94,2.94,0,0,0,2.16-.67A2.68,2.68,0,0,0,48,30.17Z"/><path d="M64.11,25.17a11.92,11.92,0,0,0-.06-1.33,3.31,3.31,0,0,0-.2-.9,3.4,3.4,0,0,0-.42-.71c-.17-.21-.38-.45-.62-.7-.52-.52-1-1-1.56-1.44s-1.06-.88-1.61-1.32-1.12-.91-1.69-1.41-1.17-1.07-1.8-1.7a3.71,3.71,0,0,1-1.22-2,15.38,15.38,0,0,1-.18-2.55V5.82Q54.75,0,61.41,0q3.59,0,5,1.44a5.89,5.89,0,0,1,1.46,4.38v6.42h-3.7v-6a3.79,3.79,0,0,0-.54-2.14,2.45,2.45,0,0,0-2.16-.81q-2.76,0-2.76,2.52V11a5.31,5.31,0,0,0,.18,1.63,3.49,3.49,0,0,0,.76,1.11,26.39,26.39,0,0,0,3.2,2.87,34.83,34.83,0,0,1,3.3,2.87,6.52,6.52,0,0,1,.93,1.11,4.75,4.75,0,0,1,.58,1.2A7.32,7.32,0,0,1,68,23.28a17.2,17.2,0,0,1,.08,1.84v5.05a5.79,5.79,0,0,1-1.53,4.33c-1,1-2.73,1.49-5.12,1.49s-4-.49-5.07-1.49a5.66,5.66,0,0,1-1.59-4.33V22.69h3.79v7a3.79,3.79,0,0,0,.6,2.23,2.46,2.46,0,0,0,2.16.86,3,3,0,0,0,2.16-.67,2.68,2.68,0,0,0,.65-1.95Z"/><path d="M71.39,35.61V.39H82.72V3.68H75.34V16.05h5.2V19.3h-5.2V32.4H83v3.21Z"/><path d="M94.79,25.17a11.92,11.92,0,0,0-.06-1.33,3.31,3.31,0,0,0-.2-.9,3.4,3.4,0,0,0-.42-.71c-.18-.21-.38-.45-.63-.7-.51-.52-1-1-1.55-1.44s-1.06-.88-1.62-1.32-1.11-.91-1.69-1.41-1.16-1.07-1.79-1.7a3.71,3.71,0,0,1-1.22-2,15.38,15.38,0,0,1-.18-2.55V5.82Q85.43,0,92.08,0c2.4,0,4.07.48,5,1.44a5.89,5.89,0,0,1,1.45,4.38v6.42H94.89v-6a3.71,3.71,0,0,0-.55-2.14,2.42,2.42,0,0,0-2.15-.81q-2.76,0-2.76,2.52V11a5.31,5.31,0,0,0,.18,1.63,3.19,3.19,0,0,0,.76,1.11,27.1,27.1,0,0,0,3.19,2.87,33.7,33.7,0,0,1,3.31,2.87,6.52,6.52,0,0,1,.93,1.11,4.41,4.41,0,0,1,.57,1.2,6.64,6.64,0,0,1,.29,1.45,17.2,17.2,0,0,1,.08,1.84v5.05a5.79,5.79,0,0,1-1.53,4.33c-1,1-2.73,1.49-5.13,1.49s-4-.49-5.07-1.49a5.66,5.66,0,0,1-1.58-4.33V22.69h3.79v7a3.79,3.79,0,0,0,.6,2.23,2.46,2.46,0,0,0,2.16.86,3,3,0,0,0,2.16-.67,2.68,2.68,0,0,0,.65-1.95Z"/><path class="cls-1" d="M117,12l.48.48a5.46,5.46,0,0,1-8-.21,6.42,6.42,0,0,1-1.7-4.49,6.44,6.44,0,0,1,1.7-4.49,5.46,5.46,0,0,1,8-.21l-.48.48a4.86,4.86,0,0,0-7.08.23,5.73,5.73,0,0,0-1.51,4,5.73,5.73,0,0,0,1.51,4A4.86,4.86,0,0,0,117,12Z"/><path class="cls-1" d="M122,9.64h-2.13V14h-.63V1.54h3a3.64,3.64,0,0,1,2.21,1.19,4.07,4.07,0,0,1,1.09,2.86,4.08,4.08,0,0,1-1.09,2.87,3.5,3.5,0,0,1-1.72,1.08L125.29,14h-.79Zm-2.13-7.39V8.94h1.93a2.83,2.83,0,0,0,2.16-1,3.37,3.37,0,0,0,.9-2.37,3.36,3.36,0,0,0-.9-2.36,2.79,2.79,0,0,0-2.16-1Z"/><path class="cls-1" d="M132.61,1.54v.7h-5V7.4h5v.7h-5v5.15h5V14h-5.68V1.54Z"/><path class="cls-1" d="M140.05,9.2h-3.94L134.53,14h-.68l4.23-12.69L142.3,14h-.67Zm-.24-.7-1.73-5.2-1.73,5.2Z"/><path class="cls-1" d="M146,2.24V14h-.64V2.24H142.5v-.7h6.38v.7Z"/><path class="cls-1" d="M151.08,1.54V14h-.64V1.54Z"/><path class="cls-1" d="M153.32,1.54l3.54,10.66,3.55-10.66h.68l-4.23,12.7-4.22-12.7Z"/><path class="cls-1" d="M168.19,1.54v.7h-5V7.4h5v.7h-5v5.15h5V14h-5.68V1.54Z"/><path class="cls-1" d="M111.57,27.72a5.34,5.34,0,0,1-2.09-1.21,2.54,2.54,0,0,1-.77-1.86A2.65,2.65,0,0,1,111.34,22a2.57,2.57,0,0,1,1.86.77,2.27,2.27,0,0,1,.59.93l-.63.24a2,2,0,0,0-.46-.7,1.93,1.93,0,0,0-3.29,1.38A1.88,1.88,0,0,0,110,26a4.92,4.92,0,0,0,1.46.95,6.29,6.29,0,0,1,2.5,1.5,3.67,3.67,0,1,1-6.22,3.19l.66-.24a3,3,0,0,0,3,2.63,3,3,0,0,0,2.12-5.1A5.65,5.65,0,0,0,111.57,27.72Z"/><path class="cls-1" d="M119.63,22.88V34.59h-.7V22.88h-3.14v-.7h7v.7Z"/><path class="cls-1" d="M131.72,22.18h.7V31.1a4.07,4.07,0,0,1-1.19,2.41,4.05,4.05,0,0,1-6.91-2.86V22.18h.7v8.47A3.22,3.22,0,0,0,126,33a3.36,3.36,0,0,0,4.74,0,3.22,3.22,0,0,0,1-2.36Z"/><path class="cls-1" d="M135.44,22.2h.06a6.37,6.37,0,0,1,4.74,1.69,6.34,6.34,0,0,1,0,9,6.37,6.37,0,0,1-4.74,1.69h-.06v0h-.69V22.18h.69Zm0,.71v11h.06a5.73,5.73,0,0,0,4.24-1.49,5.66,5.66,0,0,0,0-8,5.73,5.73,0,0,0-4.24-1.48Z"/><path class="cls-1" d="M144.9,22.18V34.59h-.7V22.18Z"/><path class="cls-1" d="M158.05,23.87a6.35,6.35,0,0,1,0,9,6.37,6.37,0,0,1-10.87-4.5,6.36,6.36,0,0,1,10.87-4.5Zm-4.5-1.15a5.66,5.66,0,0,0-4,9.65,5.65,5.65,0,0,0,9.65-4,5.63,5.63,0,0,0-5.65-5.65Z"/></g></g></g></svg>