<svg xmlns="http://www.w3.org/2000/svg" viewBox="0 0 826.64 551.03"><defs><style>.cls-1,.cls-3{fill:none;}.cls-2{fill:#c99c66;}.cls-3{stroke:#c99c66;stroke-miterlimit:10;stroke-width:3px;}.cls-4{fill:#432918;}</style></defs><title>MR-logo_1</title><g id="Warstwa_2" data-name="Warstwa 2"><g id="Warstwa_1-2" data-name="Warstwa 1"><path class="cls-1" d="M428.51,160.19V18.59a16.36,16.36,0,0,0-14-15.81v173.1A16.34,16.34,0,0,0,428.51,160.19Z"/><path class="cls-2" d="M279.69,49.58l55.95,96.48,55.72-96.48V178.67H464.9l0-2.56h-3.25a16.4,16.4,0,0,1-16.46-16V8c3.33.12,18.89-.51,32,.2C496.26,9.19,508.38,24,509,47.06c.15,5.59-.5,11.71-1.63,15.28-7.29,23-26.78,26.14-40.11,26.5-7.73.21-13.57.09-13.57.09v2.36c9.38,0,16.88,8.84,23.59,17.22,2,2.46,30.93,44.31,33.85,47.77,8.07,9.58,20.92,22.38,44.83,22.38h14.09V176.1C555,176,545.45,168,535.12,156.8c-10-10.79-32.1-42.21-32.1-42.21-5-7-12.87-15.44-18.39-18,24.72,0,43.65-23.95,43.65-48.67,0-29.73-19.08-48-50.22-48H393.37L335.64,100.16,277.68,0h-21.1V178.67h23.11ZM414.47,2.78a16.36,16.36,0,0,1,14,15.81v141.6a16.34,16.34,0,0,1-14,15.69Z"/><path class="cls-2" d="M335.53,66.42A5.54,5.54,0,1,0,330,60.88,5.54,5.54,0,0,0,335.53,66.42Z"/><path class="cls-2" d="M335.53,42.09A5.54,5.54,0,1,0,330,36.55,5.54,5.54,0,0,0,335.53,42.09Z"/><path class="cls-2" d="M335.53,17.77A5.54,5.54,0,1,0,330,12.23,5.54,5.54,0,0,0,335.53,17.77Z"/><path class="cls-3" d="M398.54,513.87a35.52,35.52,0,0,1,14.78-28.79,35.66,35.66,0,1,0,0,57.59A35.54,35.54,0,0,1,398.54,513.87Z"/><path class="cls-3" d="M434.19,478.22a35.37,35.37,0,0,0-20.87,6.86,35.43,35.43,0,0,1,0,57.59,35.62,35.62,0,1,0,20.87-64.45Z"/><path class="cls-3" d="M428.11,513.87a35.53,35.53,0,0,0-14.79-28.79,35.44,35.44,0,0,0,0,57.59A35.55,35.55,0,0,0,428.11,513.87Z"/><path class="cls-1" d="M625.11,398.58a7.3,7.3,0,0,0,3.29.77,8.81,8.81,0,0,0,3.37-3.4,9.27,9.27,0,0,0,1.26-4.66,8.85,8.85,0,0,0-.42-2.67,7.51,7.51,0,0,0-1.2-2.34,5.89,5.89,0,0,0-1.92-1.65,5.41,5.41,0,0,0-2.63-.63,8.06,8.06,0,0,0-2.63.42,7,7,0,0,0-2.21,1.23,5.9,5.9,0,0,0-1.54,1.93,5.7,5.7,0,0,0-.56,2.58,9.14,9.14,0,0,0,.66,3.37,10,10,0,0,0,1.83,3A8.93,8.93,0,0,0,625.11,398.58Z"/><path class="cls-1" d="M586.63,286.88a18.78,18.78,0,0,0-5.89-5.3,15.68,15.68,0,0,0-8-2,17.83,17.83,0,0,0-7.61,1.55,16,16,0,0,0-5.6,4.3,19.92,19.92,0,0,0-3.49,6.3,23.52,23.52,0,0,0-1.22,7.61,28.3,28.3,0,0,0,1.27,8.33,24.1,24.1,0,0,0,3.74,7.44,20.09,20.09,0,0,0,6,5.39,15.69,15.69,0,0,0,8.08,2.06,16.77,16.77,0,0,0,7.57-1.64,16.46,16.46,0,0,0,5.51-4.38,19,19,0,0,0,3.36-6.34,25.35,25.35,0,0,0,1.14-7.66,29,29,0,0,0-1.22-8.24A23.74,23.74,0,0,0,586.63,286.88Z"/><path class="cls-1" d="M632.12,406.32a8.93,8.93,0,0,0-2.7-2.31,7.22,7.22,0,0,0-3.54-.87,7.37,7.37,0,0,0-5.92,2.48,9.18,9.18,0,0,0-2.14,6.21,12.08,12.08,0,0,0,.66,3.95,11.23,11.23,0,0,0,1.86,3.41,8.7,8.7,0,0,0,2.95,2.34,8.53,8.53,0,0,0,3.92.88,5.15,5.15,0,0,0,3-.88,8.71,8.71,0,0,0,2.24-2.21,10,10,0,0,0,1.44-3,11.22,11.22,0,0,0,.49-3.13,12.48,12.48,0,0,0-.56-3.64A10,10,0,0,0,632.12,406.32Z"/><path class="cls-1" d="M505.25,264.73a24.31,24.31,0,0,0-3.48-7.29,18.36,18.36,0,0,0-5.66-5.27,14.94,14.94,0,0,0-7.85-2,24.75,24.75,0,0,0-3.76.28,17.44,17.44,0,0,0-3.64.95v38.13a47.66,47.66,0,0,0,5.22.62c1.75.11,3.45.17,5.09.17q8.54,0,11.89-4.72c2.25-3.13,3.37-7.4,3.37-12.78A28.51,28.51,0,0,0,505.25,264.73Z"/><path class="cls-1" d="M483.28,398.82c-.73,2.36-1.54,4.81-2.43,7.33h9l-4.35-14.58Q484.37,395.28,483.28,398.82Z"/><path class="cls-1" d="M384.77,296.8a22.67,22.67,0,0,0-3.78,5.55,14.63,14.63,0,0,0-1.51,6.48,13,13,0,0,0,1.13,5.38,14.83,14.83,0,0,0,3.08,4.46,14.63,14.63,0,0,0,4.45,3.07,13.14,13.14,0,0,0,11.73-.51,19.7,19.7,0,0,0,5.26-4.16,111.22,111.22,0,0,1-10.81-9.63Q389.33,302.36,384.77,296.8Z"/><path class="cls-1" d="M132.63,294.74c-.87,2.84-1.84,5.76-2.9,8.79h10.85L135.36,286Q133.94,290.5,132.63,294.74Z"/><path class="cls-1" d="M579,390.52a12.64,12.64,0,0,0-3.33-4.35,8.05,8.05,0,0,0-5.33-1.75,6.19,6.19,0,0,0-4.48,1.68,11.9,11.9,0,0,0-2.77,4.17,20.88,20.88,0,0,0-1.37,5.26,38.21,38.21,0,0,0-.35,4.87,33.81,33.81,0,0,0,.67,6.52,28.66,28.66,0,0,0,2.07,6.52,19.82,19.82,0,0,0,3.67,5.5,12.86,12.86,0,0,0,5.57,3.47,10.25,10.25,0,0,0,3.76-3.78,24.16,24.16,0,0,0,2.38-5.47,37.31,37.31,0,0,0,1.26-6,43.51,43.51,0,0,0,.39-5.44,36.79,36.79,0,0,0-.46-5.6A19.67,19.67,0,0,0,579,390.52Z"/><path class="cls-1" d="M699.29,286q-1.42,4.47-2.73,8.71c-.87,2.84-1.84,5.76-2.9,8.79h10.85Z"/><path class="cls-1" d="M799.52,294.74c-.87,2.84-1.84,5.76-2.9,8.79h10.85L802.25,286C801.3,289,800.38,291.91,799.52,294.74Z"/><path class="cls-4" d="M52,330.11a.35.35,0,0,0,.33-.22q2.13-4.38,4.2-8.75t4.1-8.75q5.14-10.87,10.2-22.09t10.66-21.76q.45,5.28,1,9.75c.34,3,.73,6.25,1.18,9.76v-.11q1,8.42,1.85,17.44t.84,17.55a7.93,7.93,0,0,1-.44,2.53c-.31.86-.61,1.73-.9,2.63-.08.23-.15.45-.23.67s-.15.45-.22.68,0,.55.45.55q6,.24,12.11.29t12.11.06l.11-.9a10.66,10.66,0,0,0-2.3-.79l-2.07-.45a19.44,19.44,0,0,1-3.65-1.06,7.9,7.9,0,0,1-3.42-3,14.27,14.27,0,0,1-1.45-4.54c-.53-2.43-1.05-5.42-1.58-9s-1-7.52-1.57-11.88-1-8.87-1.51-13.47-.94-9.14-1.35-13.62-.8-8.6-1.17-12.33c-.15-1.65-.32-3.33-.51-5.06s-.34-3.28-.45-4.71-.24-3-.39-4.81l-.78-.23c-1.58,2.69-2.88,5-3.93,7s-2.15,4-3.31,6.17-2.07,4-2.74,5.55c-.38.89-.77,1.79-1.18,2.69s-.84,1.79-1.29,2.69C73,272,71.38,275.4,69.84,278.8s-3.09,6.78-4.65,10.15q-2.92,6.51-5.83,13.18T53.3,315.3q-1.45-2.79-3.76-8.29t-5.1-11.44q-2.36-4.83-5.22-10.49t-5.83-11.33q-3-5.65-5.83-11c-1.9-3.54-3.59-6.67-5-9.36s-3.08-5.68-4.88-9l-.78.23c-.22,1.87-.41,3.53-.56,5s-.32,3.09-.5,4.88-.4,3.59-.62,5.38c-.45,3.9-.9,8.17-1.35,12.84s-.94,9.41-1.46,14.19-1,9.46-1.56,14-1,8.64-1.46,12.23-.86,6.55-1.24,8.91a15.09,15.09,0,0,1-.9,4,5.6,5.6,0,0,1-2.46,2.25,14.77,14.77,0,0,1-3,.67,2.62,2.62,0,0,1-.78.11,2.25,2.25,0,0,0-.68.11c-.22.08-.3.26-.22.57s.22.41.44.33a30.3,30.3,0,0,1,3.09-.28c1,0,2-.05,3.08-.05q4.16,0,8.41.33t8.42.34a.45.45,0,0,0,.45-.34.46.46,0,0,0-.23-.56c-.53-.23-1.05-.43-1.57-.62l-1.46-.5a15.12,15.12,0,0,1-3.47-1.74c-.9-.64-1.35-2-1.35-4q0-9.65.9-19.46T18.87,284q.45-3.81.89-7.47t.79-7.56c1.79,3.36,3.37,6.54,4.71,9.53s2.81,6.24,4.37,9.76q4.61,10.32,9.7,21.14A125,125,0,0,0,51.5,329.89.66.66,0,0,0,52,330.11Z"/><path class="cls-4" d="M153.61,319.51a186.55,186.55,0,0,1-8.53-18.59q-3.74-9.51-7.19-18.92c-.29-.79-.58-1.56-.88-2.32s-.61-1.52-.89-2.31a.33.33,0,0,0-.34-.25.32.32,0,0,0-.33.25c-1.07,2.81-2.08,5.59-3,8.37s-1.94,5.57-2.94,8.37q-2.19,6.22-4.46,12.36t-4.72,12.28v-.08a7.66,7.66,0,0,1-6.47,4.88c-.17.06-.24.19-.21.42s.13.31.29.25c1.12-.11,2.25-.21,3.37-.29s2.24-.13,3.37-.13,2.24,0,3.36.13,2.22.18,3.28.29v-.67a14.24,14.24,0,0,1-2.11-.54,1.59,1.59,0,0,1-1.09-1.65,12.6,12.6,0,0,1,.59-3c.4-1.38.84-2.84,1.35-4.38s1-3,1.55-4.46.94-2.5,1.22-3.24h13c.95,2.7,1.95,5.32,3,7.87s2,5.15,3,7.78l-3.29,1.6a.33.33,0,0,0-.16.42.31.31,0,0,0,.33.25l3.87-.33c1.28-.12,2.58-.17,3.87-.17.5,0,1,0,1.47,0s.94.07,1.39.13l2.23.16a9.87,9.87,0,0,0,2.22-.08v-.67a9.17,9.17,0,0,1-3.57-1A6.47,6.47,0,0,1,153.61,319.51Zm-23.88-16c1.06-3,2-5.95,2.9-8.79s1.78-5.73,2.73-8.71l5.22,17.5Z"/><path class="cls-4" d="M186.59,281.24a10.58,10.58,0,0,1,4.67,1,5.32,5.32,0,0,1,2.65,3.91c.06.17.14.25.25.25a.33.33,0,0,0,.34-.25,18.53,18.53,0,0,0,.59-4c0-1.46.08-2.83.08-4.12l-.42-.34-.59.17c-.17.06-.37.11-.59.17a8.71,8.71,0,0,1-2.36.42H164.3a17.78,17.78,0,0,1-2.82-.21,6.51,6.51,0,0,1-2.56-1.05c-.23-.17-.4-.11-.51.17s-.22.77-.33,1.13-.23.75-.34,1.14c-.23.79-.45,1.58-.68,2.4a9.76,9.76,0,0,0-.33,2.56l.17,1.09a.32.32,0,0,0,.25.34.24.24,0,0,0,.34-.17,7.78,7.78,0,0,1,2.18-3.11,5.14,5.14,0,0,1,3.54-1.34H173.3v36.5c0,.95,0,1.75-.08,2.4a3.13,3.13,0,0,1-.51,1.55,2.94,2.94,0,0,1-1.22,1,10.89,10.89,0,0,1-2.23.71.34.34,0,0,0-.2.43c0,.22.12.31.29.25,1.12-.11,2.21-.2,3.28-.25s2.15-.09,3.28-.09c1.46,0,2.89,0,4.29.13s2.83.18,4.28.29c.18,0,.27-.1.3-.29a.3.3,0,0,0-.21-.38,6.61,6.61,0,0,1-3.87-2.1,6,6,0,0,1-1.51-4.13V281.24Z"/><path class="cls-4" d="M222.89,320.4a8.14,8.14,0,0,1-5,1.55,11.68,11.68,0,0,1-4.5-1,8,8,0,0,1-3.58-2.82V300.84h4.46c.84,0,1.7,0,2.57.12s1.68.2,2.43.34a3.1,3.1,0,0,1,1.57.63,2.42,2.42,0,0,1,.58.93c.11.34.22.67.34,1s.2.64.29.92a2,2,0,0,0,.55.84.3.3,0,0,0,.38.08.32.32,0,0,0,.21-.33c.11-.67.19-1.37.25-2.1s.14-1.43.25-2.1.21-1.41.29-2.19.16-1.52.22-2.19c0-.33-.15-.45-.42-.33a8.06,8.06,0,0,0-1.86.75l-1.34.51a3.23,3.23,0,0,1-1.09.25h-9.76V280.74h6.64a10.05,10.05,0,0,1,4.55.92c1.23.62,1.9,1.91,2,3.87,0,.17.09.27.29.29a.31.31,0,0,0,.38-.21c.28-1.29.55-2.56.8-3.83s.46-2.61.63-4.08c0-.33-.15-.44-.43-.33a3.77,3.77,0,0,1-.71.29,6.58,6.58,0,0,0-.71.3h-24a.26.26,0,0,0-.29.21.38.38,0,0,0,.13.38,5.94,5.94,0,0,0,1.3.63l1.13.38a8.94,8.94,0,0,1,1.73.84c.53.34.8,1.06.8,2.19v35a16.84,16.84,0,0,1-.13,2.14,6,6,0,0,1-.54,1.9A3.64,3.64,0,0,1,202.1,323a3.58,3.58,0,0,1-2.06.54v.67c1.52-.05,3.05-.1,4.59-.13s3.07,0,4.59,0c1.12,0,2.21,0,3.27,0s2.16.05,3.28.05c1.3,0,2.6,0,3.92,0s2.61,0,3.91,0a3.23,3.23,0,0,0,1.09-.25l.09-.08c.22,0,.33-.09.33-.25.17-1.3.34-2.54.51-3.75s.39-2.45.67-3.74l-.67-.17A7.53,7.53,0,0,1,222.89,320.4Z"/><path class="cls-4" d="M275.57,278.46c-1,0-2-.06-3,0s-2,0-2.95,0c-.45,0-.91,0-1.39.05s-.93,0-1.39,0a42.93,42.93,0,0,1-4.62-.26c-.17,0-.26.11-.29.3a.3.3,0,0,0,.21.38,7.21,7.21,0,0,1,3.62,1.55A4.61,4.61,0,0,1,267,284.1l.17,25.4a13.94,13.94,0,0,1-1,5.3,11.71,11.71,0,0,1-2.74,4,12.43,12.43,0,0,1-4.2,2.61,15,15,0,0,1-5.3.92,14.34,14.34,0,0,1-5.17-.92,13,13,0,0,1-4.17-2.57,11.11,11.11,0,0,1-2.73-3.95,13.21,13.21,0,0,1-1-5.18l.17-25.73a3.81,3.81,0,0,1,1.39-2.82,11.57,11.57,0,0,1,2.73-2,.36.36,0,0,0-.17-.67c-.89.06-1.76.09-2.6.09h-2.61q-4.71,0-9.51-.26c-.16,0-.26.1-.29.3a.29.29,0,0,0,.21.37,9.88,9.88,0,0,1,3.57,1.6,4.13,4.13,0,0,1,1.31,3.45v8.49c0,1.18,0,2.47,0,3.88s0,2.82,0,4.28c0,1.24,0,2.47,0,3.71s0,2.36.08,3.4.08,2,.17,2.78a6.32,6.32,0,0,0,.38,1.8,16.09,16.09,0,0,0,2.82,5.14,22.79,22.79,0,0,0,4.32,4.12,19.8,19.8,0,0,0,5.26,2.73,18.23,18.23,0,0,0,13-.5,16.3,16.3,0,0,0,5.51-4,18.68,18.68,0,0,0,3.53-6,21.11,21.11,0,0,0,1.26-7.31V284a4.77,4.77,0,0,1,1.18-3.16,5,5,0,0,1,3-1.72Z"/><path class="cls-4" d="M280.71,313.37c-.23,0-.34.09-.34.25l-.42,2c-.11.62-.24,1.27-.38,1.94a9.9,9.9,0,0,0-.21,2,4.6,4.6,0,0,0,.72,2.65,5.77,5.77,0,0,0,1.85,1.72,8.41,8.41,0,0,0,2.52,1,13.25,13.25,0,0,0,2.65.29,17.57,17.57,0,0,0,5.51-1,19.89,19.89,0,0,0,5.3-2.69,15.36,15.36,0,0,0,3.95-4.17,9.79,9.79,0,0,0,1.56-5.38,10.45,10.45,0,0,0-.84-4.21,17.14,17.14,0,0,0-2.19-3.66,26.15,26.15,0,0,0-3.07-3.28q-1.72-1.56-3.49-3c-1.07-.9-2.1-1.78-3.12-2.66a22.74,22.74,0,0,1-2.64-2.65,13.52,13.52,0,0,1-1.85-2.77,6.81,6.81,0,0,1-.72-3.11,7,7,0,0,1,2.15-5.26,7.42,7.42,0,0,1,5.34-2.06,6.41,6.41,0,0,1,5,2.1,11.15,11.15,0,0,1,2.57,5.05.31.31,0,0,0,.33.25.33.33,0,0,0,.34-.25c.45-2.91.79-5.75,1-8.49,0-.12-.09-.23-.25-.35a21.56,21.56,0,0,0-6.14-.83,22.78,22.78,0,0,0-5.14.63,19.42,19.42,0,0,0-5.12,1.93,12.67,12.67,0,0,0-4,3.37,7.74,7.74,0,0,0-1.59,4.92,9,9,0,0,0,.84,3.78,19.19,19.19,0,0,0,2.18,3.66,30.49,30.49,0,0,0,3.12,3.53q1.76,1.72,3.53,3.41c1.12,1.07,2.21,2.13,3.28,3.2a38.94,38.94,0,0,1,2.86,3.19,17.92,17.92,0,0,1,2,3.16,7.17,7.17,0,0,1,.75,3.15,5.81,5.81,0,0,1-.84,3.07,8.18,8.18,0,0,1-2.14,2.36,10,10,0,0,1-2.91,1.47,10.46,10.46,0,0,1-3.11.5,10.92,10.92,0,0,1-3.15-.46,7.71,7.71,0,0,1-2.74-1.43A7.9,7.9,0,0,1,281.8,318a6.24,6.24,0,0,1-.76-3.1v-1.27C281,313.46,280.93,313.37,280.71,313.37Z"/><path class="cls-4" d="M341,323.89a1.52,1.52,0,0,0,.09-.51,1.74,1.74,0,0,1,.08-.5c.28-1.46.5-2.89.63-4.3a27.17,27.17,0,0,1,.8-4.28l-.58-.25c-.46.72-1,1.48-1.61,2.27a14.87,14.87,0,0,1-2.1,2.18,13.43,13.43,0,0,1-2.48,1.69,5.66,5.66,0,0,1-2.64.67l-16.07.08h-1.27a11.52,11.52,0,0,1-1.26-.08q7.41-10.51,14.56-21a246.5,246.5,0,0,0,12.95-21.15.22.22,0,0,0,0-.34.5.5,0,0,0-.34-.17c-1.12,0-2.42,0-3.91,0l-4.16.13-4.84.17c-1.6.06-3.21.09-4.84.09-2.35,0-4.69-.11-7-.3a49.46,49.46,0,0,1-6.52-1c-.28-.11-.42,0-.42.25q-.17.93-.3,2.19c-.08.84-.17,1.57-.29,2.19-.11.84-.22,1.75-.34,2.73a18.11,18.11,0,0,1-.58,3,.29.29,0,0,0,.17.38.33.33,0,0,0,.41-.05c1.35-1.56,2.46-2.82,3.33-3.74a11,11,0,0,1,2.69-2.14,8.72,8.72,0,0,1,3.24-1,46.13,46.13,0,0,1,5-.21c.95,0,1.86,0,2.73,0s1.76-.05,2.65-.05h5.81a.82.82,0,0,1,.33.09c-1.56,2.41-3.11,4.75-4.62,7l-4.71,7-9.38,14.21q-4.67,7.06-9,14.47c-.22.33-.14.5.25.5h4c1,0,1.91,0,2.86,0s1.91,0,2.86,0c1.8,0,3.56,0,5.3,0s3.5,0,5.3,0q6.39,0,12.87-.25C340.9,324.14,341,324.05,341,323.89Z"/><path class="cls-4" d="M410.85,321.66a19.87,19.87,0,0,0,3.24,2,16,16,0,0,0,3.53,1.21,19.54,19.54,0,0,0,4.34.42h2.35c.73,0,1.46,0,2.18,0s1.41-.08,2-.16a4.76,4.76,0,0,0,1.26-.3l-.16-.67a24.25,24.25,0,0,1-9.67-3.41,43.79,43.79,0,0,1-8.16-6.43,19,19,0,0,0,2-3.45c.61-1.35,1.19-2.75,1.72-4.21s1-2.91,1.38-4.37.74-2.78,1-3.95a.5.5,0,0,0-.17-.34,12.87,12.87,0,0,0-3.49-1.31,18.78,18.78,0,0,0-3.66-.37,11.85,11.85,0,0,0-3.53.5.33.33,0,0,0-.25.34c0,.11.08.2.25.25A8.07,8.07,0,0,1,411,299a4.51,4.51,0,0,1,1.6,3.78,13.28,13.28,0,0,1-1.1,5.09,34.68,34.68,0,0,1-2.43,4.84l-1.52-1.34-1.77-1.61q-2.94-2.69-6.47-6.1a92.19,92.19,0,0,1-6.6-7,48.12,48.12,0,0,1-5.14-7.19,13.41,13.41,0,0,1-2.06-6.6,7.77,7.77,0,0,1,2.32-5.81,8,8,0,0,1,5.84-2.27,10.27,10.27,0,0,1,3.54.64,9.43,9.43,0,0,1,3.06,1.76,8.51,8.51,0,0,1,2.07,2.69,7.07,7.07,0,0,1,.67,3.41L403,284.6a.27.27,0,0,0,.24.3.41.41,0,0,0,.43-.21,18.19,18.19,0,0,0,1.09-6.31,19.39,19.39,0,0,0-.59-5,.22.22,0,0,0-.25-.25,18.78,18.78,0,0,0-4.33-1.18,28.9,28.9,0,0,0-4.42-.34,15.86,15.86,0,0,0-5.64,1.05,17.07,17.07,0,0,0-5,2.94,14.81,14.81,0,0,0-3.57,4.47,11.81,11.81,0,0,0-1.35,5.59,10.06,10.06,0,0,0,1.13,4.75,16.21,16.21,0,0,0,2.82,3.83q-1.93,1.59-3.7,3.32a24.6,24.6,0,0,0-3.11,3.7,20.1,20.1,0,0,0-2.19,4.25,14.46,14.46,0,0,0-.84,5.05,12.9,12.9,0,0,0,1.56,6.35,16.07,16.07,0,0,0,4,4.79,19,19,0,0,0,5.64,3.07,19.53,19.53,0,0,0,6.44,1.09,17.74,17.74,0,0,0,8.58-2.18,66.18,66.18,0,0,0,7.57-4.79C408.66,319.93,409.79,320.84,410.85,321.66Zm-11-.43a13.14,13.14,0,0,1-11.73.51,14.63,14.63,0,0,1-4.45-3.07,14.83,14.83,0,0,1-3.08-4.46,13,13,0,0,1-1.13-5.38,14.63,14.63,0,0,1,1.51-6.48,22.67,22.67,0,0,1,3.78-5.55q4.56,5.55,9.55,10.64a111.22,111.22,0,0,0,10.81,9.63A19.7,19.7,0,0,1,399.87,321.23Z"/><path class="cls-4" d="M539.34,331.34a26.88,26.88,0,0,0,5.33-1.9l-.22-.9a16.25,16.25,0,0,1-9.25-1.63,35.29,35.29,0,0,1-8.53-6,69.55,69.55,0,0,1-7.79-8.63c-2.47-3.22-4.82-6.35-7.07-9.42-1.5-2-2.95-4-4.37-5.95s-2.66-3.51-3.7-4.71a66.8,66.8,0,0,0,4.88-5.21,41.83,41.83,0,0,0,4.26-6.12,35.5,35.5,0,0,0,3-6.78A23.32,23.32,0,0,0,517,267a18.85,18.85,0,0,0-2.13-9.31,18.22,18.22,0,0,0-5.66-6.23,25,25,0,0,0-8-3.53,37.74,37.74,0,0,0-9.2-1.12c-1.27,0-2.48,0-3.65.06s-2.36.1-3.64.16q-3.71.34-7.29.34a66.08,66.08,0,0,1-6.73-.34c-1-.06-2.13-.13-3.25-.16s-2.24-.06-3.37-.06H461.9a.36.36,0,0,0-.39.34.37.37,0,0,0,.29.45,13,13,0,0,1,6.11,3.59,8.72,8.72,0,0,1,2.63,6.28v60.78a11.26,11.26,0,0,1-2.19,6.67,13.08,13.08,0,0,1-5.44,4.55.52.52,0,0,0-.22.62c.07.26.22.35.45.28,2.32-.3,4.6-.54,6.84-.74s4.52-.28,6.84-.28,4.63.08,7,.23,4.63.34,7,.56v-.9a10.55,10.55,0,0,1-7.24-3.64,11.55,11.55,0,0,1-2.75-7.79V296.12c.83-.06,1.65-.1,2.47-.1h2.47a43.92,43.92,0,0,1,5.83.39,9.86,9.86,0,0,1,5.16,2.3,41.58,41.58,0,0,1,5.89,6.28q3,3.81,5.32,7.29t5.06,7a44.18,44.18,0,0,0,5.83,6.33,29,29,0,0,0,6.84,4.6,18.21,18.21,0,0,0,8.07,1.79A23.57,23.57,0,0,0,539.34,331.34Zm-48.17-41c-1.64,0-3.34-.06-5.09-.17a47.66,47.66,0,0,1-5.22-.62V251.38a17.44,17.44,0,0,1,3.64-.95,24.75,24.75,0,0,1,3.76-.28,14.94,14.94,0,0,1,7.85,2,18.36,18.36,0,0,1,5.66,5.27,24.31,24.31,0,0,1,3.48,7.29,28.51,28.51,0,0,1,1.18,8.07c0,5.38-1.12,9.65-3.37,12.78S496.86,290.3,491.17,290.3Z"/><path class="cls-4" d="M597.1,302.61a27,27,0,0,0-2-10.26,26.15,26.15,0,0,0-5.43-8.46,24.41,24.41,0,0,0-8.07-5.55,20.94,20.94,0,0,0-10-1.56l-1.1.09a44.36,44.36,0,0,0-10.09,3.24,18,18,0,0,0-10.3,12.53A42.65,42.65,0,0,0,549,303.2a15.64,15.64,0,0,0,2.31,8,28.57,28.57,0,0,0,5.85,7.07,31.49,31.49,0,0,0,7.78,5.05,19.74,19.74,0,0,0,8.2,1.93,25,25,0,0,0,9.13-1.68,23.76,23.76,0,0,0,7.61-4.71,23.32,23.32,0,0,0,5.26-7.19A20.79,20.79,0,0,0,597.1,302.61Zm-6.77,7.57a19,19,0,0,1-3.36,6.34,16.46,16.46,0,0,1-5.51,4.38,16.77,16.77,0,0,1-7.57,1.64,15.69,15.69,0,0,1-8.08-2.06,20.09,20.09,0,0,1-6-5.39,24.1,24.1,0,0,1-3.74-7.44,28.3,28.3,0,0,1-1.27-8.33,23.52,23.52,0,0,1,1.22-7.61,19.92,19.92,0,0,1,3.49-6.3,16,16,0,0,1,5.6-4.3,17.83,17.83,0,0,1,7.61-1.55,15.68,15.68,0,0,1,8,2,18.78,18.78,0,0,1,5.89,5.3,23.74,23.74,0,0,1,3.62,7.4,29,29,0,0,1,1.22,8.24A25.35,25.35,0,0,1,590.33,310.18Z"/><path class="cls-4" d="M640.25,321.53a39.8,39.8,0,0,1-6.18-4.54q-3.15-2.78-6.22-6.06c-2.05-2.18-4-4.26-5.77-6.22q-1.61-1.77-3-3.33c-.93-1-1.78-1.94-2.57-2.73.79-.72,1.67-1.61,2.65-2.65s2-2.11,2.9-3.24c1.23-1.34,2.61-2.78,4.12-4.33s3.06-3,4.63-4.33a35.61,35.61,0,0,1,4.63-3.4,10.72,10.72,0,0,1,4.29-1.65.3.3,0,0,0,.2-.37c0-.2-.12-.3-.29-.3l-2.77-.13c-.9,0-1.8,0-2.69,0h-3.29c-1.06,0-2.15,0-3.28-.16-.39,0-.47.16-.25.5a3.73,3.73,0,0,1,.42,1.68,5.44,5.44,0,0,1-1,2.82,27.63,27.63,0,0,1-2.48,3.32c-1,1.18-2.14,2.38-3.4,3.61s-2.51,2.42-3.75,3.54l-2.94,2.78a23,23,0,0,0-2.36,2.52c0-2.75-.09-5.31-.12-7.7s-.07-5-.13-7.78a4.07,4.07,0,0,1,1.18-2.9,4.15,4.15,0,0,1,2.86-1.3c.17,0,.25-.11.25-.34s-.08-.34-.25-.34a2.35,2.35,0,0,1-.42,0,4.12,4.12,0,0,0-.42,0c-1-.05-1.92-.07-2.91,0s-1.94.07-2.89.12c-.79.06-1.53.1-2.23.13s-1.39.05-2.06.05-1.22,0-1.81-.05-1.19-.07-1.81-.13c-.17,0-.26.1-.3.3a.31.31,0,0,0,.21.38,8.54,8.54,0,0,1,3.2,1.38,3.21,3.21,0,0,1,1.51,2.74v34.4c0,1,0,1.77-.08,2.44a4.35,4.35,0,0,1-.46,1.72A2.92,2.92,0,0,1,604,323a7.9,7.9,0,0,1-2.36.71.3.3,0,0,0-.21.37q0,.3.3.3l3.7-.3c1.17-.08,2.38-.12,3.62-.12,1.9,0,3.84.08,5.8.25a5.39,5.39,0,0,0,.93.09,5.62,5.62,0,0,1,1,.08c.17.06.28,0,.34-.21a.38.38,0,0,0-.17-.46,6.42,6.42,0,0,0-1.43-.67l-1.34-.43a9.43,9.43,0,0,1-1-.5,2.12,2.12,0,0,1-.8-.8,4.06,4.06,0,0,1-.51-1.47,13.74,13.74,0,0,1-.17-2.35c0-2.76,0-5.43.05-8s.07-5.29.12-8c.95.9,1.92,1.9,2.9,3s2.12,2.4,3.41,3.86c1.68,1.91,3.44,3.89,5.3,5.94a67.65,67.65,0,0,0,5.67,5.59A33,33,0,0,0,635,324a12.18,12.18,0,0,0,5.77,1.6,8.39,8.39,0,0,0,2.77-.46,11.74,11.74,0,0,0,2.52-1.22l-.16-.59A11.31,11.31,0,0,1,640.25,321.53Z"/><path class="cls-4" d="M673.81,312a10.45,10.45,0,0,0-.84-4.21,17.14,17.14,0,0,0-2.19-3.66,26.15,26.15,0,0,0-3.07-3.28q-1.73-1.56-3.49-3c-1.07-.9-2.1-1.78-3.11-2.66a22.09,22.09,0,0,1-2.65-2.65,13.52,13.52,0,0,1-1.85-2.77,6.81,6.81,0,0,1-.72-3.11,7,7,0,0,1,2.15-5.26,7.42,7.42,0,0,1,5.34-2.06,6.41,6.41,0,0,1,5,2.1,11.15,11.15,0,0,1,2.57,5.05.31.31,0,0,0,.33.25.32.32,0,0,0,.34-.25c.45-2.91.79-5.75,1-8.49,0-.12-.09-.23-.25-.35a21.56,21.56,0,0,0-6.14-.83,22.7,22.7,0,0,0-5.13.63,19.36,19.36,0,0,0-5.13,1.93,12.67,12.67,0,0,0-4,3.37,7.74,7.74,0,0,0-1.59,4.92,9,9,0,0,0,.84,3.78,19.72,19.72,0,0,0,2.18,3.66,30.49,30.49,0,0,0,3.12,3.53q1.75,1.72,3.53,3.41c1.12,1.07,2.21,2.13,3.28,3.2a37.18,37.18,0,0,1,2.86,3.19,17.92,17.92,0,0,1,2,3.16,7.17,7.17,0,0,1,.75,3.15,5.81,5.81,0,0,1-.84,3.07,8.18,8.18,0,0,1-2.14,2.36,10,10,0,0,1-2.9,1.47,10.57,10.57,0,0,1-3.12.5,11,11,0,0,1-3.15-.46,7.71,7.71,0,0,1-2.74-1.43,7.9,7.9,0,0,1-1.93-2.32,6.24,6.24,0,0,1-.76-3.1v-1.27c0-.16-.11-.25-.33-.25s-.34.09-.34.25l-.42,2c-.11.62-.24,1.27-.38,1.94a9.9,9.9,0,0,0-.21,2,4.6,4.6,0,0,0,.72,2.65,5.77,5.77,0,0,0,1.85,1.72,8.41,8.41,0,0,0,2.52,1,13.25,13.25,0,0,0,2.65.29,17.57,17.57,0,0,0,5.51-1,19.89,19.89,0,0,0,5.3-2.69,15.21,15.21,0,0,0,4-4.17A9.79,9.79,0,0,0,673.81,312Z"/><path class="cls-4" d="M677.84,324.22c1.12-.11,2.25-.21,3.37-.29s2.25-.13,3.37-.13,2.24,0,3.36.13,2.22.18,3.28.29v-.67a13.82,13.82,0,0,1-2.1-.54,1.58,1.58,0,0,1-1.1-1.65,12.6,12.6,0,0,1,.59-3c.4-1.38.84-2.84,1.35-4.38s1-3,1.55-4.46.94-2.5,1.22-3.24h13c1,2.7,2,5.32,3,7.87s2,5.15,3,7.78l-3.29,1.6a.33.33,0,0,0-.16.42.31.31,0,0,0,.33.25l3.87-.33c1.29-.12,2.58-.17,3.87-.17.5,0,1,0,1.47,0s.94.07,1.39.13l2.23.16a9.87,9.87,0,0,0,2.22-.08v-.67a9.17,9.17,0,0,1-3.57-1,6.47,6.47,0,0,1-2.57-2.78A186.55,186.55,0,0,1,709,300.92q-3.74-9.51-7.19-18.92c-.29-.79-.58-1.56-.88-2.32s-.61-1.52-.89-2.31a.33.33,0,0,0-.34-.25.32.32,0,0,0-.33.25c-1.06,2.81-2.08,5.59-3,8.37s-1.94,5.57-2.94,8.37q-2.19,6.22-4.46,12.36t-4.71,12.28v-.08a7.69,7.69,0,0,1-6.48,4.88.34.34,0,0,0-.21.42C677.58,324.2,677.68,324.28,677.84,324.22Zm18.72-29.48q1.31-4.25,2.73-8.71l5.22,17.5H693.66C694.72,300.5,695.69,297.58,696.56,294.74Z"/><path class="cls-4" d="M727.89,324.31c1.07-.17,2.13-.33,3.2-.47a23.89,23.89,0,0,1,3.12-.2c.78,0,1.58,0,2.39.08s1.61.14,2.4.25l1.64.17,1.64.17a.25.25,0,0,0,.29-.22.39.39,0,0,0-.12-.37,5.77,5.77,0,0,0-1.61-.89c-.44-.13-.89-.26-1.34-.37a5.37,5.37,0,0,1-1.13-.3,2.14,2.14,0,0,1-.93-.71,4.51,4.51,0,0,1-.63-1.39,8.6,8.6,0,0,1-.25-2.31q0-3.28-.09-6.48c-.05-2.13-.14-4.26-.25-6.4s-.19-4.25-.25-6.38-.09-4.27-.09-6.4a39.17,39.17,0,0,1,.26-4.37c.78.84,1.48,1.63,2.1,2.39s1.32,1.56,2.11,2.4c2.29,2.69,4.7,5.46,7.22,8.28s5.1,5.64,7.7,8.42,5.26,5.49,8,8.16,5.38,5.14,8.08,7.44a.28.28,0,0,0,.38,0,.37.37,0,0,0,.21-.29c.28-3.2.47-6.38.59-9.55s.16-6.38.16-9.63v-3.45l-.08-20.27a1.8,1.8,0,0,1,1.3-1.77c.87-.33,1.7-.61,2.48-.84.11-.05.18-.07.22,0s.09,0,.2,0l-.16-.68a7.71,7.71,0,0,1-.93,0c-.34,0-.65,0-.93,0a22.21,22.21,0,0,0-2.3,0c-.76,0-1.51,0-2.24,0h-3.53a27.79,27.79,0,0,1-3.62-.25c-.11-.06-.2,0-.29.17a.33.33,0,0,0,0,.42,2,2,0,0,0,1,.54,11.24,11.24,0,0,0,1.22.22,7.09,7.09,0,0,1,1.18.25,2.7,2.7,0,0,1,1.09.63,3.15,3.15,0,0,1,.8,1.35,7.59,7.59,0,0,1,.3,2.3c0,2.42,0,5,.08,7.71s.11,5.28.16,7.69c.06,2.63.1,5.22.13,7.74s0,5.07,0,7.65v.26Q760,305,751.36,295.83t-17.74-18.71a.18.18,0,0,0-.26-.09.57.57,0,0,0-.25.26l-.67,1.35V318a4.16,4.16,0,0,1-.8,2.83,6.27,6.27,0,0,1-1.81,1.38c-.33.17-.69.37-1.05.59a9.21,9.21,0,0,0-1.22.93.32.32,0,0,0,0,.42A.28.28,0,0,0,727.89,324.31Z"/><path class="cls-4" d="M823.07,322.29a6.47,6.47,0,0,1-2.57-2.78A184.32,184.32,0,0,1,812,300.92q-3.75-9.51-7.19-18.92c-.29-.79-.58-1.56-.88-2.32s-.61-1.52-.89-2.31a.33.33,0,0,0-.34-.25.34.34,0,0,0-.34.25c-1.06,2.81-2.07,5.59-3,8.37s-1.94,5.57-2.94,8.37q-2.19,6.22-4.46,12.36t-4.72,12.28v-.08a7.66,7.66,0,0,1-6.47,4.88c-.17.06-.24.19-.21.42s.13.31.29.25c1.12-.11,2.25-.21,3.37-.29s2.24-.13,3.37-.13,2.23,0,3.36.13,2.21.18,3.28.29v-.67a13.94,13.94,0,0,1-2.11-.54,1.59,1.59,0,0,1-1.09-1.65,12.6,12.6,0,0,1,.59-3q.58-2.07,1.35-4.38c.5-1.54,1-3,1.55-4.46s.94-2.5,1.22-3.24h13c.95,2.7,1.95,5.32,3,7.87s2,5.15,3,7.78l-3.28,1.6a.36.36,0,0,0,.17.67l3.87-.33c1.28-.12,2.58-.17,3.86-.17.51,0,1,0,1.48,0s.94.07,1.39.13l2.23.16a9.87,9.87,0,0,0,2.22-.08v-.67A9.17,9.17,0,0,1,823.07,322.29Zm-26.45-18.76c1.06-3,2-5.95,2.9-8.79s1.78-5.73,2.73-8.71l5.22,17.5Z"/><path class="cls-4" d="M209.46,383.2c-1.08,0-2.18.05-3.29.1s-2.33.08-3.47.1-2.33,0-3.54,0c-1.78,0-3.57-.06-5.37-.2a37.91,37.91,0,0,1-5.22-.77c-.24-.1-.35,0-.35.21-.05.46-.1.91-.14,1.33s-.12.87-.21,1.33c-.15.89-.26,1.77-.35,2.66a24.46,24.46,0,0,0-.14,2.73c0,.38,0,.73,0,1.06a2.31,2.31,0,0,0,.39,1.05.36.36,0,0,0,.32.11c.11,0,.17-.11.17-.25a5.61,5.61,0,0,1,1.3-3.26,7.59,7.59,0,0,1,2.73-1.93,12.86,12.86,0,0,1,3.65-.91,38.92,38.92,0,0,1,4.1-.21c.65,0,1.37,0,2.17,0s1.5.05,2.1.1,1.28.08,1.89.1,1.17,0,1.69,0a2.43,2.43,0,0,1,.63.07q-2.33,3.93-5,8.73t-5.08,9.84q-2.42,5.06-4.31,10.07a44.53,44.53,0,0,0-2.53,9.29c0,.32.12.44.35.35a13.42,13.42,0,0,0,1.51-.46,17.46,17.46,0,0,0,1.72-.74,8.39,8.39,0,0,0,1.54-1,3.23,3.23,0,0,0,1-1.19c.37-1,.7-2,1-3s.54-2.05.78-3.12c.18-.84.38-1.64.59-2.42s.43-1.55.66-2.35q2.38-6.93,5.51-13.77T213,383.58l-.28-.43C211.61,383.15,210.53,383.17,209.46,383.2Z"/><path class="cls-4" d="M266,421.15a33.19,33.19,0,0,1-5.15-3.78c-1.76-1.55-3.48-3.23-5.19-5.06s-3.31-3.54-4.8-5.18c-.89-1-1.72-1.91-2.49-2.77s-1.48-1.62-2.14-2.28c.66-.6,1.39-1.34,2.21-2.2s1.62-1.77,2.42-2.71c1-1.11,2.17-2.32,3.43-3.6s2.55-2.49,3.86-3.61a30.28,30.28,0,0,1,3.85-2.84,9,9,0,0,1,3.58-1.37c.14,0,.19-.15.17-.32s-.1-.24-.24-.24l-2.32-.11c-.74,0-1.49,0-2.24,0h-2.73c-.89,0-1.8-.05-2.73-.14-.33,0-.4.14-.22.42a3.05,3.05,0,0,1,.35,1.4,4.51,4.51,0,0,1-.8,2.35,23.61,23.61,0,0,1-2.07,2.77c-.84,1-1.79,2-2.84,3s-2.09,2-3.12,2.94l-2.45,2.31a20.09,20.09,0,0,0-2,2.1c-.05-2.29-.09-4.42-.11-6.41s-.06-4.15-.11-6.48a3.33,3.33,0,0,1,1-2.42,3.4,3.4,0,0,1,2.38-1.09c.14,0,.21-.09.21-.28s-.07-.28-.21-.28l-.35,0a1.7,1.7,0,0,0-.35,0c-.8,0-1.6-.06-2.42,0s-1.62.06-2.42.11c-.65.05-1.27.08-1.86.11l-1.71,0c-.52,0-1,0-1.51,0s-1-.06-1.51-.11c-.13,0-.22.08-.24.25a.25.25,0,0,0,.17.31A7,7,0,0,1,236,387a2.65,2.65,0,0,1,1.26,2.27v28.68c0,.79,0,1.47-.07,2a3.81,3.81,0,0,1-.38,1.44,2.5,2.5,0,0,1-1,1,6.54,6.54,0,0,1-2,.59.26.26,0,0,0-.18.32c0,.16.1.24.25.24l3.08-.24c1-.07,2-.11,3-.11,1.59,0,3.2.07,4.84.21a4.4,4.4,0,0,0,.77.07,6,6,0,0,1,.84.07c.14.05.24,0,.28-.17a.32.32,0,0,0-.14-.39,5.63,5.63,0,0,0-1.19-.56c-.42-.14-.79-.26-1.12-.35s-.62-.28-.88-.42a1.84,1.84,0,0,1-.66-.67,3.41,3.41,0,0,1-.42-1.22,10.66,10.66,0,0,1-.15-2c0-2.28,0-4.51,0-6.69s.06-4.4.11-6.7c.79.75,1.59,1.59,2.42,2.53s1.76,2,2.84,3.22q2.1,2.39,4.41,4.95a57.5,57.5,0,0,0,4.73,4.66,27.17,27.17,0,0,0,4.91,3.43,10.14,10.14,0,0,0,4.8,1.33,7.26,7.26,0,0,0,2.31-.38,9.72,9.72,0,0,0,2.1-1l-.13-.49A9.41,9.41,0,0,1,266,421.15Z"/><path class="cls-4" d="M322.59,385.47c-1.22,0-2.42,0-3.62-.07s-2.39-.12-3.6-.21c-.14,0-.22.08-.25.24s0,.28.18.32.53.11.87.21a4.3,4.3,0,0,1,1,.42,4,4,0,0,1,.84.63,1.1,1.1,0,0,1,.35.77,38.73,38.73,0,0,1-.6,6.42c-.39,2.36-.89,4.77-1.5,7.25s-1.28,4.93-2,7.36-1.39,4.63-2,6.59c-.57-1.59-1.09-3.13-1.59-4.63s-1-3-1.5-4.62q-1.83-5.4-3.75-10.73t-4.24-10.16a.36.36,0,0,0-.31-.11.31.31,0,0,0-.25.18q-3,7.5-5.82,14.79t-5.61,14.93c-.28-1.45-.52-2.74-.73-3.89s-.48-2.47-.81-4c-.65-3.32-1.31-6.6-2-9.85s-1.17-6.58-1.55-10a5.94,5.94,0,0,1,1.34-1,10,10,0,0,1,1.54-.7c.14-.05.18-.16.14-.35s-.14-.26-.28-.21a40.24,40.24,0,0,1-5.68.42,23.52,23.52,0,0,1-2.83-.17c-.92-.12-1.87-.22-2.84-.32a3.1,3.1,0,0,0-.63-.07,3.9,3.9,0,0,1-.64-.07.25.25,0,0,0-.32.14.26.26,0,0,0,.11.35l.67.38c.21.13.41.23.59.32a15.13,15.13,0,0,1,1.86,1.2,6,6,0,0,1,1.51,2.1,43.74,43.74,0,0,1,3.05,8.86q1.37,5.5,2.56,11.39c.51,2.66,1,5.25,1.61,7.75s1.15,4.71,1.75,6.62a.34.34,0,0,0,.24.25c.12,0,.22,0,.32-.18q1.68-3.85,3.26-8c1.05-2.75,2.06-5.44,3.05-8.06.88-2.34,1.77-4.67,2.66-7s1.82-4.65,2.81-6.94q1,2.6,1.71,4.88c.49,1.52,1,3.16,1.65,4.94q1.75,5.25,3.61,10.37a80,80,0,0,0,4.31,9.81.37.37,0,0,0,.32.11.32.32,0,0,0,.24-.18c.28-.7.6-1.61.95-2.73s.74-2.4,1.15-3.82.86-3,1.3-4.59.9-3.32,1.37-5.05c.61-2.24,1.21-4.48,1.82-6.69s1.19-4.25,1.76-6.1,1.08-3.44,1.57-4.77a11.11,11.11,0,0,1,1.23-2.63,10.57,10.57,0,0,1,1.47-1.19,2.34,2.34,0,0,1,1.75-.49v-.56c-.65.05-1.29.07-1.89.07Z"/><path class="cls-4" d="M338.08,417.72V388.84c0-1.22.31-2,.95-2.32a10.34,10.34,0,0,1,2.48-.84c.15-.05.19-.16.15-.35s-.15-.26-.28-.21c-.94.14-1.9.23-2.88.28s-2,.07-2.94.07-2,0-3-.07-2-.12-2.94-.21c-.14,0-.22.08-.25.24a.26.26,0,0,0,.18.32,7.09,7.09,0,0,1,2.56.84,2.38,2.38,0,0,1,1.08,2.25v29.09a5.82,5.82,0,0,1-.8,3.11,4.76,4.76,0,0,1-2.56,1.93.26.26,0,0,0-.18.32c0,.16.11.24.25.24l3.72-.11c1.21,0,2.45,0,3.71,0,.88,0,1.76,0,2.63,0s1.76,0,2.7,0v-.56a5.08,5.08,0,0,1-3.54-1.37A5.72,5.72,0,0,1,338.08,417.72Z"/><path class="cls-4" d="M359.81,423.32c1.07,0,2.16,0,3.26,0l3.26,0a2.79,2.79,0,0,0,.91-.21l.07-.07c.18,0,.28-.07.28-.21q.21-1.61.42-3.12c.14-1,.32-2,.56-3.12l-.56-.14a6.15,6.15,0,0,1-2.28,3.68,6.71,6.71,0,0,1-4.17,1.3,9.65,9.65,0,0,1-3.75-.81,6.52,6.52,0,0,1-3-2.35V403.91h3.72c.7,0,1.41,0,2.14.1s1.39.17,2,.28a2.53,2.53,0,0,1,1.3.53,1.9,1.9,0,0,1,.5.77c.09.28.18.56.28.84l.24.77a1.66,1.66,0,0,0,.46.7.25.25,0,0,0,.31.07.27.27,0,0,0,.18-.28c.09-.56.16-1.15.2-1.76s.12-1.19.22-1.75.18-1.16.24-1.82.13-1.26.18-1.82c0-.28-.12-.38-.35-.28a6.94,6.94,0,0,0-1.54.63l-1.13.42a2.69,2.69,0,0,1-.91.21h-8.13V387.15h5.54a8.26,8.26,0,0,1,3.78.78c1,.51,1.59,1.58,1.69,3.22,0,.14.08.22.24.25a.26.26,0,0,0,.32-.18c.23-1.08.45-2.14.66-3.19s.39-2.19.53-3.4c0-.28-.12-.37-.35-.28a6.07,6.07,0,0,1-.59.24,5.72,5.72,0,0,0-.6.25H346a.23.23,0,0,0-.25.18.36.36,0,0,0,.11.31,5.37,5.37,0,0,0,1.08.53l.95.31a7.39,7.39,0,0,1,1.44.7,2,2,0,0,1,.67,1.82v29.16a15,15,0,0,1-.11,1.79,4.62,4.62,0,0,1-.46,1.58,3,3,0,0,1-1,1.16,3,3,0,0,1-1.72.45v.56c1.26,0,2.54-.08,3.82-.1s2.56,0,3.82,0c.93,0,1.84,0,2.73,0S358.87,423.32,359.81,423.32Z"/><path class="cls-4" d="M396.54,387.58a8.72,8.72,0,0,1,3.89.8,4.45,4.45,0,0,1,2.21,3.26q.06.21.21.21a.28.28,0,0,0,.28-.21,15.19,15.19,0,0,0,.49-3.37c0-1.21.07-2.36.07-3.43l-.35-.28-.49.14a3.47,3.47,0,0,1-.5.14,7.32,7.32,0,0,1-2,.35H378a15.54,15.54,0,0,1-2.35-.17,5.38,5.38,0,0,1-2.14-.88c-.19-.14-.33-.1-.42.14l-.28,1c-.1.3-.19.61-.28.94-.19.65-.38,1.32-.57,2a8.31,8.31,0,0,0-.28,2.14l.15.91a.28.28,0,0,0,.2.28.19.19,0,0,0,.28-.14,6.61,6.61,0,0,1,1.83-2.59,4.28,4.28,0,0,1,2.94-1.13h8.42v30.42c0,.8,0,1.46-.08,2a2.53,2.53,0,0,1-.42,1.3,2.47,2.47,0,0,1-1,.8,8.53,8.53,0,0,1-1.85.6c-.14.05-.2.16-.18.35s.11.26.25.21c.94-.09,1.85-.16,2.74-.21s1.79-.07,2.73-.07c1.21,0,2.41,0,3.57.1l3.57.25c.15,0,.23-.08.25-.25a.25.25,0,0,0-.17-.31,5.49,5.49,0,0,1-3.22-1.75,4.9,4.9,0,0,1-1.27-3.43V387.58Z"/><path class="cls-4" d="M445.5,386.45c.73-.28,1.41-.51,2.07-.7.09,0,.15-.06.17,0s.08,0,.18,0l-.14-.56a7.1,7.1,0,0,1-.77,0l-.78,0a15.44,15.44,0,0,0-1.92,0l-1.86,0H439.5a23.47,23.47,0,0,1-3-.21c-.09,0-.18,0-.24.14a.28.28,0,0,0,0,.35,1.68,1.68,0,0,0,.81.45,8.22,8.22,0,0,0,1,.18,9.05,9.05,0,0,1,1,.21,2.36,2.36,0,0,1,.91.53,2.53,2.53,0,0,1,.66,1.12,6.32,6.32,0,0,1,.25,1.93c0,2,0,4.14.07,6.41s.09,4.41.14,6.41q.08,3.3.1,6.45t0,6.38v.21q-7.36-8.21-14.51-15.88T412,384.14a.13.13,0,0,0-.21-.07.43.43,0,0,0-.21.21L411,385.4v32.8a3.5,3.5,0,0,1-.67,2.36,5.36,5.36,0,0,1-1.51,1.15,9.84,9.84,0,0,0-.87.49,7.79,7.79,0,0,0-1,.77.27.27,0,0,0,0,.35.23.23,0,0,0,.31.14l2.67-.39a21,21,0,0,1,2.59-.17c.65,0,1.32,0,2,.07s1.34.12,2,.21l1.37.14,1.37.14a.23.23,0,0,0,.25-.17.37.37,0,0,0-.11-.32,5.25,5.25,0,0,0-1.33-.74c-.38-.11-.75-.22-1.12-.31a4.28,4.28,0,0,1-.95-.25,1.64,1.64,0,0,1-.77-.59,3.59,3.59,0,0,1-.53-1.16,7.18,7.18,0,0,1-.21-1.92c0-1.82,0-3.63-.07-5.4s-.12-3.55-.21-5.33-.17-3.55-.21-5.33-.07-3.55-.07-5.32a33.11,33.11,0,0,1,.21-3.65c.66.7,1.24,1.37,1.75,2s1.1,1.29,1.75,2q2.88,3.36,6,6.9t6.41,7q3.25,3.47,6.63,6.8c2.23,2.22,4.48,4.29,6.72,6.2a.23.23,0,0,0,.32,0,.28.28,0,0,0,.17-.25c.23-2.66.4-5.31.49-7.95s.14-5.32.14-8v-2.87l-.07-16.89A1.49,1.49,0,0,1,445.5,386.45Z"/><path class="cls-4" d="M460.71,386.52a10.34,10.34,0,0,1,2.48-.84c.15-.05.19-.16.15-.35s-.15-.26-.28-.21c-.94.14-1.9.23-2.88.28s-2,.07-2.94.07-2,0-3-.07-2-.12-2.94-.21c-.14,0-.22.08-.25.24a.26.26,0,0,0,.18.32,7.09,7.09,0,0,1,2.56.84,2.38,2.38,0,0,1,1.08,2.25v29.09a5.82,5.82,0,0,1-.8,3.11,4.76,4.76,0,0,1-2.56,1.93.26.26,0,0,0-.18.32c0,.16.11.24.25.24l3.71-.11q1.83,0,3.72,0c.88,0,1.76,0,2.63,0s1.76,0,2.7,0v-.56a5.08,5.08,0,0,1-3.54-1.37,5.72,5.72,0,0,1-1-3.81V388.84C459.76,387.62,460.07,386.85,460.71,386.52Z"/><path class="cls-4" d="M500.77,419.47A154.39,154.39,0,0,1,493.65,404q-3.12-7.94-6-15.77c-.24-.66-.48-1.3-.74-1.93s-.5-1.28-.73-1.93a.28.28,0,0,0-.28-.21.26.26,0,0,0-.28.21c-.89,2.34-1.74,4.66-2.53,7s-1.61,4.64-2.45,7q-1.83,5.19-3.72,10.3T473,418.84v-.08a6.36,6.36,0,0,1-5.39,4.07c-.14.05-.2.16-.18.35s.11.26.25.21l2.8-.25c.94-.07,1.87-.1,2.8-.1s1.87,0,2.81.1l2.73.25v-.56a11.57,11.57,0,0,1-1.75-.45,1.32,1.32,0,0,1-.91-1.37,10.23,10.23,0,0,1,.49-2.49c.33-1.15.7-2.36,1.12-3.65s.85-2.52,1.3-3.71.78-2.09,1-2.7H491c.8,2.25,1.62,4.43,2.49,6.56s1.69,4.28,2.49,6.48l-2.73,1.33a.27.27,0,0,0-.15.35.28.28,0,0,0,.28.21l3.23-.28c1.07-.09,2.15-.14,3.22-.14.43,0,.83,0,1.23,0s.78.06,1.15.1l1.87.14a8.36,8.36,0,0,0,1.85-.07v-.56a7.44,7.44,0,0,1-3-.84A5.18,5.18,0,0,1,500.77,419.47Zm-19.92-13.32c.89-2.52,1.7-5,2.43-7.33s1.48-4.78,2.27-7.25l4.35,14.58Z"/><path class="cls-4" d="M550.67,417.37a7.89,7.89,0,0,1-2.28,1.89,8.55,8.55,0,0,1-2.91.91,27.78,27.78,0,0,1-3.57.21h-8.7a3.67,3.67,0,0,1-.77-.07,49.89,49.89,0,0,0,6.38-5.29,55.19,55.19,0,0,0,6-6.91,40.12,40.12,0,0,0,4.48-7.75,19.63,19.63,0,0,0,1.76-7.88,9.59,9.59,0,0,0-1.34-5.29,9.4,9.4,0,0,0-3.46-3.23,15.22,15.22,0,0,0-4.77-1.57,33.14,33.14,0,0,0-5.23-.43,14.9,14.9,0,0,0-4.06.56,30,30,0,0,0-3.71,1.34c-.1,0-.15.09-.15.28,0,.38-.08.73-.1,1.05s0,.67,0,1.05a27.27,27.27,0,0,0,.17,3.16,15.6,15.6,0,0,0,.67,3.08.25.25,0,0,0,.31.18c.17,0,.25-.11.25-.25a9.29,9.29,0,0,1,.49-3.05,8.4,8.4,0,0,1,1.37-2.56,6.11,6.11,0,0,1,2.2-1.75,7,7,0,0,1,3-.63,8.45,8.45,0,0,1,3.67.81,9,9,0,0,1,3,2.17,10.41,10.41,0,0,1,1.93,3.12,10,10,0,0,1,.7,3.71,14.28,14.28,0,0,1-1.3,5.75,31.56,31.56,0,0,1-3.37,5.82c-1.37,1.91-2.89,3.82-4.55,5.71s-3.28,3.71-4.87,5.43c-1.08,1.17-2.1,2.32-3.08,3.44s-1.87,2.17-2.66,3.15c-.2.28-.13.42.2.42h23.21c.6,0,1.13-.42,1.57-1.26a12.88,12.88,0,0,0,1.09-2.91,22.14,22.14,0,0,0,.59-3.26q.18-1.61.18-2.31l-.56-.07A11.79,11.79,0,0,1,550.67,417.37Z"/><path class="cls-4" d="M583.54,387.47a13.06,13.06,0,0,0-4.38-4.14,12.64,12.64,0,0,0-6.48-1.57,14.84,14.84,0,0,0-7.4,1.75,15.38,15.38,0,0,0-5.15,4.63,20,20,0,0,0-3,6.51,28.24,28.24,0,0,0-1,7.43,31.23,31.23,0,0,0,1,7.72,26.65,26.65,0,0,0,3.08,7.35,18.7,18.7,0,0,0,5.22,5.58,13.56,13.56,0,0,0,7.51,2.34,20.65,20.65,0,0,0,6-4.45,27.07,27.07,0,0,0,4.34-6.2,31.89,31.89,0,0,0,2.63-7.18,33,33,0,0,0,.87-7.47,27.19,27.19,0,0,0-.8-6.52A18.81,18.81,0,0,0,583.54,387.47Zm-2.77,19.7a37.31,37.31,0,0,1-1.26,6,24.16,24.16,0,0,1-2.38,5.47,10.25,10.25,0,0,1-3.76,3.78,12.86,12.86,0,0,1-5.57-3.47,19.82,19.82,0,0,1-3.67-5.5,28.66,28.66,0,0,1-2.07-6.52,33.81,33.81,0,0,1-.67-6.52,38.21,38.21,0,0,1,.35-4.87,20.88,20.88,0,0,1,1.37-5.26,11.9,11.9,0,0,1,2.77-4.17,6.19,6.19,0,0,1,4.48-1.68,8.05,8.05,0,0,1,5.33,1.75,12.64,12.64,0,0,1,3.33,4.35,19.67,19.67,0,0,1,1.68,5.61,36.79,36.79,0,0,1,.46,5.6A43.51,43.51,0,0,1,580.77,407.17Z"/><path class="cls-4" d="M608.85,423.07a11.07,11.07,0,0,0-1.54-.24c-.48,0-.95-.12-1.44-.21a3,3,0,0,1-1.3-.56,3.3,3.3,0,0,1-1-1.23,5.27,5.27,0,0,1-.38-2.2v-8q0-4,.07-8t.07-7.92v-11a15.08,15.08,0,0,0-.14-2c0-.28-.12-.37-.35-.28-2.24,1.17-4.46,2.46-6.63,3.86a63.72,63.72,0,0,0-6.2,4.55.34.34,0,0,0-.07.35c0,.15.14.2.28.15a6.8,6.8,0,0,0,1.83-.53c.56-.25,1.12-.5,1.67-.73s1.2-.53,1.75-.74a4.3,4.3,0,0,1,1.41-.32,2.05,2.05,0,0,1,1.47.63V419A4.6,4.6,0,0,1,598,421a2.68,2.68,0,0,1-1.09,1.12,5.48,5.48,0,0,1-1.58.57,17.32,17.32,0,0,1-1.78.24l-1.27.14a10.34,10.34,0,0,0-1.11.21.25.25,0,0,0-.18.32q0,.24.24.24c3.08.14,6.16.24,9.22.28s6.13.07,9.22.07l.21-.42A1.72,1.72,0,0,0,608.85,423.07Z"/><path class="cls-4" d="M630.72,400.75a13.53,13.53,0,0,0,4.69-4,9.44,9.44,0,0,0,2-5.78,8.28,8.28,0,0,0-.88-3.72,11.36,11.36,0,0,0-2.28-3.08,10.42,10.42,0,0,0-7-2.81,10.38,10.38,0,0,0-4.45,1,13.7,13.7,0,0,0-6.52,6.55,10.49,10.49,0,0,0-1,4.49,7.68,7.68,0,0,0,2,5.4,12.12,12.12,0,0,0,4.87,3.22,19.38,19.38,0,0,0-3.54,1.9,13.31,13.31,0,0,0-2.87,2.63,12.91,12.91,0,0,0-2,3.29,10.1,10.1,0,0,0-.74,3.89,9.8,9.8,0,0,0,1.16,4.73,12.29,12.29,0,0,0,3,3.65,13.4,13.4,0,0,0,4.18,2.31,14.83,14.83,0,0,0,4.8.8,11.87,11.87,0,0,0,5.08-1.12,13.5,13.5,0,0,0,4.21-3,14.87,14.87,0,0,0,2.84-4.35,12.84,12.84,0,0,0,1-5.11,10.11,10.11,0,0,0-2.39-6.88A13.71,13.71,0,0,0,630.72,400.75Zm-10.14-7.22a9.14,9.14,0,0,1-.66-3.37,5.7,5.7,0,0,1,.56-2.58,5.9,5.9,0,0,1,1.54-1.93,7,7,0,0,1,2.21-1.23,8.06,8.06,0,0,1,2.63-.42,5.41,5.41,0,0,1,2.63.63,5.89,5.89,0,0,1,1.92,1.65,7.51,7.51,0,0,1,1.2,2.34,8.85,8.85,0,0,1,.42,2.67,9.27,9.27,0,0,1-1.26,4.66,8.81,8.81,0,0,1-3.37,3.4,7.3,7.3,0,0,1-3.29-.77,8.93,8.93,0,0,1-2.7-2.07A10,10,0,0,1,620.58,393.53Zm13.29,22.82a10,10,0,0,1-1.44,3,8.71,8.71,0,0,1-2.24,2.21,5.15,5.15,0,0,1-3,.88,8.53,8.53,0,0,1-3.92-.88,8.7,8.7,0,0,1-2.95-2.34,11.23,11.23,0,0,1-1.86-3.41,12.08,12.08,0,0,1-.66-3.95,9.18,9.18,0,0,1,2.14-6.21,7.37,7.37,0,0,1,5.92-2.48,7.22,7.22,0,0,1,3.54.87,8.93,8.93,0,0,1,2.7,2.31,10,10,0,0,1,1.68,3.26,12.48,12.48,0,0,1,.56,3.64A11.22,11.22,0,0,1,633.87,416.35Z"/><path class="cls-4" d="M728.1,400c-9.31-.31-18.62-1.23-27.93-.71a179.43,179.43,0,0,0-27.94,3.2v.72a179.43,179.43,0,0,0,27.94,3.2c9.31.52,18.62-.4,27.93-.71L756,404.58,784,403.16v-.36h0v-.36L756,401Z"/><path class="cls-4" d="M101.44,400,73.51,401l-27.94,1.42v.36H157.31v-.36a179.44,179.44,0,0,0-27.93-3.2C120.06,398.72,110.75,399.64,101.44,400Z"/><path class="cls-4" d="M45.57,403.16l27.94,1.42,27.93,1.07c9.31.31,18.62,1.23,27.94.71a179.44,179.44,0,0,0,27.93-3.2v-.36H45.57Z"/></g></g></svg>