<svg xmlns="http://www.w3.org/2000/svg" viewBox="0 0 501.87 345.86"><defs><style>.cls-1,.cls-2{fill:#706f6f;}.cls-2{font-size:42px;font-family:ReemKufi-Regular, Reem Kufi;}.cls-3{letter-spacing:-0.03em;}.cls-4{letter-spacing:-0.06em;}.cls-5{letter-spacing:0em;}.cls-6{letter-spacing:-0.04em;}.cls-7{letter-spacing:-0.01em;}.cls-8{letter-spacing:0em;}.cls-9{fill:#3c3c3b;}</style></defs><title>rg</title><g id="Warstwa_2" data-name="Warstwa 2"><g id="Warstwa_1-2" data-name="Warstwa 1"><rect class="cls-1" x="19.56" y="203.04" width="462.76" height="3.8"/><text class="cls-2" transform="translate(26.24 260.57)"><tspan class="cls-3">K</tspan><tspan x="27.34" y="0">OREK</tspan><tspan class="cls-4" x="147.38" y="0">T</tspan><tspan class="cls-5" x="169.43" y="0" xml:space="preserve">A  I  RE</tspan><tspan class="cls-6" x="289.08" y="0">D</tspan><tspan x="319.11" y="0">A</tspan><tspan class="cls-3" x="348.51" y="0">K</tspan><tspan x="375.85" y="0">C</tspan><tspan class="cls-7" x="405" y="0">J</tspan><tspan x="419.99" y="0">A</tspan><tspan x="144.58" y="50.4">TEK</tspan><tspan class="cls-8" x="225.22" y="50.4">S</tspan><tspan x="249.5" y="50.4">TU</tspan></text><path class="cls-9" d="M419.87,85H378.49c0,1.65,0,3.29,0,4.93h35.76a84,84,0,0,1-6.58,33.12,84.27,84.27,0,0,1-44.74,45.2c-2.34,1-4.72,1.91-7.13,2.69V9.05c.58.19,1.16.37,1.73.58a85.52,85.52,0,0,1,23.61,12.91A86.93,86.93,0,0,1,399.44,42,82.61,82.61,0,0,1,411,66.69l5.64-1.4a88.39,88.39,0,0,0-12.22-26.07,89.6,89.6,0,0,0-19.6-20.67A92.65,92.65,0,0,0,359.52,4.93,89.88,89.88,0,0,0,295.29,7a96.8,96.8,0,0,0-9.06,4.52l-7.81,4.94a90.18,90.18,0,0,0-11.62,9.76l-4.55,4.94A89.49,89.49,0,0,0,255,41l-3,4.95a98.62,98.62,0,0,0-4.47,9c-.1.24-.18.48-.28.71l-1.88,5a88.49,88.49,0,0,0-4.88,29.33,90.2,90.2,0,0,0,2.88,22.84l1.47,4.94c.79,2.44,1.68,4.84,2.69,7.21.25.58.52,1.13.77,1.7l2.4,4.94a92.89,92.89,0,0,0,5.29,8.91l3.61,5a89.53,89.53,0,0,0,7.19,8.15l.79.76,5.47,4.94a89.7,89.7,0,0,0,13,8.91l10,4.94a87,87,0,0,0,34.15,6.76,87.86,87.86,0,0,0,35-7,89.68,89.68,0,0,0,47.9-47.91,87.79,87.79,0,0,0,7.05-35V87.48A12.39,12.39,0,0,0,419.87,85ZM250.55,63.17c.3-.87.65-1.7,1-2.56h67.07v9.76h-70C249.12,67.93,249.77,65.53,250.55,63.17Zm-1.13,49.61a82.89,82.89,0,0,1-2-8.92h15.64v8.92Zm101.43,55.41H297.38a83.09,83.09,0,0,1-15.72-8.91h69.19Zm0-13.85H275.33a83.8,83.8,0,0,1-8.77-8.91h84.29Zm0-13.86H262.7c-.13-.17-.28-.34-.4-.52a85,85,0,0,1-5.2-8.39h93.75Zm0-13.85H254.58a88.45,88.45,0,0,1-3.65-8.91h99.92Zm0-13.85H284.33v-8.92h66.52Zm0-13.86h-104a87.05,87.05,0,0,1-.5-8.91H350.85Zm0-13.85H246.51a86.7,86.7,0,0,1,1.05-9.76H350.85Zm0-14.7H334.68V60.61h16.17Zm0-14.71H253.47a88.32,88.32,0,0,1,5-9.75h92.42Zm0-14.7H261.62c.23-.34.44-.7.68-1a81.39,81.39,0,0,1,7.21-8.72h81.34Zm0-14.7H274.58c1.85-1.66,3.77-3.26,5.8-4.77a83.8,83.8,0,0,1,7.62-5h62.85Zm0-14.7h-53.1c1.85-.78,3.73-1.52,5.64-2.17l5.87-1.64a75.77,75.77,0,0,1,20.91-2.82,81.46,81.46,0,0,1,20.68,2.62Z"/><path class="cls-9" d="M161.37,107.5v-1.17h10.8q16.22,0,26.89-4.35a47.81,47.81,0,0,0,17.73-12.09,51.34,51.34,0,0,0,10-15.74,50.54,50.54,0,0,0,3.63-19.25A50.44,50.44,0,0,0,227,36.34a52.77,52.77,0,0,0-9-15.26A50.81,50.81,0,0,0,200,7.93Q189.08,3,172.17,3H147.75V2.91h-66V138.57l9.62,10L111,170.06l.77.85,3.18,3.45,3.48-3.45,23.5-26.17,5.87-6.17v-36l81.86,69.78,2.37,1.93s3.66,1.16,5.6.73a31.72,31.72,0,0,0,3.92-1ZM117,7.93h10.47V138.57H117Zm-15.42,0h10.48V138.57H101.6ZM87.87,138.57V7.93h8.79V138.57Zm33.17,22H109l-15.51-17h42.88Zm20.84-22h-9.44V7.93h9.44ZM147.75,7.93h24.42q14.81,0,25,4.46a43.84,43.84,0,0,1,16.33,11.74,48.38,48.38,0,0,1,8,13.86,47,47,0,0,1,3,16.91,46.84,46.84,0,0,1-12.21,31.7,42.5,42.5,0,0,1-15.85,10.92q-9.51,3.87-24.31,3.87H147.75Z"/><path class="cls-9" d="M245.61,167.17A8.67,8.67,0,1,1,237,158.5,8.67,8.67,0,0,1,245.61,167.17Z"/><circle class="cls-9" cx="411.44" cy="167.17" r="8.67"/></g></g></svg>